<svg xmlns="http://www.w3.org/2000/svg" width="142" height="129" viewBox="0 0 142 129" fill="none"><g clip-path="url(#clip0_1243_747)"><path d="M33.9909 58.6505C35.2279 57.6402 36.2551 56.1439 37.0725 54.1615C37.89 52.1792 38.2971 49.8697 38.294 47.2331V15.3909C38.3007 14.9009 38.4045 14.4171 38.5993 13.9676C38.7942 13.518 39.0761 13.1116 39.429 12.7719C39.7681 12.4323 40.1721 12.1645 40.6168 11.9845C41.0614 11.8044 41.5378 11.7158 42.0174 11.7239H42.7735V11.145H30.0356V11.727H30.7917C31.2742 11.7209 31.7529 11.8138 32.1981 12.0002C32.6433 12.1866 33.0456 12.4624 33.3801 12.8106C34.0813 13.4924 34.4881 14.4219 34.5135 15.4002V47.0643C34.5135 49.5482 34.213 51.7024 33.612 53.5269C33.0111 55.3514 32.2457 56.7197 31.3159 57.632C30.4391 58.5101 29.389 59.1955 28.2327 59.6442C27.2049 60.0526 26.1114 60.2698 25.0057 60.2851C23.9461 60.2765 22.8948 60.0956 21.8931 59.7495L21.6612 60.3903C23.0995 61.0595 24.6691 61.398 26.2551 61.381C29.0847 61.3851 31.6633 60.4749 33.9909 58.6505Z" fill="white"></path><path d="M140.777 127.393C139.012 127.755 137.187 127.694 135.45 127.215C134.338 126.971 133.27 126.558 132.282 125.992C131.622 125.565 131.031 125.187 130.507 124.858C129.906 124.466 129.343 124.019 128.825 123.524C128.224 122.96 127.719 122.496 127.312 122.13C126.791 121.641 126.296 121.124 125.829 120.583C125.248 119.923 124.812 119.418 124.521 119.069C124.231 118.719 123.727 118.117 123.009 117.264C122.288 116.411 121.735 115.771 121.352 115.343V82.4435C121.364 81.9781 121.468 81.5198 121.658 81.0948C121.847 80.6698 122.119 80.2864 122.457 79.9668C122.784 79.6374 123.174 79.3771 123.604 79.2013C124.033 79.0255 124.493 78.9379 124.957 78.9436H126.004V78.3616H114.024V78.9436H115.13C115.593 78.9374 116.053 79.0243 116.483 79.1993C116.912 79.3742 117.302 79.6336 117.63 79.9622C117.972 80.2918 118.247 80.6861 118.436 81.1224C118.626 81.5586 118.728 82.0281 118.735 82.5038V112.379L89.4234 79.7656C88.1431 78.3291 87.0479 77.1646 86.1376 76.2719C85.0343 75.2199 83.8583 74.247 82.6184 73.3603C81.1835 72.3129 79.8434 71.5854 78.5982 71.1778C77.353 70.7701 75.8696 70.5663 74.1481 70.5663H74.0971C73.33 67.7254 72.7571 64.8355 72.3823 61.9166C71.9896 58.8556 71.8134 55.7707 71.8551 52.6848C75.5908 49.3661 79.2914 46.0066 82.957 42.6064C83.8384 41.7968 84.7012 40.9749 85.5856 40.1514C86.512 39.3036 87.3906 38.4049 88.2173 37.4596C89.1119 36.4482 89.8608 35.3165 90.4423 34.0975C91.0385 32.8172 91.3478 31.422 91.3484 30.0095C91.3345 28.6024 90.9526 27.1241 90.0867 25.9493C89.6599 25.3703 89.1312 24.874 88.5266 24.485C88.3844 24.3823 88.2333 24.2926 88.0751 24.2172L87.6112 23.9896C87.2959 23.8632 86.9719 23.7597 86.6417 23.68C86.0024 23.5207 85.3442 23.4503 84.6857 23.4711L84.477 23.4835C82.6306 23.5243 80.8315 24.0756 79.2785 25.0763C76.1258 27.3517 74.6151 31.2602 73.6518 34.4102C72.4444 38.3826 71.6216 42.4621 71.1948 46.5923C66.7623 50.1958 62.373 53.8509 58.0271 57.5577L55.3135 59.8966C54.412 60.6705 53.4858 61.46 52.5612 62.3129C51.6088 63.1863 50.705 64.1112 49.8537 65.0836C48.952 66.1104 48.1587 67.2278 47.4864 68.4178C46.1072 70.9208 45.3418 73.8355 45.7639 76.857C45.8057 77.2332 45.9 77.6093 45.9788 77.9839C46.0757 78.36 46.1928 78.7305 46.3298 79.0938C46.6011 79.8309 46.9648 80.5304 47.4122 81.1757C48.3048 82.4257 49.4676 83.4579 50.8139 84.1957C52.0607 84.8683 53.4103 85.3292 54.8078 85.5594C56.1211 85.79 57.4565 85.869 58.7878 85.7947C59.4388 85.7545 60.096 85.6972 60.7268 85.5966L61.6685 85.4418C61.9777 85.3876 62.287 85.3133 62.5962 85.2483C67.536 84.1573 72.0645 81.6837 75.6542 78.1155C75.9835 78.8229 76.3283 79.5179 76.6685 80.2005C77.9395 82.7531 79.1425 85.1632 79.4161 88.002C79.8568 92.5219 77.7864 97.2771 74.1435 100.119C70.5454 102.936 65.5372 103.854 61.0763 102.534C56.8226 101.274 53.2291 98.0882 51.3783 93.963C51.3244 93.8431 51.2259 93.7489 51.1039 93.7004C50.9818 93.6519 50.8456 93.6528 50.7242 93.703C50.6612 93.7294 50.6041 93.7682 50.5563 93.8171C50.5085 93.8659 50.471 93.9239 50.4459 93.9875C50.4208 94.0511 50.4087 94.1191 50.4103 94.1875C50.4119 94.2559 50.4272 94.3232 50.4552 94.3856C52.4266 98.7755 56.2551 102.165 60.7887 103.507C62.2222 103.93 63.7089 104.143 65.2032 104.141C68.6513 104.141 72.0777 103.025 74.7713 100.926C78.6832 97.8746 80.9052 92.7665 80.432 87.9091C80.1382 84.883 78.8379 82.2747 77.5808 79.7516C77.1849 78.9576 76.786 78.1449 76.4134 77.3199C77.1138 76.5722 78.0957 75.5305 79.1038 74.4253C79.8027 75.0145 80.4212 75.5331 80.9593 75.9809C81.6174 76.5431 82.23 77.1564 82.7916 77.8152C83.4503 78.5727 83.9734 79.1836 84.361 79.6479C84.7486 80.1123 85.2336 80.7237 85.816 81.4822C86.3974 82.2386 86.785 82.7546 86.9788 83.0301V114.988C86.9901 115.46 86.9029 115.93 86.7226 116.366C86.5424 116.802 86.2731 117.196 85.932 117.522C85.6043 117.851 85.214 118.111 84.7843 118.286C84.3545 118.461 83.8941 118.547 83.4302 118.541H82.3262V119.123H94.3064V118.541H93.2008C92.5886 118.544 91.9867 118.383 91.4567 118.076C90.2939 117.417 89.6929 116.408 89.6538 115.049V85.9371L120.305 119.939C122.036 121.836 123.902 123.606 125.888 125.236C127.787 126.711 130.036 127.798 132.634 128.497C135.115 129.116 137.906 128.941 141.009 127.972L140.777 127.393ZM74.6228 34.7074C75.5397 31.7091 76.9654 27.9987 79.8723 25.8997C79.8723 25.8997 81.0366 25.0345 81.7123 24.7791C82.1014 24.6375 82.5107 24.5596 82.9246 24.5484C84.03 24.4674 85.1386 24.6548 86.1562 25.0948C86.3928 25.2019 86.6222 25.3245 86.8427 25.4617C87.0492 25.6025 87.2455 25.7577 87.4303 25.9261C87.787 26.2504 88.081 26.6376 88.2977 27.0684C88.713 27.9386 88.8533 28.915 88.6997 29.867C88.5572 30.8494 88.2078 31.7901 87.6746 32.627C87.1032 33.5039 86.4208 34.3031 85.6444 35.0046C84.845 35.7414 83.959 36.4472 83.0251 37.1717C82.0911 37.8961 81.1325 38.6298 80.197 39.3712C77.5509 41.4485 74.9223 43.5475 72.3112 45.6681C72.7578 41.9535 73.5314 38.2857 74.6228 34.7074ZM65.4598 81.6262C64.9063 81.7577 64.345 81.8491 63.7868 81.9481C63.5085 81.993 63.2255 82.024 62.9472 82.0611C62.6689 82.0983 62.3875 82.1323 62.1061 82.1509L61.2649 82.2175L60.4253 82.2546C59.8687 82.2778 59.3306 82.2546 58.7878 82.233C57.7319 82.1692 56.6852 81.997 55.6644 81.719C54.7192 81.4636 53.819 81.0637 52.9956 80.5333C52.2722 80.0559 51.6659 79.4209 51.2221 78.6758C51.0148 78.3219 50.8512 77.944 50.735 77.5505C50.6639 77.3586 50.6376 77.1419 50.5804 76.9406C50.5572 76.7255 50.5108 76.5196 50.5047 76.2983C50.4509 75.3884 50.5471 74.4758 50.7892 73.5971C51.0408 72.6793 51.4242 71.8028 51.9272 70.9951C52.4705 70.1283 53.0916 69.3127 53.7827 68.5587C54.5301 67.7546 55.3198 66.9909 56.1484 66.2709C56.9927 65.5186 57.891 64.7617 58.8064 63.9862L61.5401 61.6643C64.6604 58.9967 67.7575 56.3008 70.8315 53.5764C70.8301 59.3255 71.5812 65.0499 73.0658 70.6035C71.5874 70.7545 70.1406 71.1297 68.775 71.7164L69.0084 72.2984C69.9604 72.0036 70.9498 71.8472 71.9463 71.8341C72.451 71.839 72.9543 71.8871 73.4508 71.978C73.8239 73.2597 74.2363 74.5254 74.6878 75.7751C74.8841 76.3215 75.0743 76.7781 75.3063 77.3075C72.2385 79.3569 68.9157 80.8692 65.4598 81.6262ZM76.1289 76.6728C75.9557 76.2642 75.7871 75.854 75.6372 75.4345C75.2568 74.3768 74.9042 73.3072 74.5795 72.2257C74.8099 72.2845 75.0434 72.348 75.2893 72.4192C76.4275 72.7591 77.5043 73.2785 78.4791 73.9578C77.621 75.0104 76.7829 75.9856 76.1304 76.679L76.1289 76.6728Z" fill="white"></path><path d="M93.8425 58.7588C90.5954 59.7619 87.6267 61.7618 84.5172 65.8049C83.8198 66.712 82.0432 69.4704 81.3598 70.5601C81.3243 70.6172 81.3005 70.6808 81.2899 70.7472C81.2793 70.8137 81.2821 70.8815 81.2981 70.9469C81.3141 71.0122 81.343 71.0737 81.383 71.1277C81.4231 71.1817 81.4735 71.2271 81.5314 71.2613H81.5407C81.7757 71.4006 81.8886 71.122 82.0339 70.8898C82.6911 69.8326 84.4244 67.2166 85.1372 66.3482C88.1245 62.7044 91.0995 60.6643 94.1425 59.7232C97.2489 58.7619 101.428 59.7232 103.697 62.497C103.961 62.8221 104.542 62.7478 104.64 62.1364C104.663 61.8115 104.56 61.4902 104.354 61.2386C101.775 58.2712 97.218 57.7124 93.8425 58.7588Z" fill="white"></path><path d="M85.4279 125.709C85.3824 125.71 85.337 125.713 85.2918 125.718C84.8728 125.77 84.46 125.827 84.0672 125.889C80.8299 126.402 77.5573 126.661 74.2796 126.663C70.066 126.656 65.8632 126.235 61.7319 125.406C56.3618 124.335 51.0752 122.494 45.5722 119.779C44.1512 119.078 43.2776 118.171 42.823 116.926C42.7797 116.807 42.7333 116.686 42.6884 116.567C42.339 115.638 42.0081 114.762 42.2694 113.762C42.3384 113.52 42.3105 113.26 42.1916 113.038C42.0727 112.816 41.8722 112.649 41.6324 112.572C41.5178 112.526 41.3956 112.501 41.2721 112.499C41.1546 112.498 41.0385 112.525 40.9342 112.579C40.8298 112.633 40.7403 112.712 40.6737 112.809C40.3273 113.287 40.6196 113.7 40.8283 114.002L40.8608 114.049C40.918 114.129 40.9799 114.204 41.0417 114.281C41.1892 114.435 41.2997 114.621 41.3649 114.824C41.5682 115.74 41.8662 116.632 42.254 117.487C42.3653 117.723 42.3514 117.796 42.2849 117.86C42.2632 117.88 42.2509 117.88 42.2462 117.88C42.184 117.863 42.1261 117.833 42.0761 117.792L42.0035 117.744C41.136 117.208 40.2067 116.626 39.0795 115.909C39.016 115.878 38.9594 115.835 38.9129 115.782C38.8664 115.729 38.8311 115.667 38.8089 115.6C38.808 115.513 38.8245 115.428 38.8574 115.348C38.8904 115.268 38.9391 115.196 39.0007 115.135C39.7166 114.234 40.0722 113.123 40.083 111.73C40.1155 109.125 39.0347 106.931 37.9724 105.147C37.7714 104.808 37.5642 104.642 37.3369 104.642C37.0648 104.642 36.8483 104.882 36.6736 105.116C36.1099 105.851 35.7236 106.706 35.5448 107.616C35.1397 109.756 35.5448 111.817 36.7927 113.917C36.8174 113.959 36.8468 114.002 36.8761 114.046C37.0401 114.282 37.0308 114.315 36.955 114.374C36.9445 114.384 36.931 114.391 36.9164 114.394C36.8731 114.394 36.7865 114.318 36.7215 114.262C36.6735 114.217 36.6217 114.175 36.5669 114.139C35.1382 113.199 34.2615 111.78 33.8069 109.671C33.4157 107.852 33.6522 106.001 33.8795 104.209L33.9058 103.997C33.9213 103.882 33.9275 103.766 33.9337 103.653C33.963 103.079 34.0094 102.749 34.6094 102.653C34.9186 102.603 34.9774 102.199 35.0067 101.981C35.044 101.772 35.0357 101.557 34.9823 101.351C34.9289 101.146 34.8318 100.954 34.6975 100.789C34.5641 100.641 34.4002 100.523 34.2171 100.445C34.034 100.366 33.836 100.328 33.6368 100.333C33.5331 100.333 33.4297 100.342 33.3275 100.359C32.9765 100.418 32.7431 100.562 32.6549 100.775C32.6008 100.905 32.5792 101.124 32.7864 101.416C33.4219 102.314 33.2796 103.274 33.1296 104.285C33.1173 104.377 33.1033 104.47 33.0894 104.562C32.7802 106.71 32.6255 109.007 33.4729 111.247L33.5054 111.324C33.5919 111.536 33.5796 111.569 33.5224 111.609C33.5066 111.622 33.4872 111.631 33.4667 111.632C33.4172 111.632 33.3384 111.561 33.275 111.504C33.2487 111.479 33.2208 111.454 33.1961 111.434C31.8586 110.334 30.6139 109.086 29.4109 107.874L29.0228 107.484C28.8404 107.301 28.8527 107.226 28.8543 107.218C28.8558 107.21 28.8821 107.137 29.1264 107.063C30.1114 106.78 30.7778 106.075 31.1071 104.97C31.755 102.791 31.571 100.514 30.5319 97.8034C30.1887 96.9103 29.7743 96.2555 29.2285 95.7416C29.0968 95.5963 28.9162 95.5047 28.7213 95.4846C28.5327 95.4846 28.3641 95.6023 28.225 95.8329C26.303 99.0154 25.9458 102.017 27.1318 105.007C27.1612 105.079 27.1967 105.147 27.2323 105.213C27.3077 105.319 27.3497 105.445 27.3529 105.575C27.197 105.524 27.0626 105.422 26.971 105.286C25.3134 103.246 24.4831 100.707 24.4398 97.5186C24.4259 96.4846 24.5078 95.4366 25.6598 94.9738C25.7385 94.9446 25.8103 94.8992 25.8705 94.8406C25.9307 94.7819 25.9779 94.7113 26.0092 94.6333C26.0855 94.3785 26.0588 94.1039 25.935 93.8686C25.7324 93.429 25.4263 93.3361 25.2036 93.3361C25.1712 93.3361 25.1356 93.3361 25.1 93.3361C24.5264 93.4073 24.4197 93.9336 24.3857 94.1101C24.3625 94.2277 24.3486 94.3469 24.3362 94.4614C24.3242 94.6389 24.2899 94.8142 24.2341 94.9831C23.4718 96.9056 23.4858 98.9767 24.2805 101.497C24.2929 101.537 24.3068 101.576 24.3207 101.614C24.3826 101.791 24.429 101.924 24.3532 102.063C24.1197 101.744 23.877 101.429 23.6404 101.124C22.4637 99.599 21.352 98.1594 21.2267 96.1286C21.1819 95.4026 21.171 94.7447 21.4849 94.0636C21.9739 92.9754 22.3296 91.832 22.5441 90.6582C22.7188 89.7496 22.8719 88.5562 22.5039 87.3766C22.4838 87.3132 22.4668 87.242 22.4498 87.1677C22.3725 86.8287 22.255 86.3179 21.7215 86.307C21.1881 86.2962 20.9221 86.8225 20.7226 87.1986C19.8475 88.8503 19.815 90.6304 19.8969 92.152C19.9629 93.3376 20.1227 94.5162 20.3747 95.6766C20.3964 95.771 20.4289 95.9211 20.3964 95.9707C20.383 95.985 20.3648 95.9938 20.3454 95.9954C20.3005 95.9784 20.265 95.8499 20.2495 95.7942L20.234 95.7416C20.1181 95.3484 20.0052 94.9676 19.9124 94.5683C19.4702 92.6937 19.2939 90.7449 19.1393 88.8595L19.096 88.3534C19.0311 87.6181 19.2506 87.2017 19.917 86.759C23.3188 84.5192 24.998 81.4714 24.9114 77.7006V77.5861C24.9006 76.9809 24.8851 76.1527 24.2929 75.8834C24.1653 75.8246 24.0266 75.794 23.8862 75.7936C23.3651 75.7936 22.8982 76.1945 22.4946 76.5459L22.3864 76.6388C21.0922 77.7347 20.1134 79.1758 19.3094 81.1726C19.2641 81.2927 19.2274 81.4158 19.1996 81.541C19.1424 81.7624 19.0666 82.0642 18.9491 82.0642C18.7651 82.0503 18.7172 81.8986 18.6708 81.4745C18.6583 81.3474 18.6382 81.2213 18.6105 81.0968C18.2069 79.5581 17.341 78.4204 16.1736 77.8926C15.4577 77.5691 15.4577 77.2487 15.4562 76.6666V76.6388C15.4562 74.6714 14.9923 72.7318 14.0305 70.7087C13.3471 69.2583 12.4209 67.6377 10.7386 66.6269C10.5383 66.4917 10.3043 66.415 10.0629 66.4055C9.6083 66.4055 9.37637 66.8095 9.24184 67.1129C8.73622 68.2506 8.55377 69.5462 8.66974 71.1886C8.85057 73.6119 9.4007 75.9933 10.301 78.2501L10.3845 78.4622C11.102 80.2919 11.8426 82.1772 13.3224 83.6199C13.8048 84.0842 13.9718 84.6554 14.1651 85.3117C14.2114 85.4665 14.2594 85.6337 14.3197 85.7978C14.2717 85.708 14.2238 85.6151 14.1743 85.5238C14.0599 85.3055 13.9393 85.0795 13.8125 84.8597C12.3158 82.2948 10.2051 79.0318 7.04619 76.6125C6.4277 76.1388 5.77519 75.7023 5.14123 75.2797C3.95836 74.4903 2.73529 73.6745 1.73951 72.6065C1.69629 72.5446 1.64046 72.4926 1.57569 72.4539C1.51092 72.4152 1.4387 72.3907 1.36378 72.382C1.31652 72.3821 1.26975 72.3916 1.22616 72.4099C0.924647 72.543 0.980312 72.8232 1.00814 72.9578C1.00814 72.9919 1.02051 73.0244 1.02361 73.0538C1.15905 74.9365 1.5225 76.7958 2.10597 78.5907C3.16823 81.9233 4.9665 84.3087 7.59974 85.8829C9.43048 86.9773 11.4514 87.4308 13.5342 87.8379C14.6769 88.0608 15.5226 88.4494 15.9432 89.618C16.4751 91.0947 17.2359 92.4941 17.9719 93.8469C18.1595 94.1875 18.344 94.529 18.5254 94.8716C18.6661 95.1363 18.8239 95.3933 18.9769 95.6456C19.2531 96.067 19.4907 96.5126 19.6867 96.9768C19.2449 96.6011 18.8559 96.1674 18.5301 95.6874C16.7906 93.3485 14.8439 91.7712 12.5693 90.8625C10.9551 90.2202 9.29442 89.6242 7.68788 89.0422L7.09412 88.827C6.99568 88.7841 6.90359 88.7279 6.82044 88.6599C6.66443 88.5203 6.4687 88.4332 6.2607 88.4107C6.11602 88.4115 5.97694 88.4667 5.87105 88.5654C5.48759 88.906 5.31441 89.4292 5.23555 89.8038C5.13992 90.3113 5.16535 90.8342 5.30977 91.33C5.86641 93.4398 7.11577 95.175 9.02073 96.4846C10.1835 97.2817 11.5303 97.5279 12.8322 97.7647L12.9868 97.7941C13.4399 97.8777 13.8929 97.9659 14.3444 98.0542C16.1535 98.4071 18.0245 98.7724 19.9201 98.7879C20.165 98.797 20.3988 98.8924 20.5804 99.0572C21.5576 99.8157 22.3013 100.816 23.0203 101.783C23.2863 102.141 23.56 102.509 23.8445 102.867C23.9311 102.975 23.9759 103.04 23.9543 103.065C23.9326 103.09 23.9202 103.093 23.9125 103.093C23.8474 103.08 23.7854 103.055 23.7301 103.018L23.6775 102.99C23.5538 102.929 23.4301 102.864 23.3064 102.799C23.0714 102.676 22.8271 102.548 22.5828 102.432C22.0427 102.196 21.4855 102.003 20.9159 101.853C19.9526 101.568 19.0434 101.297 18.2873 100.627C18.1685 100.517 18.0132 100.454 17.8513 100.452C17.7468 100.456 17.6443 100.482 17.5495 100.526C17.4548 100.57 17.3698 100.633 17.2993 100.71C17.045 100.996 16.9109 101.368 16.9251 101.751C16.9075 102.131 17.0408 102.503 17.2962 102.786C17.3762 102.877 17.4736 102.952 17.5828 103.005C17.6919 103.058 17.8105 103.089 17.9317 103.096C18.3136 103.096 18.6151 102.775 18.8347 102.542C18.9104 102.446 19.0067 102.368 19.1165 102.315C19.2262 102.261 19.3466 102.233 19.4686 102.232C19.6103 102.235 19.7511 102.256 19.8877 102.294C22.0308 102.823 24.0161 103.924 26.1391 105.755L26.2056 105.811C26.3772 105.952 26.3973 105.99 26.371 106.038C26.3647 106.054 26.3546 106.069 26.3417 106.08C26.2865 106.06 26.2344 106.031 26.187 105.997C26.1453 105.97 26.1051 105.944 26.068 105.925C24.8882 105.331 23.5816 104.978 21.9565 104.814C20.863 104.707 19.7648 104.655 18.6661 104.659C17.0874 104.659 15.4871 104.746 13.9378 104.829C13.4306 104.857 12.9234 104.885 12.4163 104.91C12.091 104.936 11.7689 104.993 11.4545 105.08C11.2999 105.12 11.1267 105.161 10.9643 105.192C10.8748 105.199 10.7885 105.228 10.7133 105.277C10.6382 105.326 10.5767 105.394 10.5345 105.473C10.5049 105.564 10.4986 105.66 10.5162 105.754C10.5338 105.848 10.5746 105.935 10.635 106.009C11.6772 107.634 12.9064 109.259 14.8191 110.202C17.2283 111.37 19.8735 111.968 22.5503 111.95C22.8595 111.95 23.1688 111.95 23.478 111.93C25.5453 111.835 27.5261 111.62 29.0336 110.004C29.0579 109.975 29.0882 109.953 29.1225 109.937C29.1568 109.922 29.1941 109.915 29.2316 109.916C29.3464 109.925 29.4593 109.951 29.5671 109.992L29.6382 110.015C30.7685 110.365 31.5787 111.12 32.4369 111.919C32.8752 112.344 33.34 112.74 33.8285 113.106C33.9414 113.188 33.9615 113.244 33.9599 113.261C33.9584 113.278 33.8888 113.329 33.7249 113.351C33.6131 113.365 33.5006 113.373 33.3878 113.374C33.0588 113.384 32.7374 113.274 32.4833 113.064C31.7859 112.496 30.9371 111.858 29.9104 111.453C29.5988 111.321 29.2653 111.248 28.927 111.238C28.058 111.238 27.5446 111.88 27.5214 113.001V113.052C27.5168 113.118 27.5168 113.185 27.5214 113.252C27.5663 113.704 27.4379 113.902 27.0127 114.035C26.8322 114.086 26.6645 114.174 26.5206 114.294C26.3767 114.415 26.2598 114.564 26.1778 114.733C26.109 114.89 26.0746 115.06 26.0767 115.232C26.0788 115.404 26.1175 115.573 26.1901 115.728C26.4375 116.29 26.8674 117.08 27.7364 117.431C28.2266 117.62 28.7479 117.716 29.2733 117.713C31.0716 117.713 33.0569 116.629 33.1946 114.617C33.2193 114.265 33.3693 114.208 33.527 114.199L33.6816 114.19C33.9043 114.176 34.113 114.163 34.3233 114.163C34.8057 114.163 35.367 114.225 35.8695 114.693C36.2804 115.055 36.7176 115.385 37.1777 115.682C37.3833 115.823 37.5967 115.968 37.7962 116.117C37.8824 116.176 37.9722 116.231 38.0652 116.279C38.3837 116.457 38.4873 116.542 38.4348 116.676C38.4239 116.703 38.4116 116.736 38.3111 116.736C38.1845 116.727 38.0594 116.703 37.9384 116.665C37.8368 116.635 37.7336 116.612 37.6292 116.595C37.1998 116.542 36.7676 116.515 36.335 116.515C34.0666 116.515 31.9004 117.262 29.714 118.802C29.5594 118.909 29.3336 119.072 29.3599 119.293C29.3862 119.514 29.5996 119.603 29.7588 119.665C32.1539 120.609 34.1842 121.048 36.1494 121.048C36.6221 121.049 37.0945 121.022 37.5642 120.969C39.1012 120.795 40.3026 120.123 41.136 118.97C41.3432 118.683 41.4839 118.646 41.5829 118.646C41.7547 118.665 41.9188 118.728 42.0591 118.829C44.0891 120.036 46.1924 121.116 48.3569 122.061C51.9983 123.666 55.7793 124.933 59.6522 125.845C62.7745 126.601 65.9525 127.103 69.1553 127.347C70.9814 127.477 72.7735 127.543 74.4837 127.543C77.126 127.549 79.766 127.382 82.3865 127.042C83.3142 126.918 84.2528 126.757 85.1604 126.601L85.4233 126.554C85.5044 126.548 85.5833 126.525 85.6547 126.486C85.7261 126.447 85.7885 126.393 85.8377 126.328C85.8667 126.278 85.8844 126.223 85.8894 126.165C85.8945 126.108 85.8869 126.05 85.8671 125.996C85.8391 125.904 85.7797 125.825 85.6995 125.772C85.6192 125.72 85.523 125.698 85.4279 125.709ZM29.111 105.808C29.4202 104.879 29.448 103.95 29.4743 102.958C29.4743 102.71 29.4882 102.46 29.4991 102.207V102.189C29.465 101.652 29.448 101.094 29.4326 100.556C29.423 99.5045 29.3534 98.4549 29.2238 97.4118C29.2161 97.3653 29.2037 97.3173 29.1914 97.2663C29.1403 97.0759 29.1543 97.0697 29.2068 97.0496C29.2293 97.0399 29.2535 97.0346 29.278 97.0341C29.3506 97.0341 29.4233 97.1177 29.5052 97.2988C30.6881 99.9209 31.0144 102.161 30.5335 104.345C30.365 105.105 30.0356 105.665 29.5253 106.06C29.4491 106.131 29.3521 106.176 29.2486 106.188C29.2125 106.188 29.1771 106.178 29.1465 106.159C29.0584 106.113 29.0321 106.046 29.111 105.808ZM23.6837 77.5784L23.7069 77.5319C23.7795 77.388 23.8692 77.21 23.9806 77.21C23.9973 77.2106 24.0139 77.2132 24.03 77.2177C24.1104 77.2394 24.1259 77.3555 24.129 77.5876V77.6619C24.129 77.8369 24.129 78.0133 24.129 78.1898V78.4235C24.0007 81.5039 22.5487 84.0068 19.6928 86.0671L19.6743 86.081C19.6027 86.1443 19.5167 86.1889 19.4238 86.2111C19.3963 86.2102 19.3702 86.1985 19.3511 86.1786C19.3714 86.1449 19.3941 86.1129 19.4192 86.0826C19.4367 86.0623 19.4532 86.0411 19.4686 86.0191C20.5216 84.5564 21.2468 82.9078 21.9426 81.3119C22.2519 80.6045 22.575 79.8739 22.9214 79.1712C23.0327 78.9436 23.1394 78.7068 23.2461 78.4823C23.3899 78.1805 23.5321 77.8725 23.6837 77.5784ZM22.5132 77.4917C22.6085 77.4062 22.7121 77.3305 22.8224 77.2657L22.8564 77.244L22.9044 77.2115C22.9309 77.1908 22.96 77.1736 22.991 77.1604C23.0002 77.1759 23.0312 77.2038 22.9724 77.3152C22.4451 78.3601 21.9612 79.4451 21.4927 80.4946C20.885 81.8552 20.2557 83.2607 19.5336 84.5889C19.5166 84.6183 19.4996 84.6523 19.4826 84.6879C19.4408 84.7777 19.3759 84.9124 19.3279 84.9124C19.3097 84.9109 19.2919 84.9062 19.2754 84.8984C19.1965 84.8644 19.1857 84.8164 19.1919 84.5502C19.2001 84.4265 19.2001 84.3024 19.1919 84.1787C19.8243 81.2423 20.8865 79.1154 22.5132 77.4917ZM12.4116 83.9929C10.5237 82.5998 4.7222 76.8586 3.3677 75.032C7.0029 77.0428 9.97012 79.9823 12.4116 83.9976V83.9929ZM14.1496 87.1553C14.1341 87.1816 14.1125 87.2064 14.0414 87.2064C13.946 87.1986 13.852 87.1788 13.7615 87.1476C13.7089 87.1321 13.6594 87.1181 13.6069 87.1073L13.5141 87.0856C11.2875 86.5841 8.96816 86.064 7.06474 84.6167C5.18607 83.1957 3.83621 81.25 2.93784 78.6712C2.59364 77.6161 2.31022 76.5422 2.08896 75.4546L2.02557 75.1652C2.02557 75.1357 2.02557 75.1063 2.02557 75.0754C2.0199 75.0205 2.02303 74.9652 2.03484 74.9113C2.05392 74.9056 2.07368 74.9024 2.0936 74.902C2.17555 74.902 2.24822 74.9887 2.33945 75.1203L2.38893 75.1884C3.31667 76.4066 4.39904 77.4963 5.4613 78.5489L5.6252 78.7114C6.74313 79.8275 7.90744 80.9296 9.03465 81.9961C10.6319 83.5084 12.2817 85.0734 13.828 86.694C13.8759 86.7436 13.93 86.7884 13.9826 86.8333C14.2006 87.0206 14.2099 87.0655 14.1496 87.1599V87.1553ZM16.9978 79.7702C17.0058 79.7727 17.0144 79.7727 17.0225 79.7702H17.0395C17.0843 79.7702 17.1493 79.7903 17.2498 79.9405C17.9099 80.9158 18.1701 82.1079 17.9765 83.27L17.8389 82.7824C17.5606 81.7938 17.2817 80.8037 17.0024 79.812C16.9983 79.8001 16.9967 79.7874 16.9978 79.7748V79.7702ZM16.8014 82.0921C16.5483 81.6504 16.4095 81.1523 16.3978 80.6432C16.638 81.0947 16.7758 81.5936 16.8014 82.1045V82.0921ZM13.0966 82.0302H13.0672C12.9544 82.0302 12.8755 81.9172 12.8384 81.8491L12.6111 81.4404C12.3807 81.0271 12.1472 80.5999 11.9385 80.168C10.1758 76.4159 9.37173 73.1776 9.41038 69.9781C9.41829 69.3022 9.52242 68.6309 9.71963 67.9844C9.732 67.9441 9.74128 67.9008 9.75056 67.8559C9.79385 67.6624 9.8155 67.6361 9.88198 67.6284H9.90982C10.0211 67.6284 10.0644 67.7089 10.1634 67.9519C10.5717 69.0783 10.9094 70.2291 11.1746 71.3975C11.906 74.3773 12.5245 77.6294 13.1167 81.6323C13.1167 81.6881 13.1368 81.7453 13.1461 81.7871V81.8243C13.143 82.0224 13.126 82.0255 13.0966 82.0302ZM14.2254 79.5194C14.0784 79.9484 13.953 80.3844 13.8496 80.8259C13.7301 80.6055 13.6584 80.3623 13.6393 80.1123C13.6393 80.0674 13.6285 80.0241 13.6208 79.9792C12.9002 75.2689 12.0745 71.478 10.9922 68.0525C10.9844 68.0277 10.9752 68.0014 10.9659 67.9751C10.9427 67.9227 10.9291 67.8666 10.9257 67.8095C10.9346 67.8012 10.9451 67.7949 10.9566 67.7909C10.9755 67.7817 10.996 67.7764 11.0169 67.7754C11.1035 67.7754 11.2102 67.8838 11.2952 67.9705C12.342 69.0292 13.1507 70.3744 13.7692 72.0817C14.5748 74.2906 14.8439 76.1574 14.632 77.939C14.549 78.478 14.4128 79.0074 14.2254 79.5194ZM18.8842 93.494C18.8731 93.4994 18.8609 93.502 18.8486 93.5017C18.762 93.5017 18.6569 93.2943 18.595 93.1705L18.5703 93.1225C18.4775 92.9414 18.3816 92.7618 18.2873 92.5823C18.029 92.1162 17.7957 91.6367 17.5884 91.1458C17.1802 90.1196 16.7287 89.0933 16.2927 88.1011C15.7886 86.9541 15.266 85.7668 14.8083 84.578C14.1898 82.9728 14.4063 81.5209 14.9196 79.8321C14.9768 79.6464 15.0325 79.4591 15.0882 79.2718C15.1438 79.0845 15.2103 78.8616 15.2737 78.6526C15.3139 78.521 15.3587 78.5179 15.3773 78.5164C15.4129 78.5164 15.45 78.5241 15.4639 78.6634C15.4933 78.9483 15.5118 79.2346 15.5257 79.4374L15.5381 79.6123C15.4654 81.0426 15.7608 82.2716 16.4179 83.2654C18.0415 85.725 18.428 88.4679 18.5826 91.0653C18.6084 91.7173 18.6969 92.3653 18.8471 93.0002C18.8471 93.0312 18.8656 93.0652 18.8764 93.1008C18.9723 93.4151 18.9568 93.4739 18.8842 93.494ZM7.2874 89.779C7.31524 89.731 7.33379 89.731 7.35234 89.731C7.41538 89.7388 7.47689 89.756 7.5348 89.7821L7.55799 89.7914C8.16721 90.022 8.79498 90.2372 9.39956 90.4446C10.8839 90.9554 12.4194 91.4817 13.8001 92.2758C14.4724 92.6907 15.1073 93.1636 15.6974 93.689C15.9448 93.8965 16.1984 94.1101 16.455 94.3082C16.5149 94.3648 16.5646 94.4313 16.6019 94.5048C16.6112 94.5218 16.622 94.5373 16.6328 94.5543C16.6437 94.5713 16.6097 94.5977 16.5942 94.5977C16.5523 94.593 16.5118 94.5799 16.4751 94.559C15.4778 94.0652 14.4016 93.785 13.3626 93.5141C12.7178 93.347 12.0514 93.1736 11.4158 92.9522C9.68407 92.3454 8.37286 91.0808 7.42347 90.0452L7.39564 90.0158C7.25802 89.8812 7.24875 89.8471 7.28431 89.779H7.2874ZM19.4362 97.9365C19.4052 97.9784 19.3637 98.0115 19.316 98.0324C19.2682 98.0533 19.2158 98.0613 19.164 98.0557C19.0724 98.0527 18.981 98.0444 18.8903 98.0309C18.7567 98.0109 18.6219 97.999 18.4868 97.9953C18.0013 97.9164 17.508 97.8405 17.0101 97.7662C14.8871 97.4412 12.6899 97.1068 10.5701 96.4289C8.24298 95.6843 5.93135 92.5931 5.98547 90.3038C5.98547 90.2465 5.98547 90.1861 5.98547 90.1257C5.97465 89.8162 5.99475 89.7001 6.1401 89.6614C6.15346 89.66 6.16693 89.66 6.1803 89.6614C6.24988 89.6614 6.31173 89.7589 6.39832 89.9059C6.44273 89.9869 6.49449 90.0636 6.55294 90.135C8.46409 92.3718 10.2917 93.5822 12.4812 94.0559C13.9795 94.3794 15.7283 94.85 17.2745 95.87C17.7616 96.2144 18.2123 96.6076 18.6198 97.0434C18.8378 97.2632 19.0651 97.4907 19.3001 97.7012C19.3975 97.8034 19.4563 97.9117 19.4331 97.9427L19.4362 97.9365ZM20.9515 88.8239C20.9582 89.1269 20.9057 89.4282 20.7969 89.7109C20.7869 89.41 20.8385 89.1103 20.9484 88.8301L20.9515 88.8239ZM21.001 92.4182L21.0118 92.3609C21.1494 91.6551 21.2978 90.9384 21.4416 90.2449C21.522 89.8502 21.5963 89.457 21.6844 89.0623V89.0329C21.7401 88.7589 21.788 88.6103 21.8916 88.6103C21.9204 88.6078 21.9492 88.6149 21.9735 88.6305C22.0076 88.6692 21.9905 88.8178 21.9813 88.906C21.9813 88.9571 21.9704 89.0051 21.9689 89.0484C21.9135 90.4459 21.5819 91.8185 20.9932 93.0869C20.9303 92.8703 20.9319 92.6401 20.9979 92.4244L21.001 92.4182ZM17.9611 102.226V102.317V102.234C17.7152 102.234 17.6827 101.924 17.6796 101.786C17.6796 101.535 17.7291 101.424 17.7771 101.376C17.8018 101.354 17.8309 101.336 17.8626 101.326C17.8943 101.315 17.9278 101.311 17.9611 101.314C18.2518 101.322 18.3646 101.546 18.411 101.746C18.3399 102.074 18.1899 102.238 17.9595 102.238L17.9611 102.226ZM27.9544 109.944C26.7715 110.922 25.3041 111.08 23.7795 111.163C23.4115 111.184 23.042 111.194 22.6802 111.194C20.4022 111.206 18.1438 110.772 16.0314 109.919C14.2486 109.194 12.843 108.004 11.7359 106.278C11.5457 105.983 11.5581 105.883 11.572 105.856C11.5859 105.828 11.6725 105.741 12.1163 105.701C14.1589 105.504 15.7221 105.418 17.1802 105.418C17.4276 105.418 17.675 105.418 17.924 105.418C18.3569 105.418 18.7914 105.405 19.2243 105.405C20.9839 105.405 22.8673 105.493 24.7011 106.14C25.8855 106.557 26.7932 107.157 27.4704 107.973L27.5091 108.02C27.6389 108.174 27.6405 108.201 27.6127 108.239C27.6064 108.25 27.5971 108.259 27.5858 108.265C27.5745 108.271 27.5618 108.273 27.5493 108.272C27.4719 108.263 27.3966 108.241 27.3266 108.207C25.8252 107.588 24.2341 107.479 22.7095 107.369C22.071 107.325 21.4123 107.277 20.7721 107.195C20.5278 107.164 20.282 107.126 20.0377 107.091C19.3428 106.976 18.6405 106.913 17.9363 106.9C17.7492 106.9 17.5668 106.9 17.392 106.922H17.3503H17.2683H17.1632C16.8153 106.922 16.7287 107.113 16.7179 107.272C16.7104 107.33 16.7151 107.388 16.7316 107.444C16.7481 107.5 16.7761 107.551 16.8138 107.595C16.8612 107.639 16.9171 107.673 16.978 107.694C17.0389 107.715 17.1035 107.724 17.1678 107.719H17.2931H17.3859C20.0407 107.806 22.657 108.119 25.3289 108.459C26.2566 108.577 27.1488 108.947 27.8987 109.294C28.1909 109.43 28.2451 109.529 28.2513 109.575C28.2574 109.622 28.225 109.73 27.9528 109.956L27.9544 109.944ZM28.4816 105.258L28.4693 105.326C28.4275 105.548 28.4028 105.572 28.3146 105.579H28.2961C28.2018 105.579 28.1538 105.523 28.0611 105.305C26.9586 102.721 26.9632 100.167 28.0719 97.7198L28.0997 97.6563C28.1879 97.4582 28.2543 97.3189 28.3672 97.3189H28.3966C28.4523 97.3282 28.4755 97.3406 28.4708 97.5805C28.4677 97.6382 28.4677 97.6961 28.4708 97.7539C28.4971 98.048 28.5265 98.3421 28.5543 98.6377C28.6948 99.819 28.7558 101.008 28.7368 102.198V102.215C28.7856 103.236 28.6998 104.259 28.4816 105.258ZM33.6229 101.128C33.6645 101.098 33.7155 101.084 33.7667 101.088H33.7852C33.9754 101.088 34.1795 101.161 34.2491 101.594C34.2694 101.67 34.2639 101.75 34.2336 101.822C34.2336 101.822 34.2166 101.822 34.2073 101.822H34.1718C33.9337 101.778 33.7466 101.605 33.5858 101.277C33.5813 101.226 33.5944 101.174 33.6229 101.131V101.128ZM32.4709 114.546C32.3905 115.659 31.5014 116.507 30.0294 116.875C29.7765 116.938 29.5169 116.971 29.2563 116.971C28.344 116.971 27.5415 116.553 27.107 115.854C26.9524 115.607 26.7978 115.261 26.9122 115.004C27.0266 114.747 27.3946 114.631 27.6853 114.581C28.1345 114.507 28.5892 114.471 29.0445 114.476C29.4882 114.476 29.9212 114.499 30.4021 114.53C30.566 114.539 30.7407 114.544 30.951 114.544C31.1056 114.544 31.2494 114.544 31.3994 114.544H31.8416H31.987L32.0071 114.391L32.0241 114.284L32.0395 114.177L32.0627 114.022L31.9081 113.988C31.019 113.797 30.1131 113.693 29.2037 113.679H29.1759C29.1017 113.679 29.0213 113.687 28.9393 113.694C28.8574 113.702 28.7847 113.707 28.7198 113.707C28.5095 113.707 28.4244 113.648 28.378 113.473C28.2683 113.053 28.1956 112.577 28.4863 112.219C28.543 112.144 28.6171 112.083 28.7021 112.043C28.7872 112.003 28.8808 111.983 28.9749 111.987C29.1529 111.994 29.3288 112.029 29.496 112.091C30.4716 112.41 31.2401 113.019 32.0519 113.66L32.2854 113.844C32.4864 114.01 32.4864 114.25 32.4709 114.546ZM36.2051 109.253C36.1865 108.075 36.4262 107.086 36.8715 106.467C36.7378 108.523 36.815 110.586 37.1019 112.626C36.5731 111.883 36.219 110.597 36.1989 109.256L36.2051 109.253ZM38.2631 114.108C38.2245 113.906 38.1843 113.707 38.1441 113.507C37.8209 111.888 37.4869 110.215 37.6044 108.529V108.018C37.6044 107.597 37.6044 107.174 37.6044 106.753C37.6044 106.498 37.6756 106.466 37.759 106.444H37.7946C37.8503 106.444 37.8889 106.473 37.9724 106.642C38.7455 108.208 39.5047 110.098 39.3099 112.227C39.251 112.895 39.0613 113.544 38.7517 114.139C38.7347 114.169 38.7193 114.204 38.7038 114.236C38.6265 114.402 38.5894 114.456 38.5182 114.456C38.4984 114.456 38.4786 114.453 38.4595 114.448C38.3543 114.426 38.3018 114.34 38.2569 114.111L38.2631 114.108ZM40.0258 119.061L39.9593 119.115C38.979 119.925 37.7946 120.318 36.3195 120.318C35.9059 120.316 35.4929 120.289 35.0825 120.237C33.7466 120.099 32.4311 119.806 31.1628 119.364L31.0283 119.321C30.8056 119.251 30.7268 119.216 30.719 119.076C30.7098 118.982 30.7438 118.948 30.9371 118.86C30.9899 118.838 31.0416 118.813 31.0917 118.785C32.8668 117.744 34.5908 117.237 36.3628 117.237C37.2023 117.241 38.0377 117.355 38.8476 117.576C38.894 117.589 38.9419 117.6 38.9899 117.609C39.0378 117.618 39.0919 117.631 39.1445 117.646L39.2032 117.663C39.497 117.75 39.565 117.799 39.5496 117.915C39.5403 117.984 39.4955 118.007 39.2403 118.016H39.1213L37.2163 118.171C36.1108 118.256 34.965 118.346 33.8409 118.445C33.309 118.491 32.7724 118.566 32.2529 118.637C32.0148 118.671 31.7782 118.703 31.5385 118.734L31.118 118.788L31.4612 119.039C31.7537 119.251 32.1083 119.36 32.4694 119.349C32.653 119.345 32.8363 119.331 33.0183 119.307L33.2873 119.279C34.7161 119.163 36.168 119.027 37.572 118.894C38.3095 118.826 39.0471 118.756 39.7862 118.689C39.8356 118.689 39.8882 118.675 39.9408 118.666C40.003 118.654 40.066 118.646 40.1294 118.643C40.2145 118.643 40.2346 118.668 40.2516 118.703C40.2887 118.821 40.2485 118.888 40.0196 119.069L40.0258 119.061Z" fill="white"></path><path d="M40.4727 10.56C50.3994 4.39565 61.8529 1.13906 73.5343 1.1595C90.2986 1.1595 106.059 7.69479 117.911 19.5611C129.763 31.4274 136.294 47.2068 136.294 63.9862C136.298 68.9717 135.714 73.9403 134.555 78.7889C133.407 83.5661 131.697 88.1904 129.463 92.5653C129.409 92.672 129.395 92.7944 129.424 92.9104C129.452 93.0265 129.521 93.1286 129.618 93.1984L129.627 93.2062C129.713 93.2712 129.818 93.3066 129.925 93.3068C130.018 93.307 130.109 93.2815 130.188 93.2331C130.267 93.1848 130.332 93.1154 130.374 93.0328C132.645 88.5872 134.382 83.8881 135.549 79.0335C136.728 74.1075 137.322 69.0594 137.32 63.9939C137.32 46.939 130.686 30.9058 118.639 18.846C106.879 7.05507 90.975 0.342492 74.3321 0.145615C74.0662 0.145615 73.8002 0.145615 73.5343 0.145615C61.7698 0.123966 50.2305 3.37299 40.2021 9.53061C40.1002 9.59305 40.0212 9.68673 39.9767 9.79773C39.9322 9.90873 39.9247 10.0311 39.9553 10.1467C39.9859 10.2623 40.0529 10.365 40.1464 10.4394C40.2399 10.5139 40.3548 10.5562 40.4742 10.56H40.4727Z" fill="white"></path></g><defs><clipPath id="clip0_1243_747"><rect width="142" height="129" fill="white"></rect></clipPath></defs></svg>