<svg xmlns="http://www.w3.org/2000/svg" xmlns:xlink="http://www.w3.org/1999/xlink" id="Calque_1" x="0px" y="0px" viewBox="0 0 507.6 499.6" style="enable-background:new 0 0 507.6 499.6;" xml:space="preserve"><style type="text/css">	.st0{fill:#99763A;}</style><title>Fichier 2</title><g>	<g id="Calque_2_1_">		<g id="Calque_1-2">			<g>				<path class="st0" d="M35.8,85.9c0.5,0.9,1.3,1.6,2.3,2c0.8,0.2,1.6-0.1,2.2-0.6l0.9-0.6l0.1,0.1c0.3,1,0.6,2,0.9,3     c0.3,0.9,0.7,1.7,1.1,2.6c0.4,0.7,0.8,1.5,1.3,2.1l2.8,3.4c0.2,0.2,0.4,0.6,0.4,0.9c-0.1,0.3-0.3,0.6-0.7,0.8l-2.4,1.7l3.2,5.4     l6.2-4.4c-0.2-0.5-0.4-1.1-0.6-1.6c-0.2-0.5-0.5-0.9-0.8-1.3c-0.5-0.6-1-1.2-1.5-1.8c-0.6-0.6-1.2-1.2-1.8-1.9s-1.3-1.3-1.9-1.9     c-0.5-0.6-1.1-1.2-1.5-1.9c-0.4-0.5-0.7-1.1-1-1.7c-0.3-0.6-0.6-1.2-0.9-1.8c-0.3-0.6-0.5-1.2-0.7-1.7s-0.3-0.9-0.5-1.2l0,0     l7.7-5.4c0.6-0.6,1.5-0.9,2.4-0.8c0.7,0.3,1.4,0.8,1.8,1.5l10.1,14.3l0.6-0.4c0.3-0.4,0.5-0.9,0.7-1.4c0.2-0.5,0.3-0.9,0.4-1.4     L55.5,77.3c-0.8-1.1-1.8-2.1-3-2.8c-0.9-0.5-2-0.7-3-0.6c-1.1,0.2-2.1,0.6-3,1.3l-8.6,6.1c-0.4,0.3-1,0.5-1.6,0.5     c-0.6-0.1-1.1-0.4-1.4-0.9l-0.3-0.4l-1.2,0.8c0.5,1.3,1,2.2,1.2,2.8C35.1,84.8,35.4,85.4,35.8,85.9z"></path>				<path class="st0" d="M56.6,70.1c0.2,0.4,0.4,0.8,0.7,1.2c0.5,0.9,1.2,1.6,2.1,2c0.8,0.2,1.6,0.1,2.3-0.4l2-1.2     c0.5-0.3,0.9-0.4,1.2-0.3c0.4,0.2,0.7,0.6,0.9,1l9.9,16l0.7-0.4c0.3-0.4,0.6-0.8,0.8-1.2c0.2-0.5,0.4-0.9,0.4-1.4L65.4,66.8     c-0.4-0.8-1-1.4-1.8-1.8c-0.7-0.2-1.4,0-2,0.5l-2,1.2c-0.5,0.4-1.1,0.5-1.7,0.4c-0.5-0.1-1-0.5-1.3-1l-0.2-0.4l-1.2,0.8l0.8,2.1     C56.2,69.2,56.4,69.7,56.6,70.1z"></path>				<path class="st0" d="M70.2,61.7c0.2,0.4,0.4,0.8,0.6,1.2c0.4,0.9,1.1,1.7,2,2.2c0.8,0.3,1.6,0.2,2.2-0.3l8.2-4.5     c0.8-0.5,1.8-0.8,2.8-0.6c0.9,0.3,1.6,1,2,1.9l3,5.6c0.3,0.6,0.6,1.2,0.8,1.6c0.2,0.4,0.3,0.7,0.5,1.1c0.1,0.3,0.2,0.7,0.3,1.1     l-12.9,7l1.6,6.3l19-10.3l-3-5.6l-2.5,1.3c-0.1-0.5-0.3-0.9-0.4-1.4c-0.2-0.5-0.4-1-0.7-1.6s-0.6-1.2-1-1.8l-4.3-8     c-0.7-1.4-1.8-2.6-3.3-3.2c-1.4-0.5-3-0.2-4.3,0.6l-7.5,4.1c-0.5,0.3-1.1,0.4-1.7,0.3c-0.5-0.2-0.9-0.5-1.2-1l-0.2-0.4L69,58     c0.2,0.9,0.4,1.6,0.6,2.1S70,61.2,70.2,61.7z"></path>				<path class="st0" d="M93.2,49.4c0.1,0.4,0.3,0.9,0.5,1.3c0.3,0.9,1,1.7,1.8,2.3c0.8,0.3,1.6,0.3,2.3-0.1l8.8-4     c0.7-0.3,1.5-0.6,2.3-0.6c0.7,0,1.4,0.1,2,0.5c0.7,0.5,1.2,1.2,1.6,2l2.2,4.8c0.6,1.1,0.6,2.5,0.1,3.6c-0.8,1.2-1.9,2.2-3.3,2.7     l-9.8,4.4l1.2,6.4l12.7-5.8c1-0.5,1.9-1.2,2.5-2.2c0.6-1.1,1-2.3,0.9-3.6c0-1.7-0.5-3.3-1.2-4.8l-4.3-9.6     c-0.7-1.8-2.1-3.2-3.8-4c-1.8-0.7-3.9-0.5-5.6,0.4l-7.5,3.4c-0.5,0.3-1.2,0.4-1.8,0.2c-0.5-0.2-0.9-0.6-1.1-1.1l-0.2-0.4     l-1.3,0.6c0.2,0.9,0.3,1.6,0.4,2.2S93.1,48.9,93.2,49.4z"></path>				<path class="st0" d="M133.4,56.4c-0.2-0.4-0.3-0.9-0.3-1.4c0-0.5,0.2-0.9,0.4-1.3l3.9-7.9c0.3-0.6,0.5-1.3,0.6-2     c0-0.6-0.1-1.3-0.4-1.8l-2.2-6c-0.3-0.8-0.7-1.5-1.2-2.1c-0.4-0.6-1.1-1-1.8-1.2c-0.9-0.2-1.8-0.1-2.6,0.3l-9.7,3.6     c-0.4,0.2-0.9,0.2-1.3,0c-0.4-0.3-0.6-0.7-0.6-1.2l-0.5-5.2c0-0.8-0.2-1.7-0.7-2.4c-0.4-0.5-1-0.7-1.5-0.5l-1.5,0.3     c-0.3,0.1-0.7,0-1-0.1c-0.3-0.2-0.5-0.5-0.5-0.8l-0.1-0.3l-0.8,0.3c0,0.4,0,0.9-0.1,1.7c0,0.7,0.1,1.4,0.3,2     c0.2,0.5,0.4,0.9,0.8,1.3c0.3,0.3,0.8,0.4,1.3,0.3l1.2-0.2c0.2,0,0.3,0,0.5,0.1c0.1,0.2,0.2,0.4,0.2,0.7c0,0.2,0,0.7,0.1,1.2     c0.1,0.5,0.1,1.2,0.2,1.8s0.1,1.4,0.2,2.1s0.2,1.4,0.3,2c0.1,0.5,0.2,1,0.4,1.5c0.2,0.8,0.8,1.5,1.5,2c0.7,0.4,1.4,0.4,2.1,0.1     l11.3-4.2c0.4-0.2,0.9-0.2,1.4,0c0.4,0.2,0.8,0.6,0.9,1.1l1.1,3c0.1,0.3,0.1,0.6,0.1,0.9c-0.1,0.4-0.2,0.8-0.4,1.2l-4.1,8.3     c-0.4,0.7-0.6,1.5-0.7,2.3c0,0.7,0.1,1.5,0.4,2.1l0.4,1.1c0.1,0.6,0.5,1.1,0.9,1.4c0.4,0.2,0.9,0.2,1.3,0c0.5-0.1,0.8-0.5,1-0.9     c0.1-0.6,0.1-1.2-0.2-1.7L133.4,56.4z"></path>				<path class="st0" d="M150.4,27.6c0.1,0.4,0.2,0.9,0.3,1.4c0.2,1,0.7,1.9,1.4,2.5c0.7,0.4,1.5,0.5,2.3,0.3l2.3-0.6     c0.6-0.1,1-0.1,1.2,0c0.3,0.3,0.5,0.8,0.6,1.2l4.9,18.2l0.7-0.2c0.4-0.3,0.8-0.6,1.1-1c0.3-0.4,0.6-0.8,0.8-1.2l-6.3-21.2     c-0.2-0.8-0.6-1.6-1.2-2.2c-0.6-0.3-1.3-0.4-2-0.1l-2.2,0.6c-0.6,0.2-1.2,0.2-1.8-0.1c-0.5-0.3-0.8-0.7-0.9-1.3l-0.1-0.4     l-1.4,0.4c0,0.9,0.1,1.6,0.1,2.2C150.2,26.5,150.3,27.1,150.4,27.6z"></path>				<path class="st0" d="M184.4,23c-0.2-0.8-0.4-1.6-0.9-2.3c-0.3-0.6-0.9-1.1-1.6-1.4c-0.8-0.3-1.8-0.3-2.6-0.1l-10.1,2.1     c-0.4,0.2-0.9,0.1-1.3-0.2c-0.3-0.3-0.5-0.8-0.4-1.2l0.2-5.2c0.1-0.8,0-1.7-0.3-2.5c-0.3-0.5-0.9-0.8-1.4-0.7l-1.5,0.1     c-0.3,0-0.7-0.1-0.9-0.2c-0.2-0.2-0.4-0.5-0.4-0.8l-0.1-0.2l-0.9,0.2c-0.1,0.4-0.2,0.9-0.3,1.6c-0.1,0.7-0.1,1.3,0,2     c0.1,0.5,0.3,1,0.6,1.4c0.3,0.4,0.8,0.5,1.2,0.5l1.2-0.1c0.2,0,0.3,0,0.5,0.2c0.1,0.2,0.2,0.4,0.1,0.7c0,0.2-0.1,0.7-0.1,1.2     s-0.1,1.1-0.1,1.8s-0.1,1.4-0.1,2.1s0,1.4,0,2c0,0.5,0.1,1,0.2,1.5c0.1,0.8,0.5,1.6,1.1,2.2c0.6,0.5,1.4,0.6,2.1,0.4l11.7-2.5     c0.5-0.1,1-0.1,1.4,0.2c0.4,0.3,0.7,0.7,0.7,1.2l0.7,3.1c0.1,0.3,0.1,0.6,0,0.9c-0.1,0.4-0.3,0.7-0.6,1.1l-5.2,7.6     c-0.5,0.6-0.8,1.4-1,2.2c-0.1,0.7-0.1,1.5,0.1,2.2l0.2,1.2c0.1,0.6,0.3,1.1,0.7,1.6c0.4,0.3,0.9,0.3,1.3,0.2     c0.5-0.1,0.9-0.3,1.1-0.8c0.2-0.6,0.2-1.1,0-1.7l-0.3-1.4c-0.1-0.5-0.2-0.9-0.1-1.4c0.1-0.5,0.3-0.9,0.6-1.2l5-7.3     c0.4-0.6,0.7-1.2,0.8-1.9c0.1-0.6,0.1-1.3-0.1-1.9L184.4,23z"></path>				<path class="st0" d="M203.7,35.7l-10.7,1.5l-0.7,6.5l13.8-2c1.1-0.2,2.2-0.7,3-1.4c0.9-0.9,1.6-2,1.9-3.2c0.4-1.6,0.5-3.3,0.2-5     l-1.5-10.5c-0.2-1.9-1.1-3.7-2.6-4.9c-1.6-1.2-3.6-1.6-5.5-1.2l-8.1,1.1c-0.6,0.1-1.2,0.1-1.7-0.2c-0.4-0.3-0.7-0.8-0.8-1.4     l-0.1-0.4l-1.4,0.2c-0.1,0.9-0.1,1.6-0.2,2.2c0,0.5,0,1,0,1.6c0,0.5,0.1,0.9,0.1,1.4c0.1,1,0.4,1.9,1.1,2.7     c0.6,0.5,1.5,0.7,2.3,0.5l9.6-1.4c0.8-0.1,1.6-0.1,2.4,0.1c0.7,0.2,1.3,0.5,1.8,1.1c0.5,0.7,0.9,1.5,0.9,2.3l0.8,5.2     c0.3,1.2-0.1,2.5-0.9,3.5C206.6,35,205.2,35.6,203.7,35.7z"></path>				<path class="st0" d="M226.1,38.3l-2.5-22c0-0.9-0.3-1.7-0.8-2.4c-0.6-0.4-1.3-0.6-2-0.5l-2.3,0.2c-0.6,0.1-1.2,0-1.7-0.4     c-0.4-0.4-0.7-0.9-0.7-1.4v-0.4l-1.4,0.1c-0.1,0.9-0.2,1.6-0.3,2.2s-0.1,1.1-0.1,1.6c0,0.5,0,0.9,0.1,1.4c0,1,0.3,2,0.9,2.8     c0.6,0.6,1.4,0.8,2.2,0.7l2.4-0.2c0.6,0,1,0,1.2,0.2c0.2,0.4,0.4,0.8,0.4,1.3l1.6,18.8l0.8-0.1c0.5-0.2,0.9-0.5,1.3-0.8     C225.4,39,225.8,38.7,226.1,38.3z"></path>				<path class="st0" d="M240.4,19.9c0.2-0.9,0.2-1.9,0.2-2.8c0-1.2-0.3-2.4-1-3.5c-0.6-0.8-1.6-1.2-2.6-1.1l-3.4,0.2     c-0.6,0.1-1.2-0.1-1.7-0.4c-0.4-0.4-0.7-0.9-0.6-1.5v-0.4l-1.4,0.1c-0.1,0.9-0.2,1.7-0.3,2.3c-0.1,0.5-0.2,1-0.2,1.5     c0,0.5,0,0.9,0,1.4c-0.1,1,0.2,2,0.7,2.8c0.6,0.6,1.4,0.9,2.2,0.8l3.5-0.2c0.4-0.1,0.8,0,1.2,0.3c0.2,0.3,0.4,0.6,0.4,1     c0,0.7-0.1,1.4-0.4,2c-0.5,0.9-1.1,1.8-1.8,2.6l-1.6,1.9l1.8,1.9l2.6-3.2c0.7-0.8,1.2-1.7,1.7-2.6     C239.9,21.8,240.2,20.9,240.4,19.9z"></path>				<path class="st0" d="M263.1,32.8l-1.4-3.2c-0.4-0.9-0.7-1.9-0.6-2.9c0.1-0.9,0.5-1.9,1-2.6l0.8-1.2L275,36.5     c0.4,0.4,0.8,0.9,1.1,1.4c0.2,0.4,0.4,0.7,0.5,1.1c0.1,0.3,0.2,0.6,0.1,0.9h0.9c0.4-0.5,0.8-1,1.1-1.6c0.4-0.7,0.5-1.4,0.5-2.2     c0-0.5,0-1-0.1-1.5c-0.1-0.5-0.3-1-0.5-1.5c-0.2-0.5-0.6-1-1-1.4l-3.5-4c0-0.6,0.1-1.2,0.2-1.8c0.1-0.6,0.3-1.2,0.5-1.8     c0.2-0.6,0.6-1.2,0.9-1.8l1.7-2.8l2.5,0.5c0.2-0.8,0.4-1.5,0.5-2c0.1-0.5,0.1-1,0.2-1.5c0.1-0.8-0.1-1.5-0.4-2.2     c-0.4-0.6-1-0.9-1.7-1l-2.1-0.4c-0.5-0.1-1-0.3-1.3-0.6c-0.3-0.4-0.5-0.8-0.4-1.3v-0.6l-1.3,0c-0.4,0.9-0.7,1.8-1,2.8     c-0.2,0.8-0.3,1.5-0.4,2.3c-0.1,0.9,0,1.8,0.5,2.6c0.5,0.6,1.2,0.9,1.9,1l0.9,0.2l-1.5,2.4c-0.3,0.4-0.5,0.9-0.8,1.4     s-0.5,1-0.7,1.5c-0.1,0.3-0.2,0.7-0.3,1.1l-10-11.2c-0.6-0.6-1.1-1.4-1.5-2.2c-0.2-0.5-0.3-1.1-0.3-1.7V9.7l-1.3-0.1     c-0.4,0.9-0.7,1.6-1,2.3c-0.3,0.7-0.4,1.5-0.5,2.3c0,0.8,0.1,1.6,0.3,2.3c0.3,1,0.8,1.8,1.5,2.6l2,2.1l-1.8,2.5     c-0.8,1-1.4,2.2-1.7,3.5c-0.2,1.3-0.2,2.6,0,3.9l0.6,3.2c0.2,0.4,0.1,0.8-0.1,1.1c-0.3,0.3-0.8,0.4-1.2,0.3h-0.6l-0.1,2.9     l6.5,0.3c0.5-1,0.7-2.1,0.7-3.2C263.7,34.7,263.5,33.7,263.1,32.8z"></path>				<path class="st0" d="M285.8,20l11.9,1.3c0.5,0,0.9,0.2,1.3,0.6c0.3,0.4,0.4,0.9,0.3,1.4l-0.4,3.2c0,0.3-0.1,0.6-0.3,0.8     c-0.3,0.3-0.6,0.6-0.9,0.9l-7.3,5.6c-0.7,0.5-1.2,1-1.7,1.7c-0.4,0.6-0.6,1.3-0.6,2.1l-0.1,1.2c-0.1,0.6-0.1,1.2,0.2,1.7     c0.3,0.4,0.7,0.6,1.2,0.6c0.5,0.1,0.9,0,1.3-0.3c0.4-0.5,0.6-1,0.6-1.6l0.1-1.4c0-0.5,0.2-0.9,0.4-1.4c0.2-0.4,0.6-0.7,1-1     l7-5.3c0.6-0.4,1-0.9,1.4-1.5c0.3-0.6,0.5-1.2,0.5-1.8l0.8-6.4c0.1-0.8,0.1-1.6-0.1-2.4c-0.1-0.7-0.5-1.4-1.1-1.8     c-0.7-0.5-1.6-0.9-2.4-0.9l-10.2-1.1c-0.5,0-0.9-0.2-1.2-0.6c-0.2-0.4-0.2-0.9,0-1.3l1.9-4.9c0.4-0.8,0.6-1.6,0.5-2.4     c-0.1-0.6-0.6-1-1.1-1.1L287,3.2c-0.3-0.1-0.6-0.3-0.8-0.5C286,2.4,286,2,286,1.7V1.4l-0.9-0.1c-0.2,0.3-0.5,0.8-0.8,1.5     c-0.3,0.6-0.5,1.3-0.6,1.9c-0.1,0.5,0,1,0.1,1.5c0.2,0.4,0.5,0.8,1,0.8l1.2,0.3c0.2,0,0.3,0.1,0.4,0.3c0.1,0.2,0,0.5-0.1,0.7     c-0.2,0.4-0.3,0.7-0.5,1.1c-0.2,0.5-0.4,1.1-0.7,1.7s-0.5,1.3-0.7,1.9s-0.5,1.3-0.6,1.9c-0.1,0.5-0.3,1-0.3,1.5     c-0.1,0.8,0,1.7,0.4,2.4C284.3,19.6,285,20,285.8,20z"></path>				<path class="st0" d="M317.5,44.8l14.8,3.2c0.9,0.2,1.8,0.1,2.6-0.5c0.8-0.6,1.3-1.5,1.4-2.5l3.4-15.5c0.3-1.2,0.4-2.4,0.3-3.6     c-0.1-1-0.5-2-1.1-2.7c-0.8-0.8-1.9-1.4-3-1.5l-10.7-2.4c-0.6-0.1-1.1-0.4-1.5-0.9c-0.3-0.5-0.4-1.1-0.2-1.6l0.1-0.4l-1.4-0.3     l-1,2.1c-0.2,0.5-0.4,0.9-0.6,1.4c-0.1,0.4-0.3,0.9-0.4,1.3c-0.3,0.9-0.3,2,0,2.9c0.4,0.7,1,1.1,1.8,1.3v0.1     c-0.6,0.5-1.2,1.1-1.8,1.7c-0.6,0.6-1.1,1.3-1.5,2c-0.4,0.8-0.8,1.7-1,2.6l-2,9.2c-0.3,0.9-0.3,2,0.1,2.9     C316.2,44.2,316.8,44.7,317.5,44.8z M320.5,32c0.2-1,0.5-1.9,1-2.8c0.4-0.8,0.9-1.5,1.5-2.2c0.5-0.5,1.1-1,1.8-1.3l0,0l9.3,2     c0.9,0.2,1.6,0.6,2.1,1.4c0.5,1,0.6,2.1,0.3,3.1l-1.6,7.4c-0.1,0.3-0.2,0.6-0.3,0.9c-0.2,0.3-0.4,0.6-0.7,0.8     c-0.4,0.2-0.9,0.3-1.3,0.2l-13.3-2.9L320.5,32z"></path>				<path class="st0" d="M347.8,31.2l3.4,1c0.4,0.1,0.8,0.3,1,0.6c0.1,0.3,0.1,0.7,0,1.1c-0.2,0.7-0.5,1.3-1,1.8     c-0.7,0.8-1.6,1.4-2.5,1.9l-2.1,1.3l1.1,2.4l3.5-2.2c0.9-0.5,1.7-1.2,2.4-2c0.7-0.7,1.3-1.6,1.7-2.4c0.4-0.8,0.8-1.7,1.1-2.6     c0.4-1.2,0.5-2.4,0.1-3.6c-0.3-1-1.2-1.7-2.2-1.9l-3.3-0.9c-0.6-0.1-1.1-0.4-1.5-0.9c-0.3-0.5-0.3-1.1-0.1-1.6l0.1-0.4l-1.4-0.4     l-1,2c-0.2,0.4-0.5,0.9-0.6,1.4c-0.2,0.4-0.3,0.8-0.4,1.3c-0.4,0.9-0.4,1.9-0.1,2.9C346.3,30.5,347,31.1,347.8,31.2z"></path>				<path class="st0" d="M372.3,49.3c-0.2,0.7-0.4,1.2-0.6,1.7c-0.1,0.4-0.3,0.7-0.5,1.1c-0.2,0.3-0.4,0.6-0.6,1l-13.8-4.8l-3.6,5.4     l20.4,7.1l2.1-6l-2.7-0.9c0.3-0.4,0.5-0.8,0.8-1.3s0.5-1,0.7-1.6s0.5-1.2,0.7-2l3-8.5c0.6-1.5,0.7-3.1,0.1-4.6     c-0.6-1.4-1.8-2.4-3.3-2.8l-8-2.8c-0.6-0.1-1.1-0.5-1.4-1c-0.2-0.5-0.2-1.1,0-1.6l0.1-0.4l-1.4-0.5c-0.5,0.8-0.9,1.4-1.2,1.9     s-0.5,1-0.7,1.4s-0.4,0.8-0.5,1.3c-0.4,0.9-0.5,1.9-0.3,2.9c0.3,0.7,1,1.3,1.7,1.5l8.8,3.1c1,0.2,1.8,0.8,2.4,1.6     c0.4,0.9,0.3,1.9-0.1,2.8L372.3,49.3z"></path>				<path class="st0" d="M385.7,43.9l9,3.8c1.2,0.5,1.9,1.1,2,1.7c0.1,0.8,0,1.6-0.4,2.3l-6.9,16.1l0.7,0.3c0.5,0,1.1,0,1.6-0.1     c0.5-0.1,0.9-0.2,1.4-0.4l6.6-17.1c0.5-1.3,0.8-2.6,0.8-4c0-1-0.4-2-1.1-2.8c-0.7-0.8-1.6-1.5-2.6-1.9l-7.3-3.1     c-0.5-0.2-1-0.6-1.2-1.1c-0.3-0.5-0.3-1.1,0-1.6l0.2-0.4l-1.3-0.6c-0.8,1.2-1.4,2-1.8,2.5c-0.4,0.5-0.7,1.1-0.9,1.7     c-0.5,0.9-0.7,2-0.5,3C384.3,43,384.9,43.6,385.7,43.9z"></path>				<path class="st0" d="M433.3,60l-9.6-5.3c-0.5-0.3-1-0.7-1.2-1.2c-0.2-0.5-0.1-1.1,0.2-1.6l0.2-0.4l-1.2-0.7     c-0.6,0.7-1.1,1.3-1.5,1.7s-0.7,0.8-0.9,1.2s-0.5,0.8-0.7,1.2c-0.6,0.8-0.8,1.8-0.8,2.8c0.2,0.7,0.7,1.4,1.4,1.7l0,0.1     c-0.8,0.3-1.5,0.7-2.2,1.1c-1.5,0.9-2.8,2.2-3.7,3.8l-4.6,8.2c-0.6,0.8-0.8,1.8-0.8,2.8c0.1,0.7,0.6,1.3,1.2,1.6l13.2,7.4     c0.8,0.5,1.7,0.6,2.6,0.3c0.9-0.4,1.7-1.1,2.1-2l7.8-13.9c0.6-1,1-2.2,1.3-3.3c0.2-1,0.1-2-0.3-2.9     C435.2,61.3,434.3,60.5,433.3,60z M430.7,70.3l-3.7,6.6c-0.2,0.3-0.4,0.5-0.6,0.8c-0.3,0.3-0.6,0.5-1,0.6     c-0.4,0.1-0.9,0-1.3-0.2l-11.9-6.7l3.3-6c0.5-0.9,1.1-1.7,1.8-2.4c0.6-0.6,1.3-1.2,2.1-1.7c0.6-0.4,1.3-0.6,2-0.7l8.3,4.7     c0.8,0.4,1.4,1.1,1.6,1.9C431.6,68.3,431.4,69.4,430.7,70.3z"></path>				<path class="st0" d="M443.9,77.8c-0.9,0.5-2,0.9-3,1.1l-2.4,0.6l0.4,2.6l4-1.1c1-0.3,2-0.6,2.9-1.2c0.9-0.5,1.7-1.1,2.4-1.8     c0.7-0.7,1.3-1.4,1.8-2.2c0.7-1,1.1-2.2,1.2-3.4c-0.1-1-0.6-1.9-1.5-2.4l-2.9-1.9c-0.5-0.3-0.9-0.8-1.1-1.3     c-0.1-0.6,0-1.1,0.3-1.6l0.2-0.4l-1.2-0.8c-0.6,0.7-1.2,1.2-1.6,1.6s-0.7,0.8-1,1.1s-0.5,0.7-0.8,1.1c-0.6,0.8-0.9,1.8-0.9,2.8     c0.1,0.8,0.6,1.5,1.3,1.9l2.9,1.9c0.4,0.2,0.7,0.5,0.8,0.9c0,0.4-0.1,0.7-0.3,1C445,77,444.5,77.4,443.9,77.8z"></path>				<path class="st0" d="M456.8,83.6c-0.2,0.2-0.5,0.3-0.8,0.4c-0.4,0.2-1,0.5-1.8,0.8c-2.2,1.1-4.2,2.6-5.9,4.3l-6.9,7l2.2,1.6     l7.4-7.6c1-1,2-1.8,3.2-2.5c1.1-0.7,2.4-1.1,3.6-1.4c1.2-0.3,2.5-0.3,3.8-0.1c1.3,0.2,2.5,0.8,3.6,1.6c0.8,0.6,1.5,1.4,2,2.3     c0.4,0.8,0.7,1.8,0.6,2.7c0,1.1-0.3,2.2-0.7,3.2c-0.6,1.3-1.3,2.5-2.1,3.6c-0.4,0.6-0.9,1.2-1.4,1.7c-0.4,0.4-0.8,0.8-1.2,1.1     c-0.3,0.3-0.7,0.4-1.1,0.4c-0.4-0.1-0.8-0.3-1.1-0.5l-7.7-5.7l-4.5,4.5l11.2,8.2c1.3-1.2,2.4-2.3,3.2-3.2s1.6-1.6,2.3-2.3     s1.2-1.3,1.6-1.8s0.9-1.2,1.4-1.8c1.7-2.1,3-4.6,3.9-7.1c0.7-2,0.6-4.1-0.1-6c-1-2.2-2.5-4-4.5-5.3l-0.5-0.4l-6.1,1.2v-0.1     l0.8-1.1c0.5-0.6,0.8-1.4,0.9-2.2c-0.2-0.7-0.7-1.4-1.4-1.7l-0.6-0.5c-0.5-0.3-0.8-0.8-1-1.4c-0.1-0.6,0.1-1.1,0.4-1.6l0.3-0.4     l-1.2-0.8c-1,0.9-1.8,1.6-2.3,2.1c-0.5,0.5-0.9,1-1.3,1.5c-0.7,0.8-1.2,1.8-1.3,2.8c0.1,0.8,0.5,1.6,1.2,2l1.6,1.2     c0.5,0.3,0.6,0.7,0.4,0.9C457.1,83.5,457,83.6,456.8,83.6z"></path>			</g>			<g>				<path class="st0" d="M15.3,232.3l-0.5,1.3c-0.2,0.5-0.1,1.2,0.1,1.7c0.4,0.8,1,1.4,1.7,2l8.4,7.4l0.5-0.6c0.2-0.5,0.3-1,0.4-1.5     c0.1-0.5,0.1-1,0.1-1.4l-10-8.8L15.3,232.3z"></path>				<path class="st0" d="M22.7,216.1l0.5-1.1l-3.1-2.8c-0.3-0.3-0.7-0.5-1.2-0.6c-0.4,0-0.8,0.3-1.1,0.6L7.3,224.2     c-0.4,0.5-0.9,0.8-1.4,0.9c-0.5,0.1-1.1-0.1-1.4-0.5L4,224.2l-1,1.1l1.3,1.8c0.4,0.5,0.7,0.9,1,1.2c0.3,0.4,0.7,0.7,1.1,1     c0.7,0.7,1.6,1.2,2.5,1.3c0.8,0,1.5-0.4,2-1.1l10.5-11.9l0.1,0.1c0.3,0.3,0.6,0.8,1,1.3s0.9,1.1,1.6,1.8s1.5,1.5,2.6,2.5     l9.6,8.5l0.5-0.6c0.2-0.5,0.3-1,0.4-1.5c0.1-0.5,0.1-1,0-1.5L22.7,216.1z"></path>				<path class="st0" d="M29.6,201.3c-0.7,0-1.4,0.3-1.8,0.9l-1.6,1.6c-0.4,0.5-1,0.7-1.6,0.8c-0.5,0-1.1-0.3-1.4-0.7l-0.3-0.3l-1,1     l1.2,1.9c0.3,0.5,0.6,0.9,0.9,1.3s0.6,0.7,0.9,1c0.6,0.8,1.5,1.3,2.5,1.5c0.8,0,1.6-0.3,2.1-0.9l1.7-1.7c0.4-0.4,0.8-0.6,1-0.6     c0.4,0.1,0.8,0.4,1.1,0.8l13.2,13.5l0.5-0.5c0.2-0.5,0.4-0.9,0.5-1.4c0.1-0.5,0.1-1,0.1-1.5l-15.9-15.3     C31.2,202,30.5,201.5,29.6,201.3z"></path>				<path class="st0" d="M62.1,195.3l-6.9-8c-1.2-1.5-2.9-2.5-4.8-2.7c-1.9-0.1-3.9,0.6-5.2,1.9l-7,6c-0.4,0.4-0.9,0.6-1.5,0.6     c-0.6,0-1.1-0.3-1.5-0.8l-0.3-0.3l-1.1,0.9c0.7,1.2,1.2,2.1,1.5,2.7c0.3,0.6,0.7,1.1,1.1,1.6c0.6,0.8,1.5,1.5,2.5,1.8     c0.8,0.1,1.6-0.2,2.2-0.8l0.5-0.5l0.1,0.1c0.1,0.8,0.2,1.6,0.5,2.3c0.3,1,0.6,1.9,1.1,2.8c0.5,1,1.2,2,1.9,2.9l0.4,0.5l1-0.8     c0.2-0.6,0.5-1.1,0.7-1.6c0.3-0.5,0.6-0.9,1-1.2c0.4-0.4,1-0.7,1.6-0.9c0.6-0.1,1.1-0.2,1.7-0.1c0-0.3-0.1-0.6-0.2-1.2     c-0.1-0.6-0.4-1.1-0.8-1.6c-0.3-0.4-0.8-0.7-1.3-0.9c-0.5-0.1-0.9,0-1.4,0.1c-0.4,0.2-0.8,0.4-1.2,0.7c-0.4,0.3-0.7,0.7-1,1.2     c-0.2,0.4-0.4,0.8-0.5,1.2l-0.1-0.1c-0.4-0.5-0.8-1.1-1.1-1.7c-0.2-0.6-0.4-1.2-0.6-1.9c-0.1-0.4-0.2-0.9-0.3-1.2l5.9-5.1     c0.6-0.5,1.3-1,2-1.2c0.7-0.2,1.4-0.3,2.1-0.1c0.8,0.3,1.6,0.8,2.1,1.5l3.5,4c0.9,0.9,1.3,2.2,1.1,3.4c-0.4,1.4-1.2,2.6-2.4,3.5     l-8.8,7.6l2.9,5.8l11.3-9.7c0.9-0.7,1.6-1.7,1.9-2.9c0.3-1.2,0.3-2.5-0.1-3.7C64,198,63.2,196.5,62.1,195.3z"></path>				<path class="st0" d="M84.8,179c-0.5-1.5-1.1-2.9-1.9-4.2c-0.6-1.1-1.2-2.1-1.9-3.1c-1.1-1.6-2.4-3.1-3.9-4.3     c-1-0.9-2.3-1.5-3.6-1.7c-1.2-0.1-2.4,0.2-3.3,0.9c-1.5,1.1-2.4,2.8-2.3,4.7c0.2,2.6,1,5,2.4,7.2l1.2-0.8     c-0.3-0.7-0.5-1.4-0.6-2.2c-0.1-0.6,0.1-1.3,0.3-1.8c0.3-0.6,0.8-1.1,1.3-1.5c0.6-0.4,1.3-0.7,2.1-0.8c0.9-0.1,1.8,0.1,2.6,0.6     c1.2,0.7,2.2,1.7,2.9,2.9c0.4,0.6,0.8,1.2,1.1,1.8c0.3,0.5,0.5,1.1,0.7,1.7c0.2,0.5,0.3,1.1,0.4,1.6c0.1,1,0,2-0.5,2.9     c-0.5,1-1.2,1.8-2.1,2.4l-7.4,5.3c-0.9-0.7-1.7-1.4-2.3-2s-1.2-1.1-1.6-1.7s-0.8-1-1.1-1.4c-0.4-0.6-0.9-1.3-1.3-2.1     c-0.5-0.8-0.9-1.6-1.3-2.4c-0.2-0.4-0.4-0.8-0.6-1.2l2.6-1.4c-0.3-0.8-0.6-1.4-0.8-1.8c-0.2-0.5-0.5-0.9-0.8-1.3     c-0.4-0.6-1-1.1-1.7-1.4c-0.6-0.2-1.3-0.1-1.9,0.2l-2.3,1.3c-0.4,0.2-0.9,0.4-1.4,0.3c-0.5-0.1-0.9-0.4-1.1-0.9l-0.3-0.4     l-1.1,0.8c0.3,1,0.6,2,1,2.9c0.3,0.7,0.7,1.4,1.1,2c0.4,0.7,1.1,1.3,1.9,1.7c0.7,0.1,1.5,0,2.1-0.3l1-0.5c0.2,0.5,0.3,1,0.6,1.5     c0.4,1,0.8,2,1.3,2.9c0.4,0.9,0.9,1.7,1.5,2.6c0.4,0.5,1,1.3,1.7,2.2s1.7,2,2.9,3.3c1.2,1.2,2.5,2.5,3.9,4l10-7.2     c0.7-0.5,1.4-1.1,2-1.7c0.3-0.4,0.6-0.9,0.6-1.5c0-0.7-0.1-1.3-0.2-2C85.9,182.9,85.4,181,84.8,179z"></path>				<path class="st0" d="M111.7,160.4c-0.3-1.3-0.7-2.6-1.1-3.8c-0.4-1.2-0.8-2.3-1.2-3.2l-1.7-4.6c-0.2-0.5-0.5-1.1-0.9-1.5     c-0.3-0.4-0.8-0.7-1.2-0.8c-0.5-0.1-1.1,0-1.6,0.2l-1.5,0.7c-0.5,0.3-1,0.3-1.5,0.1c-0.4-0.2-0.7-0.5-0.9-0.9l-0.2-0.4l-1.2,0.7     c0.2,1,0.5,2.1,0.8,3.1c0.2,0.7,0.5,1.4,0.9,2c0.4,0.8,1,1.4,1.7,1.9c0.7,0.2,1.5,0.2,2.1-0.2l2.5-1.1l0.3,1     c0.3,0.6,0.5,1.4,0.8,2.3c0.3,0.9,0.5,1.8,0.7,2.8c0.2,1,0.4,2,0.4,2.9c0.1,1,0,1.9-0.1,2.9c-0.1,0.9-0.4,1.7-0.9,2.5     c-0.5,0.8-1.1,1.4-1.9,1.8l-3.5,2l-4.7-13.1l2-0.8c-0.2-0.6-0.4-1.2-0.6-1.9c-0.2-0.6-0.5-1.3-0.9-1.8c-0.3-0.5-0.7-1-1.2-1.3     c-0.7-0.3-1.5-0.3-2.1,0.1l-1.7,0.7c-0.4,0.2-1,0.3-1.5,0.2c-0.5-0.2-0.8-0.5-1.1-0.9l-0.2-0.4l-1.2,0.7c0.2,1,0.4,1.9,0.7,2.9     c0.2,0.8,0.6,1.6,1,2.3c0.4,0.8,0.9,1.4,1.7,1.8c0.7,0.2,1.5,0.1,2.2-0.2l0.7-0.3l4.8,13.4l-5.3,3c-0.8-0.8-1.4-1.5-2-2.1     s-1.1-1.3-1.5-1.8c-0.4-0.5-0.7-1-1-1.6c-0.5-0.9-1-1.9-1.4-2.9c-0.5-1.1-0.9-2.1-1.2-3.2l2.4-1c-0.2-0.6-0.4-1.2-0.6-1.9     c-0.2-0.6-0.5-1.3-0.9-1.9c-0.3-0.5-0.7-1-1.2-1.3c-0.7-0.3-1.4-0.3-2.1,0.1l-1.7,0.7c-0.4,0.2-0.9,0.3-1.4,0.2     c-0.5-0.2-0.8-0.5-1.1-0.9l-0.2-0.4l-1.2,0.7c0.2,1,0.4,2,0.8,3c0.2,0.7,0.6,1.4,0.9,2.1c0.3,0.5,0.6,1,1.1,1.4     c0.3,0.3,0.7,0.4,1.1,0.4c0.5,0,1-0.1,1.5-0.2l0.6-0.2c0.2,0.8,0.5,1.7,0.7,2.6s0.6,1.8,0.9,2.6c0.3,0.8,0.6,1.5,1,2.2     c0.3,0.5,0.7,1.1,1.2,1.8s1.1,1.5,1.8,2.4s1.4,1.9,2.2,2.9s1.7,2,2.6,3.1l13-7.5c1-0.6,1.8-1.4,2.3-2.4c0.5-1,0.9-2.2,1-3.4     c0.1-1.3,0.1-2.6-0.1-3.9C112.4,163.2,112.1,161.8,111.7,160.4z"></path>				<path class="st0" d="M122.3,143.1c-0.5-1.2-1.3-2.1-2.3-2.8c-0.9-0.5-2-0.5-2.9,0l-3.1,1.5c-0.5,0.3-1.1,0.4-1.7,0.3     c-0.5-0.2-1-0.6-1.2-1.1l-0.2-0.4l-1.3,0.6c0.2,0.9,0.4,1.6,0.6,2.2c0.1,0.5,0.3,1,0.4,1.5c0.2,0.4,0.3,0.9,0.5,1.3     c0.3,0.9,1,1.7,1.8,2.2c0.7,0.3,1.6,0.3,2.3-0.2l3.2-1.5c0.4-0.2,0.8-0.3,1.2-0.2c0.3,0.2,0.6,0.4,0.7,0.8     c0.3,0.6,0.4,1.3,0.4,2c-0.1,1.1-0.3,2.1-0.6,3.1l-0.8,2.3l2.4,1l1.2-3.9c0.3-1,0.5-2,0.5-3c0-1-0.1-2-0.3-3     C123,144.9,122.7,144,122.3,143.1z"></path>				<path class="st0" d="M164.8,144.6c-0.3-0.4-0.6-0.8-1-1.2c-0.4-0.4-0.9-0.7-1.4-0.9l-4.8-2.3c-0.2-0.6-0.4-1.1-0.5-1.7     c-0.1-0.6-0.2-1.2-0.2-1.8c0-0.7,0.1-1.3,0.2-2l0.6-3.2l2.5-0.5c-0.1-0.8-0.2-1.5-0.3-2c-0.1-0.5-0.2-1-0.4-1.5     c-0.2-0.7-0.6-1.4-1.2-1.9c-0.6-0.4-1.3-0.5-1.9-0.3l-2.1,0.4c-0.5,0.1-1,0.1-1.5-0.1c-0.4-0.2-0.7-0.6-0.9-1.1l-0.2-0.6     l-1.3,0.5c0,1,0,2,0.1,2.9c0.1,0.8,0.3,1.5,0.5,2.3c0.2,0.9,0.7,1.7,1.4,2.2c0.7,0.3,1.4,0.4,2.1,0.2l0.9-0.2l-0.5,2.8     c-0.1,0.5-0.2,1-0.2,1.6s-0.1,1.1-0.1,1.6c0,0.4,0,0.7,0.1,1.1l-13.4-6.6c-0.8-0.4-1.6-0.9-2.2-1.5c-0.4-0.4-0.7-0.9-0.9-1.5     l-0.2-0.5l-1.3,0.4c0,0.9,0,1.8,0,2.5c0,0.8,0.2,1.5,0.4,2.3c0.3,0.7,0.7,1.4,1.2,2c0.6,0.8,1.4,1.4,2.3,1.8l2.5,1.3l-0.8,3     c-0.4,1.2-0.5,2.6-0.2,3.9c0.3,1.3,0.8,2.5,1.5,3.6l1.8,2.7c0.3,0.3,0.4,0.7,0.3,1.1c-0.1,0.3-0.4,0.5-1,0.7l-0.6,0.2l0.9,2.7     l6.1-2.2c0.1-1.1-0.1-2.2-0.5-3.3c-0.4-0.9-1-1.7-1.7-2.3l-2.5-2.4c-0.8-0.7-1.4-1.5-1.7-2.5c-0.2-0.9-0.2-1.9,0-2.8l0.3-1.4     l16.4,8.1c0.5,0.2,1.1,0.5,1.5,0.9c0.3,0.2,0.6,0.5,0.9,0.8c0.2,0.2,0.4,0.5,0.5,0.8l0.9-0.3c0.2-0.7,0.4-1.3,0.4-2     c0.1-0.8,0-1.5-0.3-2.3C165.3,145.5,165.1,145,164.8,144.6z"></path>				<path class="st0" d="M181.1,122.9c-0.2-0.8-0.5-1.6-1-2.2c-0.4-0.6-1-1.1-1.7-1.3c-0.9-0.2-1.8-0.2-2.6,0.1l-10,2.6     c-0.6,0.3-1.3,0.1-1.7-0.5c-0.1-0.3-0.2-0.6-0.1-0.9v-5.2c0.1-0.8-0.1-1.7-0.5-2.4c-0.3-0.5-0.9-0.7-1.5-0.7l-1.5,0.2     c-0.3,0-0.7,0-1-0.2c-0.2-0.2-0.4-0.5-0.5-0.8l-0.1-0.3l-0.9,0.2c-0.1,0.4-0.1,0.9-0.2,1.7c-0.1,0.7,0,1.3,0.1,2     c0.1,0.5,0.3,1,0.6,1.4c0.3,0.4,0.8,0.5,1.2,0.4l1.2-0.1c0.2,0,0.3,0,0.5,0.1c0.1,0.2,0.2,0.4,0.2,0.7c0,0.3,0,0.7-0.1,1.2     c0,0.5,0,1.2,0,1.8s0,1.4,0,2.1s0.1,1.4,0.1,2c0,0.5,0.1,1,0.2,1.5c0.2,0.8,0.6,1.6,1.2,2.1c0.6,0.4,1.4,0.6,2.1,0.3l11.6-3.1     c0.5-0.1,1-0.1,1.4,0.1c0.4,0.3,0.7,0.7,0.8,1.2l0.8,3.1c0.1,0.3,0.1,0.6,0,0.9c-0.1,0.4-0.3,0.8-0.5,1.1l-4.8,7.9     c-0.5,0.7-0.8,1.4-0.9,2.2c-0.1,0.7,0,1.5,0.2,2.2l0.3,1.2c0.1,0.6,0.4,1.1,0.8,1.5c0.4,0.2,0.9,0.3,1.3,0.1     c0.5-0.1,0.9-0.4,1.1-0.8c0.2-0.6,0.2-1.2,0-1.7l-0.4-1.3c-0.1-0.5-0.2-0.9-0.2-1.4c0.1-0.5,0.3-0.9,0.5-1.3l4.6-7.5     c0.4-0.6,0.6-1.2,0.7-1.9c0.1-0.6,0-1.3-0.2-1.9L181.1,122.9z"></path>				<path class="st0" d="M219.1,114.6c-0.6-0.9-1.4-1.5-2.4-1.9c-1-0.3-2.2-0.4-3.2-0.2l-10.5,1.4c-0.6,0.1-1.1,0-1.6-0.3     c-0.5-0.3-0.8-0.8-0.8-1.4l-0.1-0.4l-1.4,0.2c-0.1,1.4-0.2,2.4-0.2,3.1c0,0.7,0,1.3,0.1,2c0,1,0.4,2,1.1,2.8     c0.6,0.5,1.5,0.7,2.3,0.5l1.1-0.2v0.1c-0.2,1.1-0.4,2.1-0.5,3.1c-0.1,0.9-0.2,1.8-0.2,2.8c0,0.8,0,1.7,0.2,2.5l0.9,4.3     c0.1,0.3,0.1,0.7-0.1,1c-0.2,0.3-0.6,0.4-0.9,0.4l-2.9,0.4l0.4,6.3l7.6-1c0.1-0.6,0.1-1.1,0.1-1.7c0-0.5,0-1-0.1-1.5     c-0.1-0.8-0.3-1.5-0.5-2.3c-0.2-0.8-0.5-1.7-0.8-2.5s-0.5-1.7-0.8-2.6c-0.2-0.8-0.4-1.6-0.5-2.4c-0.1-0.7-0.1-1.3-0.1-2     c0-0.7,0-1.4,0-2s0.1-1.3,0.1-1.8s0.1-0.9,0.1-1.3l0,0l9.3-1.3c0.9-0.2,1.8-0.1,2.6,0.4c0.5,0.6,0.8,1.3,0.9,2.1l2.4,17.4     l0.8-0.1c0.4-0.3,0.9-0.6,1.3-0.9c0.4-0.3,0.7-0.7,1-1.1l-3.1-18.1C220.3,117.1,219.9,115.8,219.1,114.6z"></path>				<path class="st0" d="M233.4,111.3c-0.6-0.5-1.3-0.7-2-0.5l-2.3,0.2c-0.6,0.1-1.2-0.1-1.7-0.4c-0.4-0.4-0.6-0.9-0.7-1.4v-0.4     l-1.4,0.1c-0.1,0.9-0.2,1.6-0.3,2.2c-0.1,0.5-0.1,1-0.1,1.6c0,0.5,0,0.9,0,1.4c0,1,0.3,2,0.9,2.8c0.6,0.6,1.4,0.8,2.2,0.7     l2.4-0.2c0.6,0,1,0,1.2,0.3c0.2,0.4,0.4,0.8,0.3,1.3l1.3,18.8h0.8c0.5-0.2,0.9-0.5,1.3-0.8c0.4-0.3,0.8-0.7,1.1-1.1l-2.1-22     C234.2,112.8,233.9,112,233.4,111.3z"></path>				<path class="st0" d="M256.4,112.9c-0.4-0.9-1.2-1.7-2.1-2.2c-1-0.5-2.1-0.7-3.2-0.6l-7.9,0.1c-0.6,0-1.1-0.1-1.6-0.5     c-0.4-0.4-0.7-0.9-0.6-1.5v-0.4h-1.4c-0.3,1.4-0.5,2.4-0.6,3c-0.1,0.6-0.1,1.3-0.1,1.9c-0.1,1.1,0.2,2.1,0.7,3     c0.6,0.6,1.4,0.9,2.2,0.8l9.8-0.2c1.3,0,2.2,0.2,2.6,0.7c0.4,0.7,0.6,1.4,0.6,2.2l0.3,17.5h0.8c0.5-0.2,1-0.5,1.4-0.7     c0.4-0.3,0.8-0.6,1.1-1l-0.9-18.3C257.3,115.4,257,114.1,256.4,112.9z"></path>				<path class="st0" d="M266.1,122.2c-0.6,0.2-1,0.6-1.2,1.1c-0.4,0.8-0.5,1.7-0.6,2.6l-0.9,11.1l0.8,0.1c0.5-0.2,1-0.4,1.4-0.6     c0.4-0.2,0.8-0.5,1.2-0.8l1-13.3l-0.4-0.5L266.1,122.2z"></path>				<path class="st0" d="M285,111.7l-15.9-1.2c-0.6,0-1.1-0.2-1.6-0.6c-0.4-0.4-0.6-0.9-0.5-1.4l0-0.6l-1.4-0.1     c-0.2,0.8-0.5,1.6-0.6,2.1c-0.3,1-0.5,2-0.5,3c-0.2,1,0,1.9,0.5,2.8c0.5,0.6,1.2,1,2,1l15.9,1.2v0.1c-0.1,0.4-0.3,0.9-0.4,1.6     s-0.3,1.4-0.5,2.3s-0.3,2.1-0.4,3.5l-1,12.8l0.8,0.1c0.5-0.2,1-0.4,1.5-0.6c0.4-0.2,0.8-0.5,1.2-0.8l0.9-18.9l1.2-0.3l0.3-4.2     c0.1-0.5,0-0.9-0.3-1.3C285.8,111.9,285.4,111.7,285,111.7z"></path>				<path class="st0" d="M303.1,114.8c-0.7-0.5-1.5-0.8-2.4-0.9l-1.5-0.2c-0.6,0-1.2-0.3-1.6-0.8c-0.3-0.5-0.4-1-0.3-1.6l0.1-0.4     l-1.4-0.2c-0.4,0.9-0.6,1.6-0.8,2.1s-0.4,1-0.5,1.4c-0.1,0.5-0.2,0.9-0.3,1.4c-0.2,0.9-0.1,2,0.3,2.8c0.5,0.7,1.2,1.1,2,1.1     l2.5,0.4c0.7,0,1.3,0.4,1.6,1c0.3,0.8,0.4,1.7,0.2,2.6l-1.2,8c-0.1,0.5-0.2,1-0.4,1.4c-0.2,0.3-0.5,0.6-0.8,0.7     c-0.5,0.1-1,0.1-1.5,0l-6.6-1l-2.5,6l8.2,1.2c1,0.2,2.1,0.1,3.1-0.3c0.8-0.4,1.5-1.1,1.8-1.9c0.5-1.1,0.8-2.3,1-3.6l2.2-14.7     c0.2-1,0.2-2,0-3C304,115.9,303.6,115.3,303.1,114.8z"></path>				<path class="st0" d="M316.6,116.8l-2.3-0.5c-0.6-0.1-1.2-0.4-1.5-0.9c-0.3-0.5-0.4-1-0.2-1.6l0.1-0.4l-1.4-0.3l-0.9,2     c-0.2,0.6-0.4,1-0.5,1.5c-0.1,0.4-0.3,0.9-0.4,1.3c-0.3,1-0.2,2,0.1,2.9c0.4,0.7,1.1,1.2,1.9,1.3l2.3,0.5c0.6,0.1,0.9,0.3,1,0.6     c0.1,0.4,0.1,0.9,0,1.3l-3.8,18.5l0.7,0.2c0.5-0.1,1-0.2,1.5-0.4c0.5-0.2,0.9-0.4,1.3-0.7l3.9-21.7c0.2-0.8,0.2-1.7-0.1-2.5     C317.9,117.3,317.3,116.9,316.6,116.8z"></path>				<path class="st0" d="M336.7,133.9c-0.6,0-1.1,0.3-1.5,0.8c-0.5,0.7-0.9,1.5-1.2,2.3l-3.4,10.6l0.7,0.2c0.5,0,1-0.1,1.5-0.3     c0.5-0.1,0.9-0.3,1.4-0.5l4-12.7l-0.2-0.6L336.7,133.9z"></path>				<path class="st0" d="M357.2,134.2l1.3-4c0.2-0.4,0.2-0.9,0-1.3c-0.2-0.4-0.6-0.6-1-0.7l-15.1-4.9c-0.6-0.1-1.1-0.5-1.4-0.9     c-0.3-0.4-0.4-1-0.1-1.5l0.2-0.6l-1.4-0.4l-1.1,1.9c-0.3,0.5-0.5,0.9-0.7,1.4c-0.2,0.5-0.4,0.9-0.5,1.4     c-0.4,0.9-0.4,1.9-0.2,2.8c0.3,0.7,1,1.3,1.8,1.4l15.1,4.8v0.1c-0.2,0.4-0.5,0.8-0.8,1.4c-0.3,0.6-0.6,1.3-1,2.2s-0.8,2-1.2,3.3     l-4,12.2l0.7,0.2c0.5,0,1-0.1,1.6-0.2c0.5-0.1,0.9-0.3,1.4-0.6l5.2-18.2L357.2,134.2z"></path>				<path class="st0" d="M374.8,155.3c0.3-0.4,0.5-1,0.8-1.5c0.3-0.5,0.5-1.2,0.8-1.9l3.5-8.3c0.7-1.4,0.9-3,0.4-4.6     c-0.5-1.4-1.7-2.5-3.1-3l-7.8-3.3c-0.6-0.2-1.1-0.6-1.3-1.1c-0.2-0.5-0.2-1.1,0.1-1.6l0.2-0.4l-1.3-0.6c-0.5,0.7-1,1.3-1.3,1.8     c-0.3,0.4-0.6,0.9-0.8,1.3c-0.2,0.4-0.4,0.8-0.6,1.2c-0.5,0.9-0.6,1.9-0.5,2.9c0.3,0.8,0.9,1.4,1.6,1.6l8.6,3.6     c0.9,0.3,1.7,0.9,2.2,1.8c0.3,0.9,0.2,1.9-0.2,2.8l-2.5,5.9c-0.3,0.7-0.5,1.2-0.7,1.6c-0.2,0.4-0.4,0.7-0.6,1.1     c-0.2,0.3-0.4,0.6-0.7,0.9l-13.5-5.7l-3.9,5.2l19.9,8.3l2.4-5.8l-2.6-1.1C374.3,156.1,374.6,155.7,374.8,155.3z"></path>				<path class="st0" d="M386.2,153c-0.6-0.1-1.1,0.1-1.6,0.5c-0.6,0.6-1.2,1.3-1.5,2.1l-5.2,9.9l0.7,0.3c0.5,0,1,0,1.5,0     c0.5,0,1-0.1,1.4-0.3l6.1-11.9l-0.1-0.6L386.2,153z"></path>				<path class="st0" d="M406.3,156.8l2-3.7c0.3-0.4,0.3-0.8,0.3-1.3c-0.1-0.4-0.5-0.7-0.9-0.9l-14.1-7.4c-0.5-0.2-1-0.6-1.2-1.2     c-0.2-0.5-0.2-1.1,0.1-1.5l0.3-0.6l-1.3-0.7l-1.4,1.7c-0.4,0.5-0.7,0.9-0.9,1.3s-0.5,0.8-0.7,1.3c-0.5,0.8-0.8,1.8-0.7,2.8     c0.2,0.8,0.8,1.4,1.5,1.7l14.1,7.4l-0.1,0.1c-0.3,0.3-0.6,0.8-1,1.3c-0.4,0.5-0.9,1.2-1.4,2s-1.1,1.8-1.8,3.1l-6,11.4l0.7,0.4     c0.5,0,1.1,0,1.6,0c0.5-0.1,1-0.2,1.4-0.3l8.2-17L406.3,156.8z"></path>				<path class="st0" d="M423.7,174c0.5-0.4,1.1-0.8,1.7-1.1l2.9-1.5l2,1.7c0.6-0.6,1-1.1,1.4-1.5c0.3-0.4,0.6-0.8,0.9-1.2     c0.4-0.6,0.7-1.4,0.7-2.1c0-0.7-0.4-1.3-0.9-1.7l-1.6-1.4c-0.4-0.3-0.7-0.7-0.8-1.2c-0.1-0.5,0-1,0.3-1.3l0.3-0.5l-1.2-0.8     c-0.8,0.6-1.5,1.2-2.2,1.9c-0.6,0.6-1.1,1.2-1.5,1.8c-0.6,0.7-0.9,1.6-0.9,2.5c0.2,0.7,0.6,1.4,1.2,1.8l0.7,0.6l-2.5,1.3     c-0.4,0.2-0.9,0.5-1.4,0.8c-0.4,0.3-0.9,0.6-1.3,0.9c-0.3,0.2-0.6,0.5-0.8,0.8l-3.1-14.7c-0.2-0.9-0.3-1.8-0.1-2.7     c0.1-0.6,0.3-1.1,0.6-1.6l0.3-0.4l-1.1-0.7c-0.7,0.6-1.4,1.1-2,1.5c-0.6,0.5-1.1,1.1-1.5,1.7c-0.4,0.7-0.7,1.4-0.9,2.2     c-0.2,1-0.2,2,0,3l0.6,2.8l-2.8,1.2c-1.2,0.4-2.3,1.2-3.2,2.2c-0.9,1-1.5,2.2-1.9,3.4l-1,3c-0.1,0.5-0.4,0.8-0.7,0.9     c-0.4,0.1-0.9-0.1-1.2-0.3l-0.5-0.3l-1.6,2.5l5.5,3.5c0.9-0.6,1.7-1.5,2.2-2.4c0.5-0.9,0.7-1.8,0.8-2.8l0.4-3.4     c0.1-1,0.4-2,0.9-2.9c0.6-0.8,1.4-1.4,2.2-1.8l1.3-0.7l3.7,17.9c0.2,0.6,0.2,1.2,0.3,1.7c0,0.4,0,0.8-0.1,1.2     c-0.1,0.3-0.2,0.6-0.4,0.9l0.8,0.5c0.6-0.2,1.3-0.5,1.8-0.9c0.7-0.4,1.2-1,1.6-1.6c0.6-0.9,0.9-1.9,1-2.9c0-0.6,0-1.2-0.1-1.7     l-1.1-5.2c0.3-0.5,0.7-1,1.1-1.4C422.8,174.8,423.2,174.4,423.7,174z"></path>				<path class="st0" d="M433.6,181.6c-0.6-0.2-1.2-0.1-1.6,0.3c-0.7,0.5-1.4,1.1-1.9,1.8l-6.8,8.8l0.6,0.5c0.5,0.1,1,0.2,1.5,0.3     c0.5,0,1,0,1.5,0l8.1-10.6V182L433.6,181.6z"></path>				<path class="st0" d="M452.7,188.8l2.6-3.3c0.3-0.3,0.5-0.8,0.5-1.2c-0.1-0.4-0.3-0.8-0.7-1l-12.6-9.7c-0.5-0.3-0.8-0.8-1-1.4     c-0.1-0.5,0-1.1,0.4-1.5l0.4-0.5l-1.1-0.9l-1.7,1.4c-0.4,0.3-0.8,0.7-1.1,1.1c-0.4,0.4-0.7,0.7-1,1.1c-0.7,0.7-1.1,1.6-1.1,2.6     c0.1,0.8,0.5,1.6,1.2,2l12.7,9.7l-0.1,0.1l-1.2,1.1c-0.5,0.4-1,1-1.7,1.7s-1.4,1.6-2.3,2.7l-7.9,10.2l0.6,0.5     c0.5,0.1,1,0.2,1.5,0.3c0.5,0.1,1,0.1,1.5,0l11.1-15.3L452.7,188.8z"></path>				<path class="st0" d="M483.7,213.8c0.3-1,0.4-2,0.1-3c-0.4-1-1-2-1.8-2.7l-7.5-7.5c-0.4-0.4-0.7-0.9-0.7-1.5     c0-0.6,0.2-1.1,0.6-1.5l0.3-0.3l-1-1c-1.2,0.8-2,1.3-2.6,1.7c-0.5,0.4-1,0.8-1.5,1.2c-0.8,0.7-1.4,1.6-1.6,2.6     c0,0.8,0.3,1.6,1,2.1l0.8,0.8l-0.1,0.1c-1,0.5-1.9,0.9-2.8,1.4c-0.8,0.4-1.6,0.9-2.3,1.5c-0.7,0.5-1.3,1-1.9,1.6l-2.9,3.3     c-0.2,0.3-0.5,0.5-0.8,0.5c-0.4,0-0.7-0.2-0.9-0.5l-2-2.1l-4.8,4.1l5.4,5.4c0.5-0.3,1-0.6,1.4-0.9c0.4-0.3,0.8-0.6,1.2-1     c0.5-0.6,1.1-1.2,1.5-1.8c0.5-0.7,1-1.4,1.5-2.1s1-1.5,1.6-2.2c0.5-0.6,1-1.3,1.6-1.9c0.5-0.5,1-0.9,1.5-1.3     c0.5-0.4,1.1-0.8,1.6-1.2s1-0.7,1.5-1s0.8-0.5,1.1-0.7l6.6,6.6c0.9,0.9,1.3,1.7,1.2,2.3c-0.2,0.8-0.6,1.5-1.2,2l-12.4,12.4     l0.5,0.5c0.5,0.2,1,0.3,1.5,0.5c0.5,0.1,1,0.1,1.5,0.1l12.5-13.4C482.5,216.3,483.2,215.1,483.7,213.8z"></path>				<path class="st0" d="M504.2,233.8l-1.1-1.9c-0.3-0.4-0.4-0.9-0.4-1.4c0.1-0.5,0.3-0.9,0.7-1.2l0.5-0.4l-0.9-1.1     c-0.9,0.3-1.8,0.7-2.7,1.1c-0.7,0.4-1.4,0.8-2,1.3c-0.7,0.5-1.3,1.2-1.6,2.1c-0.1,0.7,0.1,1.5,0.5,2.1l0.5,0.8l-2.8,0.5     c-0.5,0.1-1,0.2-1.5,0.3c-0.5,0.1-1,0.3-1.5,0.5c-0.4,0.1-0.7,0.3-1,0.5l1.5-14.9c0.1-0.9,0.3-1.8,0.7-2.6c0.2-0.5,0.6-1,1-1.4     l0.4-0.3l-0.9-1c-0.9,0.3-1.7,0.6-2.4,0.9c-0.7,0.3-1.4,0.7-2,1.2c-0.6,0.5-1.1,1.1-1.5,1.8c-0.5,0.9-0.8,1.8-0.9,2.8l-0.3,2.8     l-3,0.3c-1.3,0.1-2.6,0.4-3.7,1.1c-1.1,0.7-2.1,1.6-2.9,2.7l-1.9,2.6c-0.3,0.4-0.6,0.7-0.9,0.7s-0.6-0.2-1-0.7l-0.4-0.4     l-2.2,1.8l4.2,5c1.1-0.3,2.1-0.9,2.9-1.6c0.7-0.7,1.2-1.5,1.6-2.4l1.4-3.2c0.4-1,1-1.8,1.7-2.5c0.8-0.6,1.7-0.9,2.7-1l1.4-0.2     l-1.9,18.2c0,0.6-0.1,1.2-0.3,1.7c-0.1,0.4-0.3,0.8-0.5,1.1c-0.2,0.3-0.4,0.5-0.6,0.7l0.6,0.7c0.7,0,1.3-0.1,2-0.3     c0.7-0.2,1.4-0.6,2-1.1c0.4-0.3,0.8-0.7,1.1-1.1c0.3-0.4,0.6-0.9,0.8-1.4c0.2-0.5,0.3-1.1,0.4-1.7l0.5-5.3     c0.5-0.4,0.9-0.7,1.4-1.1c0.5-0.3,1.1-0.6,1.6-0.8c0.6-0.2,1.3-0.4,1.9-0.5l3.2-0.6l1.4,2.2c0.7-0.4,1.3-0.7,1.8-1     c0.4-0.3,0.9-0.6,1.3-0.9c0.6-0.5,1.1-1.1,1.3-1.8C504.7,235.1,504.6,234.4,504.2,233.8z"></path>			</g>		</g>	</g>	<g>		<path class="st0" d="M46.1,144.4c0.1-0.1,0.4-0.4,0.8-0.8c0.4-0.4,1.1-1.1,2.2-2.1c1.5-1.5,3.2-2.2,4.8-2.2c1.7,0,3.2,0.6,4.5,2   s2,2.9,1.8,4.6c-0.1,1.7-0.9,3.2-2.5,4.7l-4.7,4.5l-0.1-0.1l0.2-0.2c0.2-0.2,0.3-0.5,0.3-0.8c0-0.3-0.1-0.6-0.3-0.8l-7.3-7.6   c-0.9,1-1.4,1.9-1.5,2.7c-0.1,0.4-0.1,0.8,0,1.1c0,0.3,0.1,0.7,0.3,1.1l-0.2,0.1c-0.6-1.1-0.8-2.1-0.5-3.1   C44.3,146.5,45,145.5,46.1,144.4z M58.3,147.1c-0.1-1.2-0.8-2.5-2-3.7s-2.4-1.9-3.6-2.1c-1.2-0.2-2.3,0.2-3.2,1c0,0,0,0,0,0   l-1.6,1.5l7.7,8l1.6-1.5C58.1,149.4,58.4,148.3,58.3,147.1z"></path>		<path class="st0" d="M63.6,145c0.2-0.2,0.4-0.5,0.4-0.8c0-0.3-0.1-0.6-0.2-0.8l-6.5-7.7c-0.3-0.3-0.7-0.4-1.1-0.3   c-0.2,0-0.4,0.1-0.5,0.2l-0.2,0.2l-0.1-0.1l5.3-4.5c0.3-0.2,0.6-0.5,0.9-0.9c0.3-0.3,0.5-0.6,0.6-0.8l2,2.4l-0.1,0.1l-0.1-0.2   c-0.3-0.4-0.8-0.6-1.2-0.7c-0.5,0-0.9,0.1-1.3,0.4l-2.3,2l3.4,4l1.8-1.5c0.3-0.3,0.5-0.6,0.5-1.1s-0.1-0.8-0.4-1.1l-0.1-0.1   l0.1-0.1l2.7,3.2L67,137l-0.1-0.1c-0.4-0.5-0.9-0.6-1.4-0.6c-0.3,0.1-0.5,0.2-0.7,0.3l-1.8,1.5l3.3,3.9l1.8-1.5   c0.7-0.6,1.1-1.2,1.2-2s0-1.6-0.4-2.5l0.1-0.1l1.7,3.3l-7.1,6l-0.1-0.1L63.6,145z"></path>		<path class="st0" d="M71.2,136.7c-0.5-0.7-0.8-1.4-0.9-2.1l0.1-0.1c0,0.1,0.1,0.2,0.2,0.2c0.5,0.7,1.2,1.1,2,1.2s1.7-0.1,2.5-0.7   c0.6-0.5,1-1,1.1-1.6c0.1-0.6,0-1.1-0.3-1.6c-0.4-0.6-1.2-0.8-2.3-0.6l-3.7,0.3c-0.7,0.1-1.3,0-1.9-0.2c-0.5-0.2-0.9-0.6-1.3-1   c-0.7-0.9-0.9-1.8-0.7-2.7c0.2-0.9,0.7-1.7,1.6-2.4c0.5-0.4,1.2-0.8,2.1-1.3l0.9-0.7l1.4,2.2l-0.1,0.1c-0.4-0.5-0.9-0.8-1.5-0.8   c-0.6,0-1.2,0.2-1.8,0.7c-0.7,0.6-1.1,1.2-1.1,1.9c0,0.4,0.1,0.7,0.3,0.9c0.3,0.5,1,0.6,2,0.5l4.1-0.3c1.2-0.2,2.2,0.2,3,1.2   c0.8,1,1,2.1,0.8,3.1c-0.3,1.1-1,2-2.1,2.9c-0.6,0.5-1.3,0.9-2,1.1s-1.2,0.4-1.7,0.3C71.6,137.1,71.4,136.9,71.2,136.7z"></path>		<path class="st0" d="M82.9,115.8l5.8,8.8c0.2,0.3,0.4,0.4,0.7,0.5c0.3,0.1,0.6,0,0.8-0.2l0.2-0.1l0.1,0.1l-4.6,3l-0.1-0.2l0.2-0.1   c0.2-0.2,0.4-0.4,0.5-0.7c0.1-0.3,0-0.6-0.1-0.8l-5.9-8.8l-2,1.3c-0.5,0.3-0.7,0.7-0.8,1.2s0,0.9,0.3,1.4l0.1,0.2l-0.1,0.1   l-1.7-2.6c0.2,0,0.5-0.1,0.9-0.3c0.4-0.2,0.8-0.4,1.1-0.6l6-4c0.5-0.3,0.9-0.6,1.1-0.9s0.4-0.5,0.5-0.5l1.7,2.6l-0.1,0.1l-0.1-0.2   c-0.3-0.5-0.7-0.7-1.1-0.8c-0.5-0.1-0.9,0-1.4,0.3L82.9,115.8z"></path>		<path class="st0" d="M93.3,108.1c1.9-1.1,3.7-1.5,5.5-1.2c1.7,0.4,3.1,1.4,4.1,3.1c1,1.7,1.3,3.4,0.7,5.1s-1.8,3.1-3.7,4.2   c-1.9,1.1-3.7,1.5-5.5,1.2c-1.7-0.4-3.1-1.4-4.1-3.1c-0.7-1.1-1-2.3-1-3.5c0-1.2,0.4-2.2,1-3.2C91.1,109.7,92,108.9,93.3,108.1z    M96.1,119c1.2,0.5,2.4,0.4,3.5-0.2c1.1-0.7,1.8-1.6,1.9-2.9c0.1-1.3-0.2-2.7-1.1-4.2c-0.6-1-1.3-1.8-2-2.4   c-0.7-0.6-1.5-0.9-2.3-1c-0.8-0.1-1.6,0.1-2.3,0.6c-1.1,0.7-1.8,1.6-1.9,2.9c-0.1,1.3,0.2,2.7,1.1,4.2   C93.8,117.5,94.9,118.5,96.1,119z"></path>		<path class="st0" d="M105.9,102.4l-0.7,0.4c0,0,0,0,0,0l4.8,9.3c0.2,0.4,0.5,0.6,1,0.6c0.2,0,0.4,0,0.6-0.1l0.2-0.1l0.1,0.2   l-4.9,2.5l-0.1-0.2l0.2-0.1c0.4-0.2,0.6-0.5,0.6-0.9c0-0.2,0-0.4-0.1-0.6l-4.6-8.9c-0.2-0.3-0.4-0.5-0.7-0.6   c-0.3-0.1-0.6-0.1-0.9,0.1l-0.2,0.1l-0.1-0.2l5.5-2.8c1-0.5,2-0.8,3-0.7c0.5,0,0.9,0.2,1.3,0.5s0.8,0.7,1,1.2s0.4,1,0.5,1.5   c0,0.5-0.1,1-0.3,1.6c-0.2,0.5-0.6,1-1.2,1.3c0.7-0.1,1.5,0.1,2.4,0.6c2.1,1.3,3.5,1.9,4.3,2c0.4,0,0.8-0.1,1.2-0.3l0.1,0.2   l-1.6,0.8c-0.9,0.5-1.7,0.7-2.5,0.8c-0.7,0.1-1.5-0.1-2.2-0.5c-0.4-0.2-0.8-0.6-1.5-1c-0.6-0.5-1-0.8-1.3-1   c-0.6-0.5-1.2-0.7-1.6-0.5l-0.1-0.2l0.5-0.3c0.5-0.2,0.8-0.6,1.1-1.1c0.2-0.5,0.2-1.1,0-1.8c-0.1-0.2-0.1-0.4-0.2-0.6   c-0.5-0.9-1-1.4-1.5-1.6c-0.6-0.2-1.1-0.2-1.7,0.1C106.3,102.2,106.1,102.3,105.9,102.4z"></path>		<path class="st0" d="M118.1,96.4l-0.7,0.3c0,0,0,0,0,0l4.3,9.6c0.2,0.4,0.5,0.6,0.9,0.7c0.2,0,0.4,0,0.6-0.1l0.2-0.1l0.1,0.2   l-5,2.3l-0.1-0.2l0.2-0.1c0.4-0.2,0.6-0.5,0.7-0.9c0-0.2,0-0.4-0.1-0.6l-4.1-9.1c-0.1-0.3-0.4-0.5-0.7-0.6c-0.3-0.1-0.6-0.1-0.9,0   l-0.2,0.1l-0.1-0.2l5.6-2.6c1.1-0.5,2.1-0.7,3-0.5c0.5,0.1,0.9,0.2,1.3,0.6c0.4,0.3,0.7,0.7,1,1.2c0.2,0.5,0.4,1,0.4,1.6   c0,0.5-0.1,1-0.4,1.6c-0.3,0.5-0.7,0.9-1.2,1.3c0.7-0.1,1.5,0.1,2.3,0.7c2,1.4,3.4,2.1,4.2,2.2c0.4,0,0.8,0,1.2-0.2l0.1,0.2   l-1.6,0.7c-0.9,0.4-1.8,0.6-2.5,0.7c-0.7,0-1.4-0.2-2.1-0.6c-0.3-0.2-0.8-0.6-1.4-1.1c-0.6-0.5-1-0.9-1.2-1.1   c-0.6-0.5-1.1-0.7-1.6-0.6l-0.1-0.2l0.5-0.2c0.5-0.2,0.9-0.6,1.1-1c0.2-0.5,0.3-1.1,0.1-1.8c-0.1-0.2-0.1-0.4-0.2-0.6   c-0.4-0.9-0.9-1.5-1.4-1.7c-0.5-0.2-1.1-0.2-1.7,0C118.5,96.2,118.4,96.3,118.1,96.4z"></path>		<path class="st0" d="M130.6,103.6c0.3-0.1,0.5-0.3,0.6-0.6c0.1-0.3,0.1-0.6,0-0.9l-3.7-9.3c-0.2-0.4-0.5-0.6-0.9-0.6   c-0.2,0-0.4,0-0.6,0.1l-0.2,0.1l-0.1-0.2l6.4-2.6c0.3-0.1,0.7-0.3,1.1-0.6c0.4-0.2,0.6-0.4,0.8-0.6l1.2,2.9l-0.2,0.1l-0.1-0.2   c-0.2-0.5-0.5-0.8-0.9-1c-0.4-0.2-0.9-0.2-1.4,0l-2.8,1.1l2,4.9l2.2-0.9c0.4-0.2,0.7-0.5,0.8-0.8s0.2-0.8,0-1.2l-0.1-0.1l0.2-0.1   l1.6,3.9l-0.2,0.1l-0.1-0.1c-0.2-0.6-0.6-0.9-1.2-1c-0.3,0-0.5,0-0.8,0.1l-2.2,0.9l1.9,4.7l2.2-0.9c0.8-0.3,1.4-0.8,1.8-1.5   c0.4-0.7,0.5-1.5,0.4-2.5l0.2-0.1l0.6,3.7l-8.6,3.5l-0.1-0.2L130.6,103.6z"></path>		<path class="st0" d="M149.9,83.3c-0.3,0.1-0.5,0.3-0.6,0.6s-0.2,0.5-0.1,0.8l3.1,8.8c0.3,0.8,0.5,1.4,0.8,1.9l0.1,0.2l-0.2,0.1   l-11.4-5.2l2.4,6.7c0.1,0.3,0.3,0.5,0.6,0.6c0.3,0.1,0.6,0.1,0.8,0l0.3-0.1l0.1,0.2l-5.1,1.8l-0.1-0.2l0.3-0.1   c0.3-0.1,0.5-0.3,0.6-0.6c0.1-0.3,0.1-0.6,0-0.8l-3.1-8.8c-0.3-0.7-0.5-1.4-0.8-1.8l-0.1-0.2l0.2-0.1l11.4,5.2l-2.4-6.7   c-0.1-0.3-0.3-0.5-0.6-0.6c-0.3-0.1-0.6-0.1-0.8,0l-0.3,0.1l-0.1-0.2l5.1-1.8l0.1,0.2L149.9,83.3z"></path>		<path class="st0" d="M158.4,81.3l3,10.1c0.1,0.3,0.3,0.5,0.6,0.7s0.6,0.2,0.9,0.1l0.2-0.1l0.1,0.2l-5.2,1.6l-0.1-0.2l0.2-0.1   c0.3-0.1,0.5-0.3,0.7-0.5s0.2-0.6,0.1-0.8l-3-10.1l-2.3,0.7c-0.5,0.2-0.9,0.5-1.1,0.9c-0.2,0.4-0.2,0.9-0.1,1.4l0.1,0.2l-0.2,0.1   l-0.9-3c0.2,0,0.5,0,0.9-0.1c0.4-0.1,0.8-0.1,1.2-0.2l6.9-2.1c0.6-0.2,1-0.4,1.3-0.6c0.3-0.2,0.5-0.3,0.6-0.4l0.9,3l-0.2,0.1   l-0.1-0.2c-0.2-0.5-0.4-0.9-0.8-1.1s-0.9-0.3-1.4-0.1L158.4,81.3z"></path>		<path class="st0" d="M166.5,89.6c-0.2-0.8-0.2-1.6,0-2.3l0.2,0c0,0.1,0,0.2,0.1,0.3c0.2,0.8,0.7,1.4,1.4,1.9   c0.7,0.4,1.6,0.5,2.6,0.3c0.8-0.2,1.3-0.5,1.7-1c0.3-0.5,0.4-1,0.3-1.6c-0.2-0.7-0.8-1.2-1.9-1.4l-3.6-1.2   c-0.7-0.2-1.2-0.5-1.6-0.9c-0.4-0.4-0.7-0.9-0.8-1.4c-0.3-1.1-0.2-2,0.4-2.8s1.3-1.3,2.4-1.6c0.6-0.2,1.4-0.3,2.4-0.4l1.1-0.3   l0.4,2.6l-0.2,0c-0.2-0.6-0.5-1-1-1.3c-0.5-0.2-1.2-0.3-1.9-0.1c-0.9,0.2-1.5,0.7-1.8,1.3c-0.1,0.3-0.2,0.7-0.1,1   c0.1,0.6,0.7,1,1.6,1.2l3.9,1.3c1.2,0.3,2,1.1,2.3,2.3c0.3,1.2,0.1,2.3-0.5,3.2c-0.7,0.9-1.7,1.5-3.1,1.9   c-0.8,0.2-1.5,0.3-2.3,0.3c-0.7,0-1.3-0.1-1.7-0.4C166.7,90.1,166.6,89.9,166.5,89.6z"></path>		<path class="st0" d="M190.3,74.6c1.4,0.9,2.3,2.2,2.7,4.1c0.4,1.9,0.1,3.5-0.9,4.9c-1,1.4-2.5,2.2-4.6,2.7l-6.4,1.3l0-0.2l0.2,0   c0.3-0.1,0.5-0.2,0.7-0.5c0.2-0.3,0.2-0.5,0.2-0.9l-2-9.9c-0.1-0.3-0.3-0.5-0.5-0.6c-0.3-0.2-0.5-0.2-0.8-0.1l-0.2,0l0-0.2L185,74   C187.1,73.5,188.8,73.8,190.3,74.6z M187.1,85.6c0.8-0.2,1.5-0.5,2.1-1.1s0.9-1.3,1-2.2c0.2-0.9,0.1-1.9-0.1-3   c-0.3-1.7-1-2.9-1.9-3.7c-0.9-0.8-2-1.1-3.3-0.9l-2.2,0.4l2.2,10.9L187.1,85.6z"></path>		<path class="st0" d="M193.9,74.6c0.5-0.3,0.7-0.7,0.6-1.3c-0.1-0.3-0.2-0.6-0.6-0.9s-0.5-0.6-0.6-1s0-0.7,0.2-1   c0.2-0.3,0.4-0.4,0.8-0.5c0.7-0.1,1.1,0.1,1.5,0.6c0.2,0.3,0.4,0.6,0.4,0.8c0.1,0.7,0.1,1.3-0.1,1.7c-0.4,0.9-1,1.4-1.8,1.5   c-0.1,0-0.2,0-0.3,0L193.9,74.6z"></path>		<path class="st0" d="M200,83.8c0.3,0,0.6-0.2,0.7-0.4c0.2-0.3,0.3-0.5,0.2-0.8l-1.5-9.9c-0.1-0.4-0.3-0.7-0.7-0.8   c-0.2-0.1-0.4-0.1-0.6-0.1l-0.2,0l0-0.2l6.8-1c0.4-0.1,0.8-0.1,1.2-0.3s0.7-0.3,0.9-0.4l0.5,3.1l-0.2,0l0-0.2   c-0.1-0.5-0.3-0.9-0.7-1.2c-0.4-0.3-0.8-0.4-1.4-0.3l-3,0.4l0.8,5.2l2.4-0.3c0.4-0.1,0.8-0.3,1-0.6c0.2-0.3,0.3-0.7,0.3-1.1l0-0.2   l0.2,0l0.6,4.1l-0.2,0l0-0.1c-0.1-0.6-0.4-1-0.9-1.2c-0.3-0.1-0.5-0.1-0.8-0.1l-2.4,0.4l0.7,5l2.3-0.3c0.9-0.1,1.6-0.5,2.1-1.1   s0.8-1.4,1-2.3l0.2,0l-0.3,3.8l-9.2,1.4l0-0.2L200,83.8z"></path>		<path class="st0" d="M223.3,80.8l0.2,0l0,0.2l-5.7,0.6l0-0.2l0.2,0c0.3,0,0.4-0.1,0.6-0.3s0.2-0.3,0.1-0.5c0-0.1-0.1-0.3-0.1-0.4   l-1.1-2.1l-4.2,0.5l-0.7,2.3c0,0.2-0.1,0.3,0,0.4c0,0.1,0.1,0.3,0.2,0.4s0.4,0.2,0.6,0.2l0.1,0l0,0.2l-3.8,0.4l0-0.2l0.2,0   c0.3,0,0.5-0.1,0.8-0.3c0.3-0.2,0.5-0.5,0.6-0.8l3.1-9.8c0.4-1.2,0.6-2.1,0.6-2.4l0.2,0l6.6,11.1c0.2,0.3,0.5,0.6,0.8,0.7   S223,80.9,223.3,80.8z M213.4,77.8l3.6-0.4l-2.2-4.2L213.4,77.8z"></path>		<path class="st0" d="M235.5,67.7l-0.3,0c-0.3,0-0.5,0.1-0.6,0.3s-0.3,0.4-0.2,0.6l0.5,7c0.1,1.5-0.3,2.7-1.1,3.6   c-0.9,0.9-2.1,1.4-3.7,1.6c-1.9,0.1-3.4-0.2-4.4-1c-1.1-0.8-1.7-1.9-1.8-3.4l-0.5-7c0-0.3-0.1-0.5-0.3-0.6   c-0.2-0.2-0.4-0.2-0.7-0.2l-0.3,0l0-0.2l5.2-0.4l0,0.2l-0.3,0c-0.3,0-0.5,0.1-0.6,0.3c-0.2,0.2-0.2,0.4-0.2,0.6l0.5,6.9   c0.1,1.3,0.5,2.3,1.1,2.9c0.7,0.7,1.6,1,2.6,0.9s1.9-0.5,2.5-1.2c0.6-0.7,0.8-1.7,0.8-2.9l-0.5-7.1c0-0.3-0.1-0.5-0.3-0.6   c-0.2-0.1-0.4-0.2-0.7-0.2l-0.3,0l0-0.2l3.8-0.3L235.5,67.7z"></path>		<path class="st0" d="M255.7,67.2c-0.3,0-0.6,0.1-0.8,0.3c-0.2,0.2-0.3,0.5-0.3,0.8l0.1,9.3c0,0.8,0.1,1.5,0.2,2l0.1,0.3l-0.2,0   l-9.2-8.5l0.1,7.1c0,0.3,0.1,0.6,0.3,0.8c0.2,0.2,0.5,0.3,0.8,0.3l0.3,0l0,0.2l-5.5,0.1l0-0.2l0.3,0c0.3,0,0.6-0.1,0.8-0.3   s0.3-0.5,0.3-0.8l-0.1-9.3c0-0.8-0.1-1.5-0.2-2l0-0.3l0.2,0l9.2,8.5l-0.1-7.1c0-0.3-0.1-0.6-0.4-0.8c-0.2-0.2-0.5-0.3-0.8-0.3   l-0.3,0l0-0.2l5.5-0.1l0,0.2L255.7,67.2z"></path>		<path class="st0" d="M257.4,79.5c0.3,0,0.6-0.1,0.8-0.3c0.2-0.2,0.4-0.5,0.4-0.8l0.2-10c0-0.4-0.2-0.7-0.6-1   c-0.2-0.1-0.4-0.2-0.6-0.2l-0.2,0l0-0.2l6.9,0.2c0.4,0,0.8,0,1.2-0.1c0.4-0.1,0.8-0.1,0.9-0.2l-0.1,3.1l-0.2,0l0-0.2   c0-0.5-0.1-1-0.4-1.3c-0.3-0.3-0.7-0.5-1.3-0.6l-3-0.1l-0.1,5.2l2.4,0.1c0.4,0,0.8-0.1,1.1-0.4s0.4-0.6,0.5-1.1l0-0.2l0.2,0   l-0.1,4.2l-0.2,0l0-0.1c0-0.6-0.2-1-0.7-1.3c-0.2-0.1-0.5-0.2-0.8-0.2l-2.4-0.1l-0.1,5.1l2.4,0.1c0.9,0,1.6-0.2,2.2-0.7   c0.6-0.5,1.1-1.2,1.4-2.1l0.2,0l-0.9,3.7l-9.3-0.2l0-0.2L257.4,79.5z"></path>		<path class="st0" d="M273.1,78.6c0.1-0.9,0.3-1.6,0.7-2.2l0.2,0c0,0.1,0,0.2,0,0.3c-0.1,0.8,0.2,1.6,0.7,2.2   c0.5,0.7,1.3,1,2.4,1.1c0.8,0.1,1.4-0.1,1.9-0.4s0.7-0.8,0.8-1.4c0-0.7-0.4-1.4-1.3-1.9l-3-2.3c-0.6-0.4-1-0.9-1.2-1.4   c-0.2-0.5-0.3-1.1-0.3-1.6c0.1-1.1,0.5-2,1.2-2.5c0.8-0.6,1.7-0.8,2.8-0.7c0.7,0,1.5,0.2,2.4,0.3l1.1,0.1l-0.4,2.6l-0.2,0   c0-0.6-0.2-1.1-0.6-1.5c-0.4-0.4-1-0.6-1.8-0.7c-0.9-0.1-1.6,0.2-2.1,0.7c-0.2,0.3-0.4,0.6-0.4,0.9c0,0.6,0.3,1.1,1.1,1.7l3.3,2.5   c1,0.7,1.5,1.6,1.4,2.9c-0.1,1.3-0.6,2.2-1.5,2.8c-0.9,0.6-2.1,0.9-3.5,0.8c-0.8-0.1-1.6-0.2-2.2-0.5c-0.7-0.2-1.2-0.5-1.5-0.9   C273.1,79.2,273.1,78.9,273.1,78.6z"></path>		<path class="st0" d="M295.6,82.1l0.2,0l0,0.2l-5.7-0.6l0-0.2l0.2,0c0.3,0,0.5,0,0.6-0.2c0.1-0.1,0.2-0.3,0.2-0.4   c0-0.1,0-0.3,0-0.4l-0.6-2.3l-4.2-0.4l-1.2,2.1c-0.1,0.1-0.1,0.3-0.1,0.4c0,0.1,0,0.3,0.1,0.5c0.1,0.2,0.3,0.3,0.6,0.3l0.1,0   l0,0.2l-3.8-0.4l0-0.2l0.2,0c0.3,0,0.6,0,0.8-0.2s0.5-0.4,0.8-0.7l5.1-8.9c0.7-1.1,1.1-1.9,1.1-2.3l0.2,0l4.1,12.2   c0.1,0.4,0.3,0.6,0.6,0.8S295.3,82,295.6,82.1z M286.6,77l3.6,0.4l-1.3-4.6L286.6,77z"></path>		<path class="st0" d="M310.2,71.8l-0.3,0c-0.2,0-0.5,0-0.7,0.1s-0.3,0.3-0.4,0.6l-1,6.9c-0.2,1.5-0.8,2.6-1.9,3.3   c-1,0.7-2.4,1-3.9,0.7c-1.9-0.3-3.3-0.9-4.1-1.9s-1.2-2.2-1-3.7l1-6.9c0-0.3,0-0.5-0.2-0.7s-0.4-0.3-0.6-0.3l-0.3,0l0-0.2l5.1,0.7   l0,0.2l-0.3,0c-0.3,0-0.5,0-0.7,0.1c-0.2,0.1-0.3,0.3-0.4,0.6l-1,6.8c-0.2,1.3,0,2.3,0.5,3.1s1.3,1.3,2.4,1.5   c1.1,0.2,2-0.1,2.7-0.7c0.7-0.6,1.2-1.5,1.4-2.7l1-7c0-0.2,0-0.5-0.2-0.7s-0.4-0.3-0.6-0.3l-0.3,0l0-0.2l3.7,0.5L310.2,71.8z"></path>		<path class="st0" d="M316.5,73.6l-0.8-0.1c0,0,0,0-0.1,0l-1.9,10.3c-0.1,0.4,0.1,0.8,0.4,1.1c0.2,0.1,0.3,0.2,0.5,0.2l0.2,0l0,0.2   l-5.4-1l0-0.2l0.2,0c0.4,0.1,0.8,0,1.1-0.4c0.1-0.1,0.2-0.3,0.3-0.5l1.8-9.8c0-0.3,0-0.6-0.2-0.9c-0.2-0.3-0.4-0.4-0.7-0.5l-0.2,0   l0-0.2l6.1,1.1c1.1,0.2,2.1,0.6,2.8,1.3c0.4,0.3,0.6,0.7,0.8,1.2c0.2,0.5,0.2,1,0.1,1.6c-0.1,0.6-0.3,1.1-0.6,1.5   s-0.7,0.8-1.2,1.1c-0.5,0.3-1.1,0.4-1.8,0.3c0.6,0.4,1.1,1,1.5,1.9c0.9,2.3,1.6,3.7,2.1,4.2c0.3,0.2,0.6,0.4,1.1,0.5l0,0.2   l-1.7-0.3c-1-0.2-1.8-0.5-2.4-0.9s-1.1-1-1.4-1.7c-0.1-0.4-0.3-0.9-0.5-1.7c-0.2-0.8-0.3-1.3-0.4-1.6c-0.2-0.8-0.5-1.2-1-1.4   l0-0.2l0.5,0.1c0.5,0.1,1,0,1.5-0.2c0.5-0.2,0.8-0.7,1.1-1.4c0.1-0.2,0.2-0.4,0.2-0.6c0.2-1,0.1-1.7-0.2-2.2   c-0.3-0.5-0.8-0.8-1.4-0.9C317,73.7,316.8,73.6,316.5,73.6z"></path>		<path class="st0" d="M334.6,89.4l0.2,0l0,0.2l-5.6-1.3l0-0.2l0.2,0c0.3,0.1,0.5,0,0.6-0.1c0.2-0.1,0.3-0.3,0.3-0.4   c0-0.1,0-0.3,0-0.4l-0.4-2.4l-4.1-0.9l-1.4,1.9c-0.1,0.1-0.2,0.3-0.2,0.4c0,0.1,0,0.3,0.1,0.5c0.1,0.2,0.3,0.3,0.5,0.4l0.1,0   l0,0.2l-3.8-0.9l0-0.2l0.2,0c0.3,0.1,0.6,0,0.9-0.1c0.3-0.1,0.6-0.3,0.8-0.6l6.2-8.2c0.8-1,1.3-1.7,1.4-2.1l0.2,0l2.6,12.6   c0.1,0.4,0.3,0.7,0.5,0.9C334.1,89.1,334.3,89.3,334.6,89.4z M326.2,83.2l3.5,0.8l-0.7-4.7L326.2,83.2z"></path>		<path class="st0" d="M335.1,89.6c0.3,0.1,0.6,0,0.9-0.1c0.3-0.2,0.5-0.4,0.5-0.7l2.5-9.7c0.1-0.3,0-0.6-0.1-0.9s-0.4-0.4-0.7-0.5   l-0.2-0.1l0-0.2l5.3,1.4l-0.1,0.2L343,79c-0.3-0.1-0.6,0-0.9,0.1c-0.3,0.2-0.5,0.4-0.5,0.7l-2.5,9.7c-0.1,0.3,0,0.6,0.1,0.9   s0.4,0.4,0.7,0.5l0.2,0.1l0,0.2l-5.3-1.4l0-0.2L335.1,89.6z"></path>		<path class="st0" d="M341.7,91.3c0.3,0.1,0.6,0.1,0.9-0.1c0.3-0.1,0.5-0.4,0.6-0.7l2.8-9.6c0.1-0.4,0-0.8-0.3-1.1   c-0.1-0.1-0.3-0.2-0.5-0.3l-0.2-0.1l0.1-0.2l6.6,2c0.4,0.1,0.8,0.2,1.2,0.2c0.4,0.1,0.8,0.1,1,0.1l-0.9,3l-0.2-0.1l0.1-0.2   c0.2-0.5,0.1-1-0.1-1.4c-0.2-0.4-0.6-0.7-1.1-0.9l-2.9-0.9l-1.5,5l2.3,0.7c0.4,0.1,0.8,0.1,1.2-0.1s0.6-0.5,0.7-0.9l0-0.2l0.2,0.1   l-1.2,4l-0.2-0.1l0-0.1c0.2-0.6,0.1-1.1-0.3-1.5c-0.2-0.2-0.4-0.3-0.7-0.4L347,87l-1.4,4.9l2.3,0.7c0.8,0.2,1.6,0.2,2.3-0.1   c0.7-0.3,1.3-0.9,1.9-1.7l0.2,0.1l-1.8,3.3l-8.9-2.6l0.1-0.2L341.7,91.3z"></path>		<path class="st0" d="M369.4,87.4c-0.3-0.1-0.6-0.1-0.8,0c-0.3,0.1-0.5,0.3-0.6,0.6l-3,8.8c-0.3,0.8-0.4,1.4-0.5,2l0,0.3l-0.2-0.1   l-5.8-11.1l-2.3,6.8c-0.1,0.3-0.1,0.6,0.1,0.8s0.3,0.5,0.6,0.5l0.3,0.1l-0.1,0.2l-5.2-1.8l0.1-0.2l0.3,0.1c0.3,0.1,0.6,0.1,0.9,0   s0.5-0.3,0.6-0.6l3-8.8c0.3-0.7,0.4-1.4,0.5-1.9l0.1-0.3l0.2,0.1l5.8,11.1l2.3-6.7c0.1-0.3,0.1-0.6-0.1-0.9   c-0.1-0.3-0.3-0.5-0.6-0.6l-0.3-0.1l0.1-0.2l5.2,1.8l-0.1,0.2L369.4,87.4z"></path>		<path class="st0" d="M377.3,91.1l-3.9,9.8c-0.1,0.3-0.1,0.6,0,0.9c0.1,0.3,0.3,0.5,0.6,0.6l0.2,0.1l0,0.2l-5.1-2l0.1-0.2l0.2,0.1   c0.3,0.1,0.6,0.1,0.8,0c0.3-0.1,0.5-0.3,0.6-0.6l3.9-9.8l-2.3-0.9c-0.5-0.2-1-0.2-1.4,0c-0.4,0.2-0.7,0.5-0.9,1l-0.1,0.2l-0.2-0.1   l1.2-2.9c0.1,0.1,0.4,0.3,0.8,0.5c0.4,0.2,0.7,0.4,1.1,0.6l6.7,2.7c0.6,0.2,1,0.3,1.4,0.4c0.4,0.1,0.6,0.1,0.7,0.1l-1.2,2.9   l-0.2-0.1l0.1-0.2c0.2-0.5,0.2-1,0-1.4s-0.5-0.8-1-1L377.3,91.1z"></path>		<path class="st0" d="M382.2,105.8c0.3,0.1,0.6,0.1,0.9,0c0.3-0.1,0.5-0.3,0.7-0.6l4.2-9.1c0.1-0.4,0.1-0.8-0.1-1.1   c-0.1-0.2-0.3-0.3-0.4-0.4l-0.2-0.1l0.1-0.2l6.2,2.9c0.3,0.2,0.7,0.3,1.2,0.4c0.4,0.1,0.7,0.2,0.9,0.2l-1.3,2.9l-0.2-0.1l0.1-0.2   c0.3-0.7,0.3-1.3-0.1-1.8c-0.2-0.3-0.4-0.5-0.7-0.6l-2.7-1.3l-2.2,4.7l2.2,1c0.4,0.2,0.8,0.2,1.2,0c0.4-0.1,0.7-0.4,0.9-0.8   l0.1-0.1l0.2,0.1l-1.8,3.8l-0.2-0.1l0.1-0.1c0.3-0.5,0.2-1-0.1-1.5c-0.2-0.2-0.4-0.4-0.6-0.5l-2.2-1l-2.1,4.6l2.1,1   c0.8,0.4,1.6,0.5,2.3,0.2c0.8-0.2,1.5-0.7,2.1-1.4l0.2,0.1l-2.3,3l-8.4-3.9l0.1-0.2L382.2,105.8z M392.1,95.5l-0.1-0.2   c0.8-0.6,2-1.1,3.6-1.6c0.4,0.5,0.6,1.1,0.5,1.8C394.7,95.8,393.3,95.8,392.1,95.5z"></path>		<path class="st0" d="M403.4,103.2l-4.9,9.4c-0.1,0.3-0.2,0.6-0.1,0.9c0.1,0.3,0.3,0.5,0.6,0.7l0.2,0.1l-0.1,0.2l-4.9-2.5l0.1-0.2   l0.2,0.1c0.3,0.1,0.5,0.2,0.8,0.1c0.3-0.1,0.5-0.3,0.7-0.5l4.9-9.4l-2.2-1.1c-0.5-0.2-1-0.3-1.4-0.1c-0.4,0.1-0.8,0.5-1,0.9   l-0.1,0.2l-0.2-0.1l1.4-2.8c0.1,0.1,0.4,0.3,0.7,0.6c0.4,0.3,0.7,0.5,1,0.7l6.4,3.4c0.5,0.3,1,0.4,1.3,0.5   c0.4,0.1,0.6,0.1,0.7,0.2l-1.4,2.8l-0.2-0.1l0.1-0.2c0.2-0.5,0.3-0.9,0.2-1.4s-0.4-0.8-0.9-1.1L403.4,103.2z"></path>		<path class="st0" d="M402.8,116.1c0.3,0.2,0.6,0.2,0.9,0.1c0.3-0.1,0.5-0.3,0.7-0.5l5-8.7c0.2-0.4,0.2-0.8,0-1.1   c-0.1-0.2-0.2-0.3-0.4-0.4l-0.2-0.1l0.1-0.2l6,3.5c0.3,0.2,0.7,0.4,1.1,0.5c0.4,0.2,0.7,0.3,0.9,0.3l-1.6,2.7l-0.2-0.1l0.1-0.2   c0.3-0.5,0.4-0.9,0.2-1.4c-0.1-0.4-0.4-0.8-0.8-1.1L412,108l-2.6,4.5l2.1,1.2c0.4,0.2,0.8,0.3,1.2,0.2s0.7-0.4,0.9-0.7l0.1-0.1   l0.2,0.1l-2.1,3.6l-0.2-0.1l0.1-0.1c0.3-0.5,0.3-1,0-1.5c-0.1-0.2-0.3-0.4-0.6-0.6l-2.1-1.2l-2.5,4.4l2,1.2   c0.8,0.4,1.5,0.6,2.3,0.5s1.5-0.5,2.2-1.2l0.2,0.1l-2.6,2.8l-8.1-4.7l0.1-0.2L402.8,116.1z"></path>		<path class="st0" d="M412.5,121.8c0.3,0.2,0.5,0.2,0.9,0.1c0.3-0.1,0.5-0.2,0.7-0.5l5.3-8.5c0.2-0.3,0.2-0.6,0.1-0.9   c-0.1-0.3-0.2-0.5-0.5-0.7l-0.2-0.1l0.1-0.2l4.6,2.9l-0.1,0.1l-0.2-0.1c-0.3-0.2-0.5-0.2-0.9-0.2c-0.3,0.1-0.5,0.2-0.7,0.5   l-5.3,8.5c-0.2,0.3-0.2,0.6-0.1,0.9c0.1,0.3,0.2,0.5,0.5,0.7l0.2,0.1l-0.1,0.2l-4.6-2.9l0.1-0.2L412.5,121.8z"></path>		<path class="st0" d="M436.5,123.2c-0.2-0.2-0.5-0.2-0.8-0.2s-0.5,0.2-0.7,0.4l-5.3,7.6c-0.5,0.7-0.8,1.2-1,1.8l-0.1,0.3l-0.1-0.1   l-2.5-12.3l-4.1,5.9c-0.2,0.2-0.2,0.5-0.2,0.8c0.1,0.3,0.2,0.5,0.5,0.7l0.3,0.2l-0.1,0.1l-4.5-3.1l0.1-0.1l0.3,0.2   c0.3,0.2,0.5,0.2,0.8,0.2s0.5-0.2,0.7-0.5l5.3-7.7c0.5-0.6,0.8-1.2,1-1.7l0.1-0.2l0.1,0.1l2.5,12.3l4.1-5.8   c0.2-0.3,0.2-0.5,0.2-0.8c-0.1-0.3-0.2-0.5-0.5-0.7l-0.3-0.2l0.1-0.1l4.5,3.1l-0.1,0.1L436.5,123.2z"></path>		<path class="st0" d="M446.3,132.9c0.3,1.7-0.2,3.2-1.4,4.8c-1.2,1.5-2.7,2.3-4.3,2.4c-1.7,0.1-3.3-0.5-5-1.8l-5.1-4.1l0.1-0.1   l0.2,0.1c0.2,0.2,0.5,0.3,0.8,0.2c0.3,0,0.6-0.2,0.8-0.4l6.3-7.9c0.2-0.2,0.2-0.5,0.2-0.8s-0.2-0.5-0.4-0.7l-0.2-0.1l0.1-0.1   l5.1,4.1C445.1,129.7,446.1,131.2,446.3,132.9z M435.9,137.5c0.7,0.5,1.4,0.8,2.2,0.9c0.8,0,1.6-0.2,2.3-0.6s1.5-1.1,2.2-2   c1.1-1.3,1.6-2.6,1.7-3.9c0-1.2-0.5-2.3-1.5-3.1l-1.7-1.4l-6.9,8.7L435.9,137.5z"></path>		<path class="st0" d="M453.3,137.8l-0.6-0.5c0,0,0,0,0,0l-7.1,7.8c-0.3,0.3-0.4,0.7-0.2,1.1c0.1,0.2,0.2,0.4,0.3,0.5l0.2,0.2   l-0.1,0.1l-4-3.7l0.1-0.1l0.2,0.2c0.3,0.3,0.7,0.4,1.1,0.3c0.2-0.1,0.3-0.2,0.5-0.3l6.7-7.4c0.2-0.2,0.3-0.5,0.3-0.8   s-0.1-0.6-0.4-0.8l-0.2-0.2l0.1-0.1l4.6,4.2c0.9,0.8,1.4,1.6,1.7,2.5c0.1,0.5,0.1,0.9,0,1.4c-0.1,0.5-0.4,1-0.8,1.4   c-0.4,0.4-0.8,0.7-1.3,1c-0.5,0.2-1,0.3-1.6,0.3c-0.6,0-1.1-0.3-1.7-0.6c0.4,0.6,0.5,1.4,0.3,2.4c-0.4,2.4-0.6,4-0.4,4.7   c0.1,0.4,0.3,0.7,0.7,1l-0.1,0.1l-1.3-1.2c-0.8-0.7-1.3-1.4-1.6-2s-0.4-1.4-0.3-2.2c0.1-0.4,0.2-1,0.4-1.7s0.4-1.3,0.5-1.6   c0.2-0.8,0.2-1.3-0.1-1.7l0.1-0.1l0.4,0.4c0.4,0.4,0.9,0.6,1.4,0.6s1.1-0.2,1.7-0.6c0.2-0.2,0.4-0.3,0.5-0.4c0.7-0.7,1-1.4,1-2   c0-0.6-0.2-1.1-0.7-1.5C453.6,138.1,453.5,137.9,453.3,137.8z"></path>		<path class="st0" d="M451.6,152c0.2,0.2,0.5,0.3,0.8,0.3c0.3,0,0.6-0.1,0.8-0.3l7.2-7c0.3-0.3,0.4-0.7,0.3-1.1   c-0.1-0.2-0.2-0.4-0.3-0.5l-0.2-0.2l0.1-0.1l4.8,4.9c0.3,0.3,0.6,0.5,0.9,0.8c0.4,0.3,0.6,0.4,0.8,0.5l-2.3,2.2l-0.1-0.1l0.2-0.2   c0.4-0.4,0.6-0.8,0.6-1.3s-0.2-0.9-0.5-1.3l-2.1-2.2l-3.8,3.7l1.7,1.7c0.3,0.3,0.7,0.5,1.1,0.5c0.4,0,0.8-0.1,1.1-0.4l0.1-0.1   l0.1,0.1l-3,2.9l-0.1-0.1l0.1-0.1c0.4-0.4,0.6-0.9,0.5-1.4c-0.1-0.3-0.2-0.5-0.4-0.7l-1.7-1.7l-3.6,3.5l1.6,1.7   c0.6,0.6,1.3,1,2.1,1.1c0.8,0.1,1.6-0.1,2.5-0.5l0.1,0.1l-3.2,2l-6.5-6.7l0.1-0.1L451.6,152z"></path>	</g>	<g>		<path class="st0" d="M56,265.6c0.2-0.2,0.3-0.5,0.3-0.8s-0.1-0.6-0.4-0.8l-7.5-6.6c-0.2-0.2-0.5-0.3-0.8-0.3   c-0.3,0-0.6,0.1-0.8,0.4l-0.2,0.2l-0.1-0.1l3.6-4.1l0.1,0.1l-0.1,0.2c-0.2,0.2-0.3,0.5-0.3,0.8c0,0.3,0.1,0.6,0.4,0.8l7.9,7   l1.6-1.8c0.6-0.7,0.9-1.4,0.9-2.2c0-0.8-0.2-1.6-0.7-2.4l0.1-0.1l2.2,3.1l-6.2,7l-0.1-0.1L56,265.6z"></path>		<path class="st0" d="M54.6,251.9c0.2-0.6,0.1-1-0.3-1.4c-0.2-0.2-0.6-0.3-1-0.4c-0.4,0-0.8-0.2-1.1-0.4c-0.3-0.3-0.4-0.6-0.4-0.9   c0-0.3,0.1-0.6,0.3-0.8c0.4-0.5,1-0.6,1.6-0.4c0.4,0.1,0.7,0.3,0.8,0.4c0.5,0.5,0.8,1,0.9,1.5c0.2,0.9,0.1,1.7-0.5,2.3   c-0.1,0.1-0.2,0.1-0.2,0.2L54.6,251.9z"></path>		<path class="st0" d="M72.3,248.2l0.1-0.1l0.1,0.1l-4,4.1l-0.1-0.1l0.1-0.1c0.2-0.2,0.3-0.4,0.2-0.6c0-0.2-0.1-0.4-0.2-0.5   c-0.1-0.1-0.2-0.2-0.4-0.2l-2.2-0.9l-2.9,3l0.9,2.2c0.1,0.2,0.2,0.3,0.3,0.4c0.1,0.1,0.2,0.2,0.5,0.2c0.2,0,0.4-0.1,0.6-0.3   l0.1-0.1l0.1,0.1l-2.7,2.8l-0.1-0.1l0.1-0.1c0.2-0.2,0.3-0.5,0.4-0.8c0.1-0.3,0.1-0.7-0.1-1l-3.8-9.6c-0.5-1.2-0.8-2-1.1-2.3   l0.1-0.1l12.1,4.4c0.4,0.1,0.7,0.1,1,0.1S72.1,248.4,72.3,248.2z M62.7,252.1l2.5-2.6l-4.4-1.8L62.7,252.1z"></path>		<path class="st0" d="M84.4,237.1l0.2-0.2l0.1,0.1l-4,3.6l-0.1-0.1l0.2-0.2c0.2-0.1,0.2-0.3,0.2-0.5c0-0.2-0.1-0.4-0.2-0.5   l-4.9-4.4l1.4,6.6c0.2,0.8,0.5,1.5,0.8,1.9l-0.1,0.1l-8.7-2.6l3.8,5.3c0.1,0.2,0.3,0.2,0.5,0.3c0.2,0,0.4,0,0.5-0.2l0.2-0.2   l0.1,0.1l-2.8,2.5l-0.1-0.1l0.2-0.2c0.2-0.2,0.4-0.5,0.4-0.8c0-0.3,0-0.6-0.2-0.9l-6.7-9.5l0.1-0.1l10.3,3l-2.2-10.4l0.1-0.1   l8.9,7.5c0.3,0.2,0.6,0.3,0.9,0.3S84.2,237.3,84.4,237.1z"></path>		<path class="st0" d="M82.5,222.4c1.7-1.4,3.5-2,5.2-1.9s3.3,0.9,4.5,2.5c1.3,1.6,1.8,3.2,1.5,5c-0.3,1.7-1.3,3.3-3,4.7   c-1.7,1.4-3.5,2-5.2,1.9c-1.8-0.1-3.3-0.9-4.5-2.5c-0.8-1-1.3-2.1-1.5-3.3c-0.2-1.1,0-2.3,0.5-3.4   C80.5,224.3,81.3,223.3,82.5,222.4z M86.8,232.8c1.3,0.3,2.4,0.1,3.4-0.8c1-0.8,1.5-1.9,1.5-3.2c0-1.3-0.6-2.6-1.8-4   c-0.7-0.9-1.5-1.6-2.3-2.1c-0.8-0.5-1.6-0.7-2.4-0.6s-1.5,0.3-2.2,0.9c-1,0.8-1.5,1.9-1.5,3.2s0.6,2.6,1.8,4   S85.6,232.4,86.8,232.8z"></path>		<path class="st0" d="M100.7,209.3l-0.2,0.2c-0.2,0.1-0.3,0.3-0.4,0.6c-0.1,0.2,0,0.5,0.1,0.7l4.1,5.7c0.9,1.2,1.2,2.4,0.9,3.7   c-0.2,1.2-1,2.3-2.3,3.3c-1.5,1.1-3,1.6-4.3,1.5s-2.4-0.8-3.3-2l-4.1-5.7c-0.2-0.2-0.4-0.3-0.6-0.4s-0.5,0-0.7,0.2l-0.2,0.2   l-0.1-0.1l4.2-3l0.1,0.1l-0.2,0.2c-0.2,0.2-0.3,0.3-0.4,0.6c-0.1,0.2,0,0.5,0.1,0.7l4,5.6c0.7,1,1.6,1.7,2.5,1.9   c0.9,0.2,1.9,0,2.7-0.6c0.9-0.6,1.4-1.4,1.5-2.4c0.1-0.9-0.2-1.9-0.9-2.9l-4.1-5.8c-0.1-0.2-0.3-0.3-0.6-0.3s-0.5,0-0.7,0.2   l-0.2,0.2l-0.1-0.1l3.1-2.2L100.7,209.3z"></path>		<path class="st0" d="M106.6,206.3l-0.7,0.4c0,0,0,0,0,0l5.7,8.8c0.2,0.4,0.6,0.5,1,0.5c0.2,0,0.4-0.1,0.6-0.2l0.2-0.1l0.1,0.2   l-4.6,3l-0.1-0.2l0.2-0.1c0.4-0.2,0.5-0.6,0.5-1c0-0.2-0.1-0.4-0.2-0.6l-5.4-8.4c-0.2-0.3-0.4-0.4-0.7-0.5c-0.3-0.1-0.6,0-0.9,0.2   l-0.2,0.1l-0.1-0.2l5.2-3.3c1-0.6,1.9-0.9,2.9-1c0.5,0,0.9,0.1,1.4,0.4s0.8,0.6,1.1,1.1s0.5,1,0.6,1.5s0,1-0.2,1.6   c-0.2,0.6-0.5,1-1.1,1.4c0.7-0.2,1.5-0.1,2.4,0.3c2.2,1,3.7,1.6,4.4,1.6c0.4,0,0.7-0.1,1.1-0.4l0.1,0.2l-1.5,1   c-0.9,0.6-1.7,0.9-2.4,1c-0.7,0.1-1.5,0-2.2-0.3c-0.4-0.2-0.9-0.5-1.5-0.9c-0.7-0.4-1.1-0.7-1.4-0.9c-0.7-0.4-1.2-0.5-1.7-0.4   l-0.1-0.2l0.5-0.3c0.5-0.3,0.8-0.7,0.9-1.2s0.1-1.1-0.2-1.8c-0.1-0.2-0.2-0.4-0.3-0.5c-0.5-0.8-1.1-1.3-1.7-1.5   c-0.6-0.2-1.1-0.1-1.7,0.3C106.9,206,106.8,206.1,106.6,206.3z"></path>		<path class="st0" d="M121.1,213.2c0.4-0.5,0.4-0.9,0.1-1.4c-0.2-0.3-0.4-0.5-0.8-0.6c-0.4-0.1-0.7-0.4-0.9-0.7s-0.2-0.6-0.2-0.9   c0.1-0.3,0.2-0.5,0.5-0.7c0.5-0.3,1.1-0.3,1.6,0.1c0.3,0.2,0.5,0.4,0.6,0.6c0.3,0.6,0.5,1.1,0.5,1.6c0,0.9-0.4,1.6-1.1,2   c-0.1,0-0.2,0.1-0.3,0.1L121.1,213.2z"></path>		<path class="st0" d="M132.6,192.3c1.6,0.4,2.9,1.5,3.8,3.2s1.1,3.4,0.5,4.9c-0.6,1.6-1.8,2.9-3.7,3.9l-5.8,3.1l-0.1-0.2l0.2-0.1   c0.3-0.1,0.5-0.4,0.6-0.7c0.1-0.3,0.1-0.6-0.1-0.9l-4.7-8.9c-0.2-0.2-0.4-0.4-0.7-0.5c-0.3-0.1-0.6,0-0.8,0.1l-0.2,0.1l-0.1-0.2   l5.8-3.1C129.2,192.2,131,191.9,132.6,192.3z M132.7,203.7c0.8-0.4,1.3-1,1.7-1.6c0.3-0.7,0.5-1.5,0.4-2.4   c-0.1-0.9-0.4-1.8-0.9-2.8c-0.8-1.5-1.8-2.5-2.9-3.1s-2.3-0.5-3.4,0.1l-2,1l5.2,9.8L132.7,203.7z"></path>		<path class="st0" d="M140.4,200.4c0.3-0.1,0.5-0.3,0.6-0.6c0.1-0.3,0.1-0.6,0-0.9l-4.3-9.1c-0.2-0.4-0.5-0.6-0.9-0.6   c-0.2,0-0.4,0-0.6,0.1l-0.2,0.1l-0.1-0.2l6.2-2.9c0.3-0.2,0.7-0.4,1.1-0.6c0.4-0.3,0.6-0.5,0.8-0.6l1.3,2.9l-0.2,0.1l-0.1-0.2   c-0.2-0.5-0.6-0.8-1-1s-0.9-0.1-1.4,0.1l-2.7,1.3l2.2,4.7l2.2-1c0.4-0.2,0.7-0.5,0.8-0.9s0.1-0.8-0.1-1.2l-0.1-0.1l0.2-0.1   l1.8,3.8l-0.2,0.1l-0.1-0.1c-0.3-0.5-0.7-0.8-1.2-0.9c-0.3,0-0.5,0-0.8,0.1l-2.2,1l2.1,4.6l2.1-1c0.8-0.4,1.4-0.9,1.7-1.6   c0.3-0.7,0.4-1.5,0.3-2.5l0.2-0.1l0.8,3.7l-8.4,4l-0.1-0.2L140.4,200.4z"></path>		<path class="st0" d="M149.9,194.3c-0.3-0.8-0.5-1.5-0.3-2.3l0.1-0.1c0,0.1,0.1,0.2,0.1,0.3c0.3,0.8,0.9,1.3,1.7,1.7   c0.8,0.3,1.7,0.3,2.6-0.1c0.7-0.3,1.2-0.7,1.5-1.3c0.3-0.5,0.3-1.1,0.1-1.6c-0.3-0.7-1-1-2-1.2l-3.7-0.7c-0.7-0.1-1.3-0.3-1.7-0.7   s-0.8-0.8-1-1.3c-0.4-1-0.4-2,0-2.8c0.4-0.8,1.1-1.5,2.2-1.9c0.6-0.3,1.4-0.5,2.3-0.8l1-0.4l0.8,2.5l-0.2,0.1   c-0.2-0.6-0.6-0.9-1.2-1.1c-0.6-0.2-1.2-0.1-1.9,0.2c-0.9,0.4-1.4,0.9-1.5,1.6c-0.1,0.3-0.1,0.7,0.1,1c0.2,0.5,0.8,0.9,1.8,1   l4,0.7c1.2,0.2,2.1,0.8,2.6,1.9c0.5,1.2,0.5,2.3-0.1,3.2c-0.5,1-1.5,1.7-2.8,2.3c-0.8,0.3-1.5,0.5-2.2,0.6s-1.3,0-1.7-0.1   C150.2,194.9,150,194.6,149.9,194.3z"></path>		<path class="st0" d="M164.1,177.7l1.7,5l2.3-0.7c0.4-0.2,0.7-0.4,0.9-0.8s0.2-0.8,0.1-1.2l-0.1-0.2l0.2-0.1l1.3,3.9l-0.2,0.1   l0-0.1c-0.1-0.4-0.4-0.7-0.7-0.9s-0.8-0.2-1.2-0.1l-2.3,0.8l1.4,4.3c0.1,0.4,0.4,0.7,0.9,0.8c0.2,0,0.4,0,0.6,0l0.2-0.1l0.1,0.2   l-5.2,1.7l-0.1-0.2l0.2-0.1c0.3-0.1,0.5-0.3,0.7-0.6c0.1-0.3,0.2-0.6,0.1-0.9l-3.2-9.5c-0.1-0.3-0.3-0.5-0.6-0.6s-0.6-0.1-0.8-0.1   l-0.2,0.1l-0.1-0.2l6.5-2.2c0.6-0.2,1-0.4,1.3-0.6c0.3-0.2,0.5-0.3,0.6-0.4l1,2.9l-0.2,0.1l-0.1-0.2c-0.2-0.5-0.4-0.9-0.8-1.1   s-0.8-0.2-1.3-0.1L164.1,177.7z M174.3,186.6c0.3-0.1,0.5-0.3,0.7-0.6c0.1-0.3,0.2-0.6,0.1-0.9l-3.1-9.5c-0.1-0.3-0.3-0.5-0.6-0.6   s-0.6-0.2-0.9-0.1l-0.2,0.1l-0.1-0.2l5.2-1.7l0,0.2l-0.2,0.1c-0.4,0.1-0.7,0.4-0.8,0.8c0,0.2,0,0.4,0,0.6l3.3,10l2.2-0.7   c0.8-0.3,1.4-0.7,1.9-1.4c0.4-0.7,0.6-1.5,0.6-2.5l0.2-0.1l0.4,3.7l-8.8,2.9l-0.1-0.2L174.3,186.6z"></path>		<path class="st0" d="M184.6,183.4c0.3-0.1,0.5-0.3,0.7-0.5c0.2-0.3,0.2-0.6,0.1-0.9l-2.6-9.7c-0.1-0.4-0.4-0.6-0.8-0.8   c-0.2,0-0.4,0-0.6,0l-0.2,0.1l0-0.2l6.7-1.8c0.4-0.1,0.7-0.2,1.2-0.4c0.4-0.2,0.7-0.3,0.9-0.4l0.8,3l-0.2,0l-0.1-0.2   c-0.1-0.5-0.4-0.9-0.8-1.1s-0.9-0.3-1.4-0.2l-2.9,0.8l1.3,5.1l2.3-0.6c0.4-0.1,0.7-0.4,0.9-0.7c0.2-0.4,0.2-0.7,0.1-1.2l0-0.2   l0.2,0l1.1,4l-0.2,0l0-0.1c-0.2-0.6-0.5-0.9-1-1.1c-0.3-0.1-0.5-0.1-0.8,0l-2.3,0.6l1.3,4.9l2.3-0.6c0.8-0.2,1.5-0.7,1.9-1.3   c0.4-0.6,0.7-1.4,0.7-2.4l0.2,0l0.1,3.8l-9,2.4l0-0.2L184.6,183.4z"></path>		<path class="st0" d="M205.8,165.9l-0.3,0.1c-0.2,0.1-0.4,0.2-0.6,0.4c-0.1,0.2-0.2,0.4-0.1,0.6l1.4,6.9c0.3,1.4,0.1,2.7-0.6,3.7   c-0.7,1-1.9,1.7-3.4,2.1c-1.9,0.4-3.4,0.3-4.5-0.3c-1.2-0.6-1.9-1.7-2.2-3.1l-1.4-6.8c-0.1-0.3-0.2-0.5-0.4-0.6   c-0.2-0.1-0.5-0.2-0.7-0.1l-0.3,0.1l0-0.2l5.1-1.1l0,0.2l-0.3,0.1c-0.3,0.1-0.5,0.2-0.6,0.4c-0.1,0.2-0.2,0.4-0.2,0.7l1.4,6.7   c0.3,1.2,0.8,2.2,1.5,2.8c0.8,0.6,1.7,0.8,2.7,0.6c1.1-0.2,1.8-0.7,2.3-1.6c0.5-0.8,0.6-1.8,0.4-3l-1.5-7   c-0.1-0.2-0.2-0.4-0.4-0.6c-0.2-0.1-0.5-0.2-0.7-0.1l-0.3,0.1l0-0.2l3.7-0.8L205.8,165.9z"></path>		<path class="st0" d="M220.3,163.6l-0.2,0c-0.3,0-0.5,0.2-0.8,0.4c-0.2,0.2-0.4,0.5-0.6,0.9l-2.8,10c-0.4,1.3-0.5,2.1-0.5,2.5   l-0.2,0l-7.2-10.8c-0.2-0.3-0.5-0.5-0.8-0.7s-0.6-0.2-0.9-0.1l-0.1,0l0-0.2l5.7-0.9l0,0.2l-0.1,0c-0.3,0-0.4,0.2-0.5,0.3   c-0.1,0.2-0.1,0.3-0.1,0.5c0,0.1,0.1,0.3,0.1,0.4l4.2,6.9l2-7.8c0-0.2,0-0.3,0-0.4c0-0.1-0.1-0.3-0.3-0.4s-0.4-0.2-0.6-0.2l-0.2,0   l0-0.2l3.8-0.6L220.3,163.6z"></path>		<path class="st0" d="M222.5,175.7c0.3,0,0.6-0.2,0.8-0.4s0.3-0.5,0.3-0.8l-1.1-10c-0.1-0.4-0.3-0.7-0.7-0.9   c-0.2-0.1-0.4-0.1-0.6-0.1l-0.2,0l0-0.2l6.9-0.7c0.4,0,0.8-0.1,1.2-0.2c0.4-0.1,0.7-0.2,0.9-0.3l0.3,3.1l-0.2,0l0-0.2   c-0.1-0.5-0.3-1-0.6-1.2s-0.8-0.4-1.3-0.4l-3,0.3l0.6,5.2l2.4-0.3c0.4-0.1,0.8-0.2,1-0.6c0.3-0.3,0.4-0.7,0.3-1.1l0-0.2l0.2,0   l0.4,4.1l-0.2,0l0-0.1c-0.1-0.6-0.3-1-0.9-1.2c-0.3-0.1-0.5-0.1-0.8-0.1l-2.4,0.3l0.5,5l2.3-0.2c0.9-0.1,1.6-0.4,2.1-1   c0.5-0.6,0.9-1.3,1.1-2.3l0.2,0l-0.4,3.7l-9.3,1l0-0.2L222.5,175.7z"></path>		<path class="st0" d="M233.5,173.1c-0.1-0.9,0.1-1.6,0.4-2.2l0.2,0c0,0.1,0,0.2,0,0.3c0.1,0.8,0.4,1.5,1,2.1s1.5,0.8,2.5,0.8   c0.8-0.1,1.4-0.3,1.8-0.7c0.4-0.4,0.6-0.9,0.6-1.5c0-0.7-0.6-1.3-1.6-1.8l-3.3-1.9c-0.6-0.3-1.1-0.7-1.4-1.2   c-0.3-0.5-0.5-1-0.5-1.5c-0.1-1.1,0.2-2,0.9-2.7c0.7-0.7,1.6-1,2.7-1.1c0.7,0,1.5,0,2.5,0l1.1-0.1l-0.1,2.7l-0.2,0   c0-0.6-0.3-1.1-0.8-1.5c-0.5-0.3-1.1-0.5-1.9-0.4c-0.9,0.1-1.6,0.4-2,1c-0.2,0.3-0.3,0.6-0.3,1c0,0.6,0.5,1.1,1.4,1.5l3.6,2   c1.1,0.6,1.7,1.4,1.8,2.6c0.1,1.3-0.3,2.3-1.1,3c-0.8,0.7-2,1.1-3.4,1.2c-0.8,0.1-1.6,0-2.3-0.2c-0.7-0.2-1.2-0.4-1.6-0.7   C233.6,173.7,233.5,173.4,233.5,173.1z"></path>		<path class="st0" d="M262.3,161.7c-0.3,0-0.6,0.1-0.8,0.3c-0.2,0.2-0.3,0.5-0.4,0.8L261,172c0,0.8,0,1.5,0.1,2l0,0.3l-0.2,0   l-8.9-8.8l-0.1,7.1c0,0.3,0.1,0.6,0.3,0.8c0.2,0.2,0.5,0.3,0.8,0.3l0.3,0l0,0.2l-5.5-0.1l0-0.2l0.3,0c0.3,0,0.6-0.1,0.8-0.3   c0.2-0.2,0.3-0.5,0.3-0.8l0.2-9.3c0-0.8,0-1.5-0.1-2l0-0.3l0.2,0l8.9,8.8l0.1-7.1c0-0.3-0.1-0.6-0.3-0.8c-0.2-0.2-0.5-0.3-0.8-0.3   l-0.3,0l0-0.2l5.5,0.1l0,0.2L262.3,161.7z"></path>		<path class="st0" d="M263.5,173.9c0.3,0,0.6-0.1,0.8-0.3c0.2-0.2,0.4-0.5,0.4-0.8l0.6-10c0-0.4-0.2-0.7-0.5-1   c-0.2-0.1-0.4-0.2-0.5-0.2l-0.2,0l0-0.2l6.9,0.4c0.4,0,0.8,0,1.2,0c0.4,0,0.8-0.1,0.9-0.2l-0.2,3.1l-0.2,0l0-0.2   c0-0.5-0.1-1-0.4-1.3s-0.7-0.5-1.3-0.6l-3-0.2l-0.3,5.2l2.4,0.1c0.4,0,0.8-0.1,1.1-0.4c0.3-0.3,0.5-0.6,0.5-1.1l0-0.2l0.2,0   l-0.2,4.2l-0.2,0l0-0.1c0-0.6-0.2-1.1-0.6-1.4c-0.2-0.1-0.5-0.2-0.8-0.3l-2.4-0.1l-0.3,5l2.4,0.1c0.9,0.1,1.6-0.2,2.2-0.6   c0.6-0.5,1.1-1.2,1.4-2.1l0.2,0l-1,3.6l-9.3-0.5l0-0.2L263.5,173.9z"></path>		<path class="st0" d="M279.3,173.5c0.1-0.9,0.4-1.6,0.8-2.1l0.2,0c0,0.1,0,0.2-0.1,0.3c-0.1,0.8,0.1,1.6,0.6,2.3   c0.5,0.7,1.3,1.1,2.3,1.2c0.8,0.1,1.4,0,1.9-0.4c0.5-0.3,0.8-0.8,0.8-1.4c0.1-0.7-0.3-1.4-1.2-2l-2.9-2.4c-0.6-0.4-1-0.9-1.2-1.5   c-0.2-0.5-0.3-1.1-0.2-1.6c0.1-1.1,0.6-1.9,1.4-2.5c0.8-0.5,1.7-0.7,2.8-0.6c0.7,0.1,1.5,0.2,2.4,0.5l1.1,0.1l-0.5,2.6l-0.2,0   c0.1-0.6-0.1-1.1-0.5-1.6s-1-0.7-1.8-0.8c-0.9-0.1-1.6,0.1-2.1,0.6c-0.2,0.2-0.4,0.5-0.4,0.9c-0.1,0.6,0.3,1.2,1.1,1.7l3.2,2.6   c1,0.7,1.4,1.7,1.3,2.9c-0.2,1.3-0.7,2.2-1.6,2.8c-0.9,0.6-2.1,0.8-3.6,0.6c-0.8-0.1-1.5-0.3-2.2-0.6c-0.7-0.3-1.1-0.6-1.4-1   C279.2,174.1,279.2,173.9,279.3,173.5z"></path>		<path class="st0" d="M301.5,178.3l0.2,0l0,0.2l-5.7-0.9l0-0.2l0.2,0c0.3,0,0.5,0,0.6-0.1c0.2-0.1,0.2-0.3,0.3-0.4   c0-0.1,0-0.3,0-0.4l-0.5-2.3l-4.2-0.7l-1.3,2c-0.1,0.1-0.1,0.3-0.2,0.4c0,0.1,0,0.3,0.1,0.5c0.1,0.2,0.3,0.3,0.6,0.3l0.1,0l0,0.2   l-3.8-0.6l0-0.2l0.2,0c0.3,0,0.6,0,0.9-0.1s0.6-0.3,0.8-0.6l5.6-8.6c0.7-1.1,1.2-1.8,1.3-2.2l0.2,0l3.4,12.4   c0.1,0.4,0.3,0.7,0.5,0.9C301,178.1,301.2,178.2,301.5,178.3z M292.8,172.7l3.6,0.6l-1-4.7L292.8,172.7z"></path>		<path class="st0" d="M316.8,169.1l-0.3-0.1c-0.2-0.1-0.5,0-0.7,0.1c-0.2,0.1-0.3,0.3-0.4,0.5l-1.5,6.9c-0.3,1.4-1,2.5-2.1,3.1   s-2.4,0.8-4,0.5c-1.9-0.4-3.2-1.1-4-2.2c-0.8-1-1-2.3-0.7-3.8l1.5-6.8c0.1-0.3,0-0.5-0.1-0.7c-0.1-0.2-0.3-0.3-0.6-0.4l-0.3-0.1   l0-0.2l5.1,1.1l0,0.2l-0.3-0.1c-0.3-0.1-0.5,0-0.7,0.1c-0.2,0.1-0.3,0.3-0.4,0.5l-1.5,6.7c-0.3,1.2-0.2,2.3,0.3,3.2   c0.5,0.9,1.2,1.4,2.3,1.6c1.1,0.2,2,0.1,2.8-0.5s1.3-1.4,1.6-2.6l1.5-6.9c0.1-0.2,0-0.5-0.1-0.7c-0.1-0.2-0.3-0.3-0.6-0.4   l-0.3-0.1l0-0.2l3.7,0.8L316.8,169.1z"></path>		<path class="st0" d="M323,171.4l-0.7-0.2c0,0,0,0-0.1,0l-2.8,10.1c-0.1,0.4,0,0.8,0.3,1.1c0.1,0.1,0.3,0.2,0.5,0.3l0.2,0.1l0,0.2   l-5.3-1.4l0-0.2l0.2,0.1c0.4,0.1,0.8,0,1.1-0.3c0.1-0.1,0.2-0.3,0.3-0.5l2.6-9.6c0.1-0.3,0-0.6-0.1-0.9c-0.2-0.3-0.4-0.5-0.7-0.5   l-0.2-0.1l0-0.2l6,1.6c1.1,0.3,2,0.8,2.6,1.5c0.3,0.4,0.5,0.8,0.7,1.3c0.1,0.5,0.1,1-0.1,1.6c-0.2,0.5-0.4,1-0.7,1.4   c-0.3,0.4-0.7,0.7-1.3,1c-0.5,0.2-1.1,0.3-1.8,0.2c0.6,0.4,1.1,1.1,1.4,2c0.7,2.3,1.3,3.8,1.8,4.3c0.2,0.3,0.6,0.5,1,0.6l0,0.2   l-1.7-0.5c-1-0.3-1.8-0.6-2.4-1.1s-1-1.1-1.2-1.8c-0.1-0.4-0.2-1-0.4-1.7c-0.1-0.8-0.2-1.3-0.2-1.6c-0.1-0.8-0.4-1.3-0.9-1.5   l0-0.2l0.5,0.1c0.5,0.1,1,0.1,1.5-0.1c0.5-0.2,0.9-0.6,1.2-1.3c0.1-0.2,0.2-0.4,0.2-0.6c0.3-0.9,0.3-1.7,0-2.2   c-0.3-0.5-0.7-0.9-1.3-1.1C323.4,171.5,323.3,171.5,323,171.4z"></path>		<path class="st0" d="M339.7,188.7l0.2,0.1l-0.1,0.2l-5.5-1.8l0.1-0.2l0.2,0.1c0.3,0.1,0.5,0.1,0.6,0s0.3-0.2,0.3-0.4   s0.1-0.3,0-0.4l-0.1-2.4l-4-1.3l-1.6,1.8c-0.1,0.1-0.2,0.3-0.2,0.4s0,0.3,0,0.5s0.2,0.3,0.5,0.4l0.1,0l-0.1,0.2l-3.7-1.2l0.1-0.2   l0.2,0.1c0.3,0.1,0.6,0.1,0.9,0s0.6-0.2,0.9-0.5l6.9-7.6c0.9-1,1.4-1.6,1.6-2l0.2,0.1l1.4,12.8c0.1,0.4,0.2,0.7,0.4,1   C339.2,188.4,339.4,188.6,339.7,188.7z M331.9,181.8l3.4,1.1l-0.3-4.8L331.9,181.8z"></path>		<path class="st0" d="M340.1,188.9c0.3,0.1,0.6,0.1,0.9,0s0.5-0.3,0.6-0.6l3.5-9.4c0.1-0.3,0.1-0.6-0.1-0.9   c-0.1-0.3-0.3-0.5-0.6-0.6l-0.2-0.1l0.1-0.2l5.1,1.9l-0.1,0.2l-0.2-0.1c-0.3-0.1-0.6-0.1-0.9,0c-0.3,0.1-0.5,0.3-0.6,0.6l-3.5,9.4   c-0.1,0.3-0.1,0.6,0,0.9c0.1,0.3,0.4,0.5,0.6,0.6l0.2,0.1l0,0.2l-5.1-1.9l0.1-0.2L340.1,188.9z"></path>		<path class="st0" d="M346.5,191.3c0.3,0.1,0.6,0.1,0.9,0s0.5-0.3,0.6-0.6l3.8-9.3c0.1-0.4,0.1-0.8-0.2-1.1   c-0.1-0.2-0.3-0.3-0.5-0.3l-0.2-0.1l0.1-0.2l6.4,2.6c0.3,0.1,0.7,0.3,1.2,0.4c0.4,0.1,0.8,0.2,0.9,0.2l-1.2,2.9l-0.2-0.1l0.1-0.2   c0.2-0.5,0.2-1,0.1-1.4s-0.5-0.8-1-1l-2.8-1.1l-2,4.8l2.2,0.9c0.4,0.2,0.8,0.2,1.2,0c0.4-0.2,0.6-0.4,0.8-0.8l0.1-0.1l0.2,0.1   l-1.6,3.8l-0.2-0.1l0.1-0.1c0.2-0.6,0.2-1.1-0.2-1.5c-0.2-0.2-0.4-0.4-0.7-0.5l-2.2-0.9l-1.9,4.7l2.2,0.9c0.8,0.3,1.6,0.4,2.3,0.1   c0.7-0.2,1.4-0.7,2-1.5l0.2,0.1l-2.2,3.1l-8.6-3.5l0.1-0.2L346.5,191.3z"></path>		<path class="st0" d="M374.5,190.3c-0.3-0.1-0.5-0.1-0.8,0c-0.3,0.1-0.5,0.3-0.6,0.5l-3.9,8.4c-0.3,0.7-0.6,1.4-0.7,1.9l-0.1,0.3   l-0.1-0.1l-4.5-11.7l-3,6.5c-0.1,0.3-0.1,0.5,0,0.8c0.1,0.3,0.3,0.5,0.6,0.6l0.3,0.1l-0.1,0.2l-4.9-2.3l0.1-0.2l0.3,0.1   c0.3,0.1,0.6,0.2,0.9,0.1c0.3-0.1,0.5-0.3,0.6-0.6l4-8.5c0.3-0.7,0.6-1.3,0.7-1.9l0.1-0.3l0.1,0.1l4.5,11.7l3-6.4   c0.1-0.3,0.1-0.6,0-0.9c-0.1-0.3-0.3-0.5-0.6-0.6l-0.3-0.1l0.1-0.2l4.9,2.3l-0.1,0.2L374.5,190.3z"></path>		<path class="st0" d="M382,194.9l-5,9.3c-0.1,0.3-0.2,0.6-0.1,0.9c0.1,0.3,0.3,0.5,0.6,0.7l0.2,0.1l-0.1,0.2l-4.8-2.6l0.1-0.2   l0.2,0.1c0.3,0.1,0.5,0.2,0.8,0.1s0.5-0.3,0.7-0.5l5-9.3l-2.1-1.1c-0.5-0.2-1-0.3-1.4-0.2c-0.4,0.1-0.8,0.5-1,0.9l-0.1,0.2   l-0.2-0.1l1.5-2.8c0.1,0.1,0.3,0.3,0.7,0.6s0.7,0.5,1,0.7l6.4,3.4c0.5,0.3,1,0.4,1.3,0.6c0.4,0.1,0.6,0.2,0.7,0.2l-1.5,2.8   l-0.2-0.1l0.1-0.2c0.3-0.5,0.3-0.9,0.2-1.4s-0.4-0.8-0.9-1.1L382,194.9z"></path>		<path class="st0" d="M385.1,210.1c0.3,0.2,0.6,0.2,0.9,0.1c0.3-0.1,0.5-0.2,0.7-0.5l5.2-8.5c0.2-0.3,0.2-0.6,0.1-0.9   c-0.1-0.3-0.2-0.5-0.5-0.7l-0.2-0.1l0.1-0.2l4.7,2.9l-0.1,0.1l-0.2-0.1c-0.3-0.2-0.6-0.2-0.9-0.1s-0.5,0.2-0.7,0.5l-5.5,9l2,1.2   c0.7,0.5,1.5,0.6,2.3,0.5s1.5-0.5,2.2-1.1l0.2,0.1l-2.6,2.7l-8-4.9l0.1-0.2L385.1,210.1z"></path>		<path class="st0" d="M394.4,215.8c0.3,0.2,0.5,0.2,0.9,0.2c0.3-0.1,0.6-0.2,0.7-0.5l5.6-8.3c0.2-0.4,0.2-0.7,0-1.1   c-0.1-0.2-0.2-0.3-0.4-0.4l-0.2-0.1l0.1-0.1l5.7,3.8c0.3,0.2,0.7,0.4,1.1,0.6c0.4,0.2,0.7,0.3,0.9,0.3l-1.8,2.6l-0.1-0.1l0.1-0.2   c0.3-0.4,0.4-0.9,0.3-1.3c-0.1-0.5-0.3-0.8-0.8-1.2l-2.5-1.7l-2.9,4.4l2,1.3c0.4,0.2,0.8,0.3,1.2,0.2s0.7-0.3,1-0.7l0.1-0.1   l0.2,0.1l-2.3,3.5l-0.1-0.1l0.1-0.1c0.3-0.5,0.4-1,0.1-1.5c-0.1-0.2-0.3-0.5-0.5-0.6l-2-1.3l-2.8,4.2l2,1.3   c0.7,0.5,1.5,0.7,2.3,0.6c0.8-0.1,1.5-0.4,2.3-1l0.1,0.1l-2.7,2.6l-7.7-5.2l0.1-0.2L394.4,215.8z"></path>		<path class="st0" d="M425.7,223.3c-0.2-0.2-0.5-0.3-0.8-0.2c-0.3,0-0.5,0.2-0.7,0.4l-5.7,7.4c-0.5,0.6-0.9,1.2-1.1,1.7l-0.1,0.2   l-0.1-0.1l-1.9-12.4l-4.4,5.7c-0.2,0.2-0.3,0.5-0.2,0.8s0.2,0.5,0.4,0.7l0.3,0.2l-0.1,0.1l-4.3-3.3l0.1-0.1l0.3,0.2   c0.2,0.2,0.5,0.3,0.8,0.2c0.3,0,0.5-0.2,0.7-0.4l5.7-7.4c0.5-0.6,0.8-1.2,1.1-1.7l0.1-0.2l0.1,0.1l1.9,12.4l4.3-5.6   c0.2-0.3,0.2-0.5,0.2-0.8c0-0.3-0.2-0.5-0.4-0.7l-0.3-0.2l0.1-0.1l4.3,3.3l-0.1,0.1L425.7,223.3z"></path>		<path class="st0" d="M432.8,228.8c1.7,1.5,2.6,3.1,2.8,4.8c0.2,1.7-0.3,3.4-1.7,4.9s-2.9,2.3-4.6,2.3c-1.8,0-3.5-0.7-5.2-2.1   c-1.7-1.5-2.6-3.1-2.8-4.8c-0.2-1.7,0.3-3.4,1.7-4.9c0.9-1,1.9-1.7,3-2c1.1-0.4,2.2-0.4,3.4-0.1S431.7,227.9,432.8,228.8z    M423.4,234.9c-0.1,1.3,0.4,2.4,1.4,3.2c1,0.9,2.1,1.2,3.4,0.9s2.5-1.1,3.7-2.4c0.8-0.9,1.3-1.8,1.6-2.7c0.3-0.9,0.4-1.7,0.2-2.5   c-0.2-0.8-0.6-1.5-1.3-2c-1-0.9-2.1-1.2-3.4-0.9s-2.5,1.1-3.7,2.4C424.1,232.3,423.5,233.6,423.4,234.9z"></path>		<path class="st0" d="M447.9,243.4l-0.2-0.2c-0.3-0.2-0.6-0.4-1-0.5c-0.4-0.1-0.7-0.1-1.1,0l-6.5,1.6l-3.1,3.2   c-0.2,0.2-0.3,0.5-0.3,0.8s0.1,0.6,0.4,0.8l0.2,0.1l-0.1,0.1l-3.9-3.8l0.1-0.1l0.2,0.2c0.2,0.2,0.5,0.3,0.8,0.3s0.6-0.1,0.8-0.3   l3.1-3.2l1.4-6.5c0.1-0.3,0.1-0.7,0-1.1c-0.1-0.4-0.3-0.7-0.5-0.9l-0.2-0.2l0.1-0.1l4.3,4.1l-0.1,0.1l-0.2-0.2   c-0.2-0.2-0.4-0.2-0.7-0.2c-0.1,0-0.3,0.1-0.3,0.2c-0.1,0.1-0.2,0.2-0.2,0.3l-1.4,5.2l5.2-1.5c0.1,0,0.2-0.1,0.3-0.2   c0.1-0.1,0.1-0.2,0.2-0.4c0.1-0.3,0-0.5-0.2-0.7l-0.2-0.1l0.1-0.1l3.1,3L447.9,243.4z"></path>		<path class="st0" d="M439.5,252.4c0.2,0.2,0.5,0.3,0.8,0.4c0.3,0,0.6-0.1,0.8-0.3l7.3-6.9c0.3-0.3,0.4-0.7,0.3-1.1   c-0.1-0.2-0.1-0.4-0.3-0.5l-0.2-0.2l0.1-0.1l4.7,5c0.3,0.3,0.6,0.5,0.9,0.8c0.4,0.3,0.6,0.4,0.8,0.5l-2.3,2.2l-0.1-0.1l0.2-0.1   c0.4-0.4,0.6-0.8,0.6-1.2c0-0.5-0.1-0.9-0.5-1.3l-2.1-2.2l-3.8,3.6l1.6,1.7c0.3,0.3,0.7,0.5,1.1,0.5c0.4,0,0.8-0.1,1.1-0.4   l0.1-0.1l0.1,0.1l-3,2.9l-0.1-0.1l0.1-0.1c0.4-0.4,0.6-0.9,0.5-1.4c-0.1-0.3-0.2-0.5-0.4-0.7l-1.6-1.7l-3.7,3.5l1.6,1.7   c0.6,0.6,1.3,1,2.1,1.1s1.6-0.1,2.5-0.5l0.1,0.1l-3.2,1.9l-6.4-6.8l0.1-0.1L439.5,252.4z"></path>		<path class="st0" d="M459.1,256.5l-0.5-0.6c0,0,0,0,0,0l-8,6.8c-0.3,0.3-0.5,0.7-0.4,1.1c0,0.2,0.1,0.4,0.3,0.5l0.2,0.2l-0.1,0.1   l-3.6-4.1l0.1-0.1l0.2,0.2c0.3,0.3,0.6,0.5,1.1,0.4c0.2,0,0.4-0.1,0.5-0.2l7.6-6.5c0.2-0.2,0.4-0.5,0.4-0.8c0-0.3-0.1-0.6-0.3-0.8   l-0.2-0.2l0.1-0.1l4,4.7c0.8,0.9,1.2,1.8,1.4,2.7c0.1,0.5,0,0.9-0.2,1.4s-0.5,0.9-0.9,1.3c-0.4,0.4-0.9,0.6-1.4,0.8   s-1,0.2-1.6,0.1c-0.6-0.1-1.1-0.4-1.6-0.8c0.3,0.7,0.3,1.5,0,2.4c-0.7,2.3-1,3.9-0.9,4.6c0.1,0.4,0.2,0.7,0.5,1.1l-0.1,0.1   l-1.2-1.3c-0.7-0.8-1.1-1.5-1.3-2.2c-0.2-0.7-0.2-1.4,0-2.2c0.1-0.4,0.3-0.9,0.7-1.7c0.3-0.7,0.5-1.2,0.7-1.5   c0.3-0.7,0.4-1.3,0.1-1.7l0.1-0.1l0.4,0.4c0.4,0.4,0.8,0.7,1.3,0.8s1.1,0,1.7-0.4c0.2-0.1,0.4-0.2,0.5-0.3   c0.7-0.6,1.2-1.3,1.2-1.8c0.1-0.6-0.1-1.1-0.5-1.6C459.4,256.9,459.3,256.7,459.1,256.5z"></path>	</g></g><g>	<circle class="st0" cx="19.6" cy="152.9" r="5.5"></circle>	<circle class="st0" cx="488" cy="152.9" r="5.5"></circle></g><g>	<path class="st0" d="M170.4,345.2c2.7-2.2,4.9-5.4,6.6-9.7c1.8-4.3,2.6-9.2,2.6-14.9v-68.6c0-2.1,0.9-4.2,2.4-5.6  c1.5-1.5,3.5-2.3,5.6-2.3h1.6v-1.2h-27.5v1.3h1.6c2.1,0,4.1,0.8,5.6,2.3c1.5,1.5,2.4,3.5,2.4,5.6v68.2c0,5.3-0.6,10-1.9,13.9  c-1.3,3.9-2.9,6.9-4.9,8.8c-1.9,1.9-4.2,3.4-6.6,4.3c-2.2,0.9-4.6,1.3-7,1.4c-2.3,0-4.5-0.4-6.7-1.2l-0.5,1.4  c3.1,1.4,6.5,2.2,9.9,2.1C159.8,351.1,165.4,349.1,170.4,345.2z"></path>	<path class="st0" d="M400.5,493.2c-3.8,0.8-7.7,0.6-11.5-0.4c-2.4-0.5-4.7-1.4-6.8-2.6c-1.4-0.9-2.7-1.7-3.8-2.4  c-1.3-0.8-2.5-1.8-3.6-2.9c-1.3-1.2-2.4-2.2-3.3-3c-1.1-1.1-2.2-2.2-3.2-3.3c-1.3-1.4-2.2-2.5-2.8-3.3c-0.6-0.8-1.7-2-3.3-3.9  c-1.6-1.8-2.7-3.2-3.6-4.1v-70.8c0.1-2,0.9-3.9,2.4-5.3c1.4-1.4,3.4-2.2,5.4-2.2h2.3v-1.3h-25.8v1.3h2.4c2,0,4,0.8,5.4,2.2  c1.5,1.4,2.3,3.4,2.4,5.5v64.3l-63.2-70.2c-2.8-3.1-5.1-5.6-7.1-7.5c-2.4-2.3-4.9-4.4-7.6-6.3c-3.1-2.3-6-3.8-8.7-4.7  s-5.9-1.3-9.6-1.3h-0.1c-1.7-6.1-2.9-12.3-3.7-18.6c-0.8-6.6-1.2-13.2-1.1-19.9c8.1-7.1,16-14.4,23.9-21.7c1.9-1.7,3.8-3.5,5.7-5.3  c2-1.8,3.9-3.8,5.7-5.8c1.9-2.2,3.5-4.6,4.8-7.2c1.3-2.8,2-5.8,2-8.8c0-3-0.9-6.2-2.7-8.7c-0.9-1.2-2.1-2.3-3.4-3.2  c-0.3-0.2-0.6-0.4-1-0.6l-1-0.5c-0.7-0.3-1.4-0.5-2.1-0.7c-1.4-0.3-2.8-0.5-4.2-0.4l-0.4,0c-4,0.1-7.9,1.3-11.2,3.4  c-6.8,4.9-10.1,13.3-12.1,20.1c-2.6,8.6-4.4,17.3-5.3,26.2c-9.6,7.8-19,15.6-28.4,23.6l-5.8,5c-1.9,1.7-3.9,3.4-5.9,5.2  c-2.1,1.9-4,3.9-5.8,6c-1.9,2.2-3.7,4.6-5.1,7.2c-3,5.4-4.6,11.7-3.7,18.2c0.1,0.8,0.3,1.6,0.5,2.4c0.2,0.8,0.5,1.6,0.8,2.4  c0.6,1.6,1.4,3.1,2.3,4.5c1.9,2.7,4.4,4.9,7.3,6.5c2.7,1.4,5.6,2.4,8.6,2.9c2.8,0.5,5.7,0.7,8.6,0.5c1.4-0.1,2.8-0.2,4.2-0.4l2-0.3  c0.7-0.1,1.3-0.3,2-0.4c10.6-2.3,20.4-7.7,28.1-15.4c0.7,1.5,1.5,3,2.2,4.5c2.7,5.5,5.3,10.7,5.9,16.8c0.9,9.7-3.5,20-11.4,26.1  c-7.8,6.1-18.5,8-28.2,5.2c-9.2-2.7-16.9-9.6-20.9-18.5c-0.2-0.5-0.9-0.8-1.4-0.6c-0.6,0.2-0.8,0.9-0.6,1.4c0,0,0,0,0,0  c4.2,9.5,12.5,16.7,22.3,19.6c3.1,0.9,6.3,1.4,9.5,1.4c7.4,0,14.8-2.4,20.6-6.9c8.4-6.6,13.2-17.6,12.2-28  c-0.6-6.5-3.4-12.1-6.1-17.6c-0.9-1.7-1.7-3.5-2.5-5.2c1.5-1.6,3.6-3.9,5.8-6.2c1.5,1.3,2.8,2.4,4,3.3c1.4,1.2,2.7,2.5,3.9,3.9  c1.4,1.6,2.5,2.9,3.4,3.9c0.8,1,1.9,2.3,3.1,3.9c1.3,1.6,2.1,2.7,2.5,3.3v68.8c0,2.1-0.8,4-2.3,5.5c-1.4,1.4-3.4,2.2-5.4,2.2h-2.4  v1.3h25.8v-1.3H298c-1.3,0-2.6-0.3-3.8-1c-2.5-1.4-3.8-3.6-3.9-6.5v-62.7l66.1,73.2c3.7,4.1,7.8,7.9,12,11.4  c4.1,3.2,8.9,5.5,14.5,7c5.3,1.3,11.4,1,18-1.1L400.5,493.2z M258,293.6c2-6.5,5-14.4,11.3-19c0,0,2.5-1.9,4-2.4  c0.8-0.3,1.7-0.5,2.6-0.5l0,0c2.4-0.2,4.8,0.2,7,1.2c0.5,0.2,1,0.5,1.5,0.8c0.4,0.3,0.9,0.6,1.3,1c0.8,0.7,1.4,1.5,1.9,2.5  c0.9,1.9,1.2,4,0.9,6c-0.3,2.1-1.1,4.1-2.2,5.9c-1.2,1.9-2.7,3.6-4.4,5.1c-1.7,1.6-3.6,3.1-5.6,4.7s-4.1,3.1-6.1,4.7  c-5.7,4.5-11.4,9-17,13.6C253.9,309.2,255.6,301.4,258,293.6z M238.2,394.7c-1.2,0.3-2.4,0.5-3.6,0.7c-0.6,0.1-1.2,0.2-1.8,0.2  s-1.2,0.2-1.8,0.2l-1.8,0.1l-1.8,0.1c-1.2,0-2.4,0-3.5,0c-2.3-0.1-4.5-0.5-6.7-1.1c-2-0.5-4-1.4-5.8-2.6c-1.6-1-2.9-2.4-3.8-4  c-0.4-0.8-0.8-1.6-1-2.4c-0.2-0.4-0.2-0.9-0.3-1.3c0-0.5-0.1-0.9-0.2-1.4c-0.1-2,0.1-3.9,0.6-5.8c0.5-2,1.4-3.9,2.5-5.6  c1.2-1.9,2.5-3.6,4-5.2c1.6-1.7,3.3-3.4,5.1-4.9c1.8-1.6,3.8-3.2,5.7-4.9l5.9-5c6.7-5.7,13.4-11.5,20-17.4  c0,12.4,1.6,24.7,4.8,36.7c-3.2,0.3-6.3,1.1-9.2,2.4l0.5,1.3c2.1-0.6,4.2-1,6.3-1c1.1,0,2.2,0.1,3.2,0.3c0.8,2.8,1.7,5.5,2.7,8.2  c0.4,1.2,0.8,2.2,1.3,3.3C252.8,389.8,245.7,393,238.2,394.7z M261.2,384c-0.4-0.9-0.7-1.8-1.1-2.7c-0.8-2.3-1.6-4.6-2.3-6.9  c0.5,0.1,1,0.3,1.5,0.4c2.5,0.7,4.8,1.8,6.9,3.3C264.4,380.4,262.6,382.5,261.2,384L261.2,384z"></path>	<path class="st0" d="M299.4,345.4c-7,2.2-13.4,6.5-20.1,15.2c-1.5,2-5.3,7.9-6.8,10.2c-0.3,0.5-0.2,1.2,0.3,1.5c0,0,0,0,0,0h0  c0.5,0.3,0.7-0.3,1.1-0.8c1.4-2.3,5.2-7.9,6.7-9.8c6.4-7.8,12.9-12.2,19.4-14.3c6.7-2.1,15.7,0,20.6,6c0.6,0.7,1.8,0.5,2-0.8  c0-0.7-0.2-1.4-0.6-1.9C316.5,344.4,306.7,343.2,299.4,345.4z"></path>	<path class="st0" d="M281.2,489.6c-0.1,0-0.2,0-0.3,0c-0.9,0.1-1.8,0.2-2.6,0.4c-7,1.1-14,1.7-21.1,1.7c-9.1,0-18.1-0.9-27-2.7  c-11.6-2.3-23-6.3-34.8-12.1c-3.1-1.5-4.9-3.5-5.9-6.1c-0.1-0.3-0.2-0.5-0.3-0.8c-0.8-2-1.5-3.9-0.9-6c0.3-1.1-0.3-2.2-1.4-2.6  c-0.2-0.1-0.5-0.2-0.8-0.2c-0.5,0-1,0.2-1.3,0.7c-0.7,1-0.1,1.9,0.3,2.6l0.1,0.1c0.1,0.2,0.3,0.3,0.4,0.5c0.3,0.3,0.6,0.7,0.7,1.2  c0.4,2,1.1,3.9,1.9,5.7c0.2,0.5,0.2,0.7,0.1,0.8c0,0-0.1,0-0.1,0c-0.1,0-0.3-0.1-0.4-0.2l-0.2-0.1c-1.9-1.2-3.9-2.4-6.3-3.9  c-0.3-0.1-0.5-0.4-0.6-0.7c0-0.4,0.1-0.7,0.4-1c1.5-1.9,2.3-4.3,2.3-7.3c0.1-5.6-2.3-10.3-4.5-14.2c-0.4-0.7-0.9-1.1-1.4-1.1  c-0.6,0-1.1,0.5-1.4,1c-1.2,1.6-2,3.4-2.4,5.4c-0.9,4.6,0,9,2.7,13.6c0.1,0.1,0.1,0.2,0.2,0.3c0.4,0.5,0.3,0.6,0.2,0.7  c0,0-0.1,0-0.1,0c-0.1,0-0.3-0.2-0.4-0.3c-0.1-0.1-0.2-0.2-0.3-0.3c-3.1-2-5-5.1-5.9-9.6c-0.8-3.9-0.3-7.9,0.2-11.8l0.1-0.5  c0-0.2,0-0.5,0.1-0.7c0.1-1.2,0.2-1.9,1.5-2.2c0.7-0.1,0.8-1,0.9-1.4c0.2-0.9-0.1-1.8-0.7-2.6c-0.6-0.6-1.4-1-2.3-1  c-0.2,0-0.4,0-0.7,0.1c-0.8,0.1-1.3,0.4-1.4,0.9c-0.1,0.3-0.2,0.7,0.3,1.4c1.4,1.9,1.1,4,0.7,6.2c0,0.2-0.1,0.4-0.1,0.6  c-0.7,4.6-1,9.6,0.8,14.4l0.1,0.2c0.2,0.5,0.2,0.5,0,0.6c0,0-0.1,0-0.1,0c-0.1,0-0.3-0.2-0.4-0.3c-0.1-0.1-0.1-0.1-0.2-0.1  c-2.9-2.4-5.6-5.1-8.2-7.7l-0.8-0.8c-0.4-0.4-0.4-0.6-0.4-0.6c0,0,0.1-0.2,0.6-0.3c2.1-0.6,3.6-2.1,4.3-4.5c1.4-4.7,1-9.6-1.2-15.4  c-0.7-1.9-1.6-3.3-2.8-4.4c-0.3-0.3-0.7-0.5-1.1-0.6c-0.4,0-0.8,0.3-1.1,0.7c-4.1,6.9-4.9,13.3-2.4,19.8c0.1,0.2,0.1,0.3,0.2,0.4  c0.2,0.2,0.3,0.5,0.3,0.8c-0.3-0.1-0.6-0.3-0.8-0.6c-3.6-4.4-5.4-9.9-5.5-16.7c0-2.2,0.1-4.5,2.6-5.5c0.3-0.1,0.6-0.4,0.8-0.7  c0.2-0.5,0.1-1.1-0.2-1.6c-0.4-0.9-1.1-1.1-1.6-1.1c-0.1,0-0.1,0-0.2,0c-1.2,0.2-1.5,1.3-1.5,1.7c0,0.3-0.1,0.5-0.1,0.8  c0,0.4-0.1,0.8-0.2,1.1c-1.6,4.1-1.6,8.6,0.1,14c0,0.1,0.1,0.2,0.1,0.3c0.1,0.4,0.2,0.7,0.1,1c-0.5-0.7-1-1.4-1.5-2  c-2.5-3.3-4.9-6.4-5.2-10.8c-0.1-1.6-0.1-3,0.6-4.4c1.1-2.3,1.8-4.8,2.3-7.3c0.4-2,0.7-4.5-0.1-7.1c0-0.1-0.1-0.3-0.1-0.4  c-0.2-0.7-0.4-1.8-1.6-1.9c-1.1,0-1.7,1.1-2.2,1.9c-1.9,3.6-2,7.4-1.8,10.7c0.1,2.6,0.5,5.1,1,7.6c0,0.2,0.1,0.5,0,0.6  c0,0-0.1,0-0.1,0.1c-0.1,0-0.2-0.3-0.2-0.4l0-0.1c-0.2-0.8-0.5-1.7-0.7-2.5c-1-4-1.3-8.2-1.7-12.3l-0.1-1.1  c-0.1-1.6,0.3-2.5,1.8-3.4c7.3-4.8,11-11.4,10.8-19.5V386c0-1.3-0.1-3.1-1.3-3.7c-0.3-0.1-0.6-0.2-0.9-0.2c-1.1,0-2.1,0.9-3,1.6  l-0.2,0.2c-2.8,2.4-4.9,5.5-6.6,9.8c-0.1,0.3-0.2,0.5-0.2,0.8c-0.1,0.5-0.3,1.1-0.5,1.1c-0.4,0-0.5-0.4-0.6-1.3  c0-0.3-0.1-0.5-0.1-0.8c-0.9-3.3-2.7-5.8-5.3-6.9c-1.5-0.7-1.5-1.4-1.5-2.6v-0.1c0-4.2-1-8.4-3.1-12.8c-1.5-3.1-3.5-6.6-7.1-8.8  c-0.4-0.3-0.9-0.5-1.5-0.5c-1,0-1.5,0.9-1.8,1.5c-1.1,2.4-1.5,5.2-1.2,8.8c0.4,5.2,1.6,10.3,3.5,15.2l0.2,0.5  c1.5,3.9,3.1,8,6.3,11.1c1,1,1.4,2.2,1.8,3.6c0.1,0.3,0.2,0.7,0.3,1c-0.1-0.2-0.2-0.4-0.3-0.6c-0.2-0.5-0.5-1-0.8-1.4  c-3.2-5.5-7.8-12.5-14.6-17.8c-1.3-1-2.7-2-4.1-2.9c-2.5-1.7-5.2-3.5-7.3-5.8c-0.2-0.3-0.5-0.4-0.8-0.5c-0.1,0-0.2,0-0.3,0.1  c-0.6,0.3-0.5,0.9-0.5,1.2c0,0.1,0,0.1,0,0.2c0.3,4.1,1.1,8.1,2.3,11.9c2.3,7.2,6.2,12.3,11.8,15.7c3.9,2.4,8.3,3.3,12.8,4.2  c2.5,0.5,4.3,1.3,5.2,3.8c1.1,3.2,2.8,6.2,4.4,9.1c0.4,0.7,0.8,1.5,1.2,2.2c0.3,0.6,0.6,1.1,1,1.7c0.6,0.9,1.1,1.9,1.5,2.9  c-1-0.8-1.8-1.7-2.5-2.8c-3.7-5-7.9-8.4-12.8-10.4c-3.5-1.4-7.1-2.7-10.5-3.9l-1.3-0.5c-0.2-0.1-0.4-0.2-0.6-0.4  c-0.3-0.3-0.8-0.5-1.2-0.5c-0.3,0-0.6,0.1-0.8,0.3c-0.8,0.7-1.2,1.9-1.4,2.7c-0.2,1.1-0.2,2.2,0.2,3.3c1.2,4.5,3.9,8.3,8,11.1  c2.5,1.7,5.4,2.2,8.2,2.8l0.3,0.1c1,0.2,2,0.4,2.9,0.6c3.9,0.8,7.9,1.5,12,1.6c0.5,0,1,0.2,1.4,0.6c2.1,1.6,3.7,3.8,5.3,5.9  c0.6,0.8,1.2,1.6,1.8,2.3c0.2,0.2,0.3,0.4,0.2,0.4c0,0.1-0.1,0.1-0.1,0.1c-0.1,0-0.3-0.1-0.4-0.2l-0.1-0.1  c-0.3-0.1-0.5-0.3-0.8-0.4c-0.5-0.3-1-0.5-1.6-0.8c-1.2-0.5-2.4-0.9-3.6-1.2c-2.1-0.6-4-1.2-5.7-2.6c-0.3-0.2-0.6-0.4-0.9-0.4  c-0.5,0-0.9,0.2-1.2,0.6c-0.5,0.6-0.8,1.4-0.8,2.2c0,0.8,0.2,1.6,0.8,2.2c0.3,0.4,0.8,0.6,1.4,0.7c0.8,0,1.5-0.7,1.9-1.2  c0.3-0.4,0.8-0.7,1.4-0.7c0.3,0,0.6,0.1,0.9,0.1c4.6,1.1,8.9,3.5,13.5,7.5l0.1,0.1c0.4,0.3,0.4,0.4,0.4,0.5c0,0,0,0.1-0.1,0.1  c-0.1,0-0.2-0.1-0.3-0.2c-0.1-0.1-0.2-0.1-0.3-0.2c-2.5-1.3-5.4-2-8.9-2.4c-2.4-0.2-4.7-0.3-7.1-0.3c-3.4,0-6.9,0.2-10.2,0.4  c-1.1,0.1-2.2,0.1-3.3,0.2c-0.7,0.1-1.4,0.2-2.1,0.4c-0.3,0.1-0.7,0.2-1.1,0.2c-0.4,0-0.7,0.3-0.9,0.6c-0.1,0.4,0,0.8,0.2,1.2  c2.2,3.5,4.9,7,9,9c5.2,2.5,10.9,3.8,16.7,3.8c0.7,0,1.3,0,2,0c4.5-0.2,8.7-0.7,12-4.1c0.1-0.1,0.3-0.2,0.4-0.2  c0.2,0,0.5,0.1,0.7,0.2l0.2,0.1c2.4,0.8,4.2,2.4,6,4.1c0.9,0.9,1.9,1.8,3,2.6c0.2,0.2,0.3,0.3,0.3,0.3c0,0-0.2,0.1-0.5,0.2  c-0.2,0-0.5,0-0.7,0c-0.7,0-1.4-0.2-1.9-0.7c-1.5-1.2-3.3-2.6-5.5-3.5c-0.7-0.3-1.4-0.4-2.1-0.5c-1.9,0-3,1.4-3,3.8v0.1  c0,0.1,0,0.3,0,0.4c0.1,1-0.2,1.4-1.1,1.7c-0.8,0.2-1.4,0.8-1.8,1.5c-0.3,0.7-0.3,1.5,0,2.1c0.5,1.2,1.5,2.9,3.3,3.7  c1.1,0.4,2.2,0.6,3.3,0.6c3.9,0,8.2-2.3,8.5-6.7c0.1-0.8,0.4-0.9,0.7-0.9l0.3,0c0.5,0,0.9-0.1,1.4-0.1c1,0,2.2,0.1,3.3,1.1  c0.9,0.8,1.8,1.5,2.8,2.1c0.4,0.3,0.9,0.6,1.3,0.9c0.2,0.1,0.4,0.2,0.6,0.3c0.7,0.4,0.9,0.6,0.8,0.9c0,0.1,0,0.1-0.3,0.1  c-0.3,0-0.5-0.1-0.8-0.2c-0.2-0.1-0.4-0.1-0.7-0.1c-0.9-0.1-1.9-0.2-2.8-0.2c-4.9,0-9.6,1.6-14.3,4.9c-0.3,0.2-0.8,0.6-0.8,1.1  c0.1,0.5,0.5,0.7,0.9,0.8c5.2,2,9.5,3,13.8,3c1,0,2-0.1,3-0.2c3.3-0.4,5.9-1.8,7.7-4.3c0.4-0.6,0.7-0.7,1-0.7c0.4,0,0.7,0.2,1,0.4  c4.4,2.6,8.9,4.9,13.6,7c7.8,3.5,16,6.2,24.3,8.1c6.7,1.6,13.6,2.7,20.5,3.2c3.9,0.3,7.8,0.4,11.5,0.4c5.7,0,11.4-0.3,17-1.1  c2-0.3,4-0.6,6-0.9l0.6-0.1c0.4,0,0.7-0.2,0.9-0.5c0.1-0.2,0.1-0.5,0.1-0.7C282.1,489.8,281.7,489.5,281.2,489.6z M159.9,446.7  c0.7-2,0.7-4,0.8-6.1c0-0.5,0-1.1,0.1-1.6v0c-0.1-1.2-0.1-2.4-0.1-3.5c0-2.3-0.2-4.5-0.4-6.8c0-0.1,0-0.2-0.1-0.3  c-0.1-0.4-0.1-0.4,0-0.5c0,0,0.1,0,0.2,0c0.2,0,0.3,0.2,0.5,0.6c2.5,5.6,3.3,10.5,2.2,15.2c-0.4,1.6-1.1,2.8-2.2,3.7  c-0.2,0.2-0.4,0.3-0.6,0.3c-0.1,0-0.2,0-0.2-0.1C159.8,447.4,159.7,447.2,159.9,446.7z M148.2,385.9L148.2,385.9  c0.2-0.4,0.4-0.8,0.6-0.8c0,0,0.1,0,0.1,0c0.2,0,0.2,0.3,0.2,0.8v0.2c0,0.4,0,0.8,0,1.1v0.5c-0.3,6.6-3.4,12-9.6,16.5l0,0  c-0.2,0.1-0.3,0.2-0.5,0.3c-0.1,0-0.1,0-0.2-0.1l0,0c0-0.1,0.1-0.1,0.1-0.2c0,0,0.1-0.1,0.1-0.1c2.3-3.1,3.8-6.7,5.3-10.1  c0.7-1.5,1.4-3.1,2.1-4.6c0.2-0.5,0.5-1,0.7-1.5C147.5,387.2,147.8,386.6,148.2,385.9L148.2,385.9z M145.7,385.8  c0.2-0.2,0.4-0.3,0.7-0.5l0.1,0l0.1-0.1c0.1,0,0.1-0.1,0.2-0.1c0,0,0.1,0.1,0,0.3c-1.1,2.2-2.2,4.6-3.2,6.8c-1.3,2.9-2.7,6-4.2,8.8  c0,0.1-0.1,0.1-0.1,0.2c-0.1,0.2-0.2,0.5-0.3,0.5c0,0-0.1,0-0.1,0c-0.2-0.1-0.2-0.2-0.2-0.7c0-0.3,0-0.5,0-0.8  C139.9,393.8,142.1,389.3,145.7,385.8z M123.9,399.8c-4.1-3-16.6-15.4-19.5-19.3C112.2,384.8,118.6,391.1,123.9,399.8L123.9,399.8z   M127.6,406.6c0,0.1-0.1,0.1-0.2,0.1c-0.2,0-0.4-0.1-0.6-0.1c-0.1,0-0.2-0.1-0.3-0.1l-0.2,0c-4.8-1.1-9.8-2.2-13.9-5.3  c-4-3.1-7-7.2-8.9-12.8c-0.7-2.3-1.4-4.6-1.8-6.9l-0.1-0.6c0-0.1,0-0.1,0-0.2c0-0.1,0-0.2,0-0.4c0,0,0.1,0,0.1,0  c0.2,0,0.3,0.2,0.5,0.5l0.1,0.1c2,2.6,4.3,5,6.6,7.2l0.4,0.3c2.4,2.4,4.9,4.8,7.3,7.1c3.4,3.3,7,6.6,10.3,10.1  c0.1,0.1,0.2,0.2,0.3,0.3C127.7,406.3,127.8,406.4,127.6,406.6L127.6,406.6z M133.8,390.7C133.8,390.7,133.8,390.7,133.8,390.7  L133.8,390.7c0.2,0,0.3,0,0.5,0.4c1.4,2.1,2,4.7,1.6,7.2l-0.3-1C135,395,134.4,392.9,133.8,390.7  C133.8,390.7,133.8,390.7,133.8,390.7L133.8,390.7z M133.3,395.7c-0.5-1-0.8-2-0.9-3.1C133,393.5,133.3,394.6,133.3,395.7  L133.3,395.7z M125.4,395.5L125.4,395.5c-0.3,0-0.5-0.2-0.6-0.4l-0.5-0.9c-0.5-0.9-1-1.8-1.4-2.7c-3.8-8.1-5.5-15-5.4-21.9  c0-1.5,0.2-2.9,0.7-4.3c0-0.1,0-0.2,0.1-0.3c0.1-0.4,0.1-0.5,0.3-0.5h0.1c0.2,0,0.3,0.2,0.5,0.7c0.9,2.4,1.6,4.9,2.2,7.4  c1.6,6.4,2.9,13.4,4.2,22c0,0.1,0,0.2,0.1,0.3v0.1C125.5,395.5,125.4,395.5,125.4,395.5z M127.8,390.1c-0.3,0.9-0.6,1.9-0.8,2.8  c-0.3-0.5-0.4-1-0.5-1.5c0-0.1,0-0.2,0-0.3c-1.6-10.1-3.3-18.3-5.7-25.7c0-0.1,0-0.1-0.1-0.2c-0.1-0.1-0.1-0.2-0.1-0.4l0,0  c0,0,0,0,0.1,0c0,0,0.1,0,0.1,0c0.2,0,0.4,0.2,0.6,0.4c2.3,2.3,4,5.2,5.3,8.9c1.7,4.8,2.3,8.8,1.9,12.6  C128.5,387.9,128.2,389,127.8,390.1z M137.8,420.2C137.8,420.2,137.8,420.2,137.8,420.2c-0.3,0-0.5-0.4-0.6-0.7l-0.1-0.1  c-0.2-0.4-0.4-0.8-0.6-1.2c-0.6-1-1.1-2-1.5-3.1c-0.9-2.2-1.9-4.4-2.8-6.6c-1.1-2.5-2.2-5-3.2-7.6c-1.3-3.5-0.9-6.6,0.2-10.2  c0.1-0.4,0.2-0.8,0.4-1.2c0.1-0.4,0.3-0.9,0.4-1.3c0.1-0.3,0.2-0.3,0.2-0.3l0,0c0.1,0,0.2,0,0.2,0.3c0.1,0.6,0.1,1.2,0.1,1.7l0,0.4  c-0.2,3.1,0.5,5.7,1.9,7.9c3.5,5.3,4.3,11.2,4.7,16.8c0.1,1.4,0.2,2.8,0.6,4.2c0,0.1,0,0.1,0.1,0.2C138,420,138,420.2,137.8,420.2z   M112.8,412.2c0.1-0.1,0.1-0.1,0.1-0.1c0.1,0,0.3,0.1,0.4,0.1l0,0c1.3,0.5,2.7,1,4,1.4c3.2,1.1,6.5,2.2,9.5,3.9  c1.4,0.9,2.8,1.9,4.1,3c0.5,0.4,1.1,0.9,1.6,1.3c0.1,0.1,0.2,0.3,0.3,0.4c0,0,0,0.1,0.1,0.1s0,0.1-0.1,0.1c-0.1,0-0.2,0-0.3-0.1  c-2.1-1.1-4.5-1.7-6.7-2.2c-1.4-0.4-2.8-0.7-4.2-1.2c-3.7-1.3-6.6-4-8.6-6.3l-0.1-0.1C112.8,412.4,112.8,412.4,112.8,412.2  L112.8,412.2z M139,429.8c-0.1,0.2-0.4,0.3-0.6,0.3c-0.2,0-0.4,0-0.6-0.1c-0.3,0-0.6-0.1-0.9-0.1c-1-0.2-2.1-0.3-3.2-0.5  c-4.6-0.7-9.3-1.4-13.9-2.9c-5-1.6-10-8.3-9.9-13.2c0-0.1,0-0.3,0-0.4c0-0.7,0-0.9,0.3-1c0,0,0.1,0,0.1,0c0.1,0,0.3,0.2,0.5,0.5  c0.1,0.2,0.2,0.3,0.3,0.5c4.1,4.8,8.1,7.4,12.8,8.4c3.2,0.7,7,1.7,10.3,3.9c1,0.7,2,1.6,2.9,2.5c0.5,0.5,1,1,1.5,1.4  C138.9,429.5,139.1,429.7,139,429.8L139,429.8z M142.3,410.2c0,0.7-0.1,1.3-0.3,1.9C141.9,411.4,142,410.8,142.3,410.2L142.3,410.2  z M142.4,417.9l0-0.1c0.3-1.5,0.6-3.1,0.9-4.6c0.2-0.8,0.3-1.7,0.5-2.5v-0.1c0.1-0.6,0.2-0.9,0.4-0.9c0.1,0,0.1,0,0.2,0  c0.1,0.1,0,0.4,0,0.6c0,0.1,0,0.2,0,0.3c-0.1,3-0.8,6-2.1,8.7C142.2,418.9,142.2,418.4,142.4,417.9L142.4,417.9z M135.8,439v0.2  l0,0V439c-0.5,0-0.6-0.6-0.6-0.9c0-0.5,0.1-0.8,0.2-0.9c0.1-0.1,0.3-0.1,0.4-0.1c0.6,0,0.9,0.5,1,0.9  C136.7,438.7,136.3,439,135.8,439L135.8,439z M157.4,455.6c-2.5,2.1-5.7,2.4-9,2.6c-0.8,0-1.6,0.1-2.4,0.1c-4.9,0-9.8-0.9-14.3-2.7  c-3.8-1.6-6.9-4.1-9.3-7.8c-0.4-0.6-0.4-0.8-0.4-0.9c0-0.1,0.2-0.2,1.2-0.3c4.4-0.4,7.8-0.6,10.9-0.6c0.5,0,1.1,0,1.6,0l0,0  c0.9,0,1.9,0,2.8,0c3.8,0,7.9,0.2,11.8,1.6c2.6,0.9,4.5,2.2,6,3.9l0.1,0.1c0.3,0.3,0.3,0.4,0.2,0.5c0,0-0.1,0.1-0.1,0.1  c-0.2,0-0.3-0.1-0.5-0.1c-3.2-1.3-6.7-1.6-10-1.8c-1.4-0.1-2.8-0.2-4.2-0.4c-0.5-0.1-1.1-0.1-1.6-0.2c-1.5-0.2-3-0.4-4.5-0.4  c-0.4,0-0.8,0-1.2,0h-0.1h-0.2h-0.2c-0.7,0-0.9,0.4-1,0.8c0,0.3,0,0.5,0.2,0.7c0.2,0.2,0.5,0.3,0.8,0.3h0.3h0.2  c5.7,0.2,11.4,0.9,17.1,1.6c2,0.3,3.9,1,5.5,1.8c0.6,0.3,0.7,0.5,0.8,0.6C158,454.9,158,455.2,157.4,455.6L157.4,455.6z   M158.5,445.5l0,0.1c-0.1,0.5-0.1,0.5-0.3,0.5h0c-0.2,0-0.3-0.1-0.5-0.6c-2.4-5.6-2.4-11.1,0-16.3l0.1-0.1c0.2-0.4,0.3-0.7,0.6-0.7  h0.1c0.1,0,0.2,0,0.2,0.6c0,0.1,0,0.2,0,0.4c0.1,0.6,0.1,1.3,0.2,1.9c0.3,2.5,0.4,5.1,0.4,7.7v0C159.2,441.2,159,443.4,158.5,445.5  z M169.6,436.6c0.1-0.1,0.2-0.1,0.3-0.1h0c0.4,0,0.8,0.2,1,1.1c0,0.2,0,0.3,0,0.5c0,0,0,0-0.1,0h-0.1c-0.5-0.1-0.9-0.5-1.3-1.2  C169.5,436.9,169.5,436.7,169.6,436.6L169.6,436.6z M167.1,465.5c-0.2,2.4-2.1,4.2-5.3,5c-0.5,0.1-1.1,0.2-1.7,0.2  c-2,0-3.7-0.9-4.6-2.4c-0.3-0.5-0.7-1.3-0.4-1.8s1-0.8,1.7-0.9c1-0.2,1.9-0.2,2.9-0.2c1,0,1.9,0.1,2.9,0.1c0.4,0,0.7,0,1.2,0  c0.3,0,0.6,0,1,0h1h0.3l0-0.3l0-0.2l0-0.2l0-0.3l-0.3-0.1c-1.9-0.4-3.9-0.6-5.8-0.7H160c-0.2,0-0.3,0-0.5,0c-0.2,0-0.3,0-0.5,0  c-0.5,0-0.6-0.1-0.7-0.5c-0.2-0.9-0.4-1.9,0.2-2.7c0.2-0.3,0.6-0.5,1.1-0.5c0.4,0,0.8,0.1,1.1,0.2c2.1,0.7,3.8,2,5.5,3.4l0.5,0.4  C167.1,464.4,167.1,464.9,167.1,465.5z M175.2,454.1c0-2.5,0.5-4.7,1.4-6c-0.3,4.4-0.1,8.9,0.5,13.3  C176,459.8,175.2,457,175.2,454.1L175.2,454.1z M179.6,464.6c-0.1-0.4-0.2-0.9-0.3-1.3c-0.7-3.5-1.4-7.1-1.2-10.7v-1.1  c0-0.9,0-1.8,0-2.7c0-0.5,0.2-0.6,0.3-0.7h0.1c0.1,0,0.2,0.1,0.4,0.4c1.7,3.4,3.3,7.4,2.9,12c-0.1,1.4-0.5,2.8-1.2,4.1  c0,0.1-0.1,0.1-0.1,0.2c-0.2,0.4-0.2,0.5-0.4,0.5c0,0-0.1,0-0.1,0C179.8,465.3,179.7,465.1,179.6,464.6L179.6,464.6z M183.4,475.3  l-0.1,0.1c-2.1,1.7-4.7,2.6-7.8,2.6c-0.9,0-1.8-0.1-2.7-0.2c-2.9-0.3-5.7-0.9-8.4-1.9l-0.3-0.1c-0.5-0.1-0.6-0.2-0.7-0.5  c0-0.2,0.1-0.3,0.5-0.5c0.1,0,0.2-0.1,0.3-0.2c3.8-2.2,7.5-3.3,11.4-3.3c1.8,0,3.6,0.3,5.4,0.7c0.1,0,0.2,0,0.3,0.1  c0.1,0,0.2,0,0.3,0.1l0.1,0c0.6,0.2,0.8,0.3,0.7,0.5c0,0.1-0.1,0.2-0.7,0.2h-0.3l-4.1,0.3c-2.4,0.2-4.9,0.4-7.3,0.6  c-1.1,0.1-2.3,0.3-3.4,0.4c-0.5,0.1-1,0.1-1.5,0.2l-0.9,0.1l0.7,0.5c0.6,0.5,1.4,0.7,2.2,0.7c0.4,0,0.8,0,1.2-0.1l0.6-0.1  c3.1-0.2,6.2-0.5,9.2-0.8c1.6-0.1,3.2-0.3,4.8-0.4c0.1,0,0.2,0,0.3,0c0.1,0,0.3,0,0.4-0.1c0.2,0,0.2,0.1,0.3,0.1  C184,474.7,183.9,474.9,183.4,475.3L183.4,475.3z"></path>	<path class="st0" d="M184.4,241.7c21.4-13.3,46.1-20.3,71.3-20.2c36.1,0,70.1,14.1,95.6,39.6c25.5,25.5,39.6,59.5,39.6,95.6  c0,10.7-1.3,21.4-3.7,31.9c-2.5,10.3-6.2,20.2-11,29.7c-0.2,0.5-0.1,1.1,0.3,1.4l0,0c0.2,0.1,0.4,0.2,0.6,0.2c0.4,0,0.8-0.2,1-0.6  c4.9-9.6,8.6-19.7,11.2-30.1c2.5-10.6,3.8-21.5,3.8-32.4c0-36.7-14.3-71.2-40.3-97.2c-25.3-25.4-59.6-39.8-95.5-40.3  c-0.6,0-1.1,0-1.7,0c-25.4,0-50.2,6.9-71.8,20.2c-0.6,0.3-0.7,1.1-0.4,1.6C183.6,241.4,184,241.6,184.4,241.7L184.4,241.7z"></path></g></svg>